<svg version="1.1" id="type" xmlns="http://www.w3.org/2000/svg" x="0" y="0" width="108" height="108" viewBox="0 0 204 204" style="enable-background:new 0 0 204 204" xml:space="preserve"><style>.st1{fill:#91b5c7}</style><circle cx="102" cy="102" r="101.1" style="fill:#fff"/><path class="st1" d="M102 1.8c55.3 0 100.2 44.8 100.2 100.2S157.3 202.2 102 202.2 1.8 157.3 1.8 102C1.9 46.7 46.7 1.9 102 1.8m0-1.8C45.7 0 0 45.7 0 102s45.7 102 102 102 102-45.7 102-102S158.3 0 102 0z"/><path class="st1" d="m107.6 124.6-8 32.1c-.2.4-.6.6-1.1.5-.3-.1-.6-.5-.5-.8l-1.8-33-16.7 10.2c-.4.2-.9.1-1.1-.4-.2-.3-.1-.7.1-.9l8.1-12.7-39.3 4.1c-.4.1-.8-.2-.9-.6-.1-.4.1-.9.5-1l29.9-12.3-28.1-4.6c-.4-.1-.7-.5-.6-.9.1-.4.4-.7.9-.7l36.7-2.2L67 64.9c-.2-.4-.1-.8.2-1.1.3-.3.8-.2 1.1.1L98.2 93l7.8-50c0-.5.4-.8.9-.8s.8.4.8.9l1.7 50.2 10.3-11c.3-.3.8-.4 1.2 0 .2.2.3.5.2.8l-.2 11.7 30.5-13.9c.4-.2.8 0 1 .3.2.4.2.8-.2 1.1l-30.8 24.6 21.5 11.8c.4.2.5.6.4 1-.1.4-.5.6-.9.6l-22.3-.6 23.1 34.3c28.5-22.6 33.2-64.1 10.6-92.5S89.6 28.3 61.1 50.9 27.9 115 50.6 143.4c21.2 26.7 59.3 32.8 87.8 14l-30.8-32.8z"/><path d="m79 188.7.4-1.8 6.1-4.8c.5-.4.8-.9 1-1.5.2-.8-.2-1.6-1-1.9h-.2c-.9-.2-1.8.4-2 1.3v.2l-2.3-.5c.3-2 2.2-3.4 4.3-3 .2 0 .4.1.5.1 2 .2 3.4 2.1 3.1 4 0 .1 0 .2-.1.3-.3 1.1-1 2.1-2 2.8l-4.3 3.4 5 1.1-.4 2-8.1-1.7zM99.5 190.7c-.8.7-1.9 1.1-3 1-1.1 0-2.2-.5-2.9-1.3-1.2-1.3-1.3-3.5-1.2-5.6s.5-4.2 1.9-5.4c1.8-1.4 4.3-1.3 5.9.4 1.2 1.4 1.3 3.5 1.2 5.6s-.5 4.1-1.9 5.3zm-2.3-10.2c-2.4-.1-2.3 2.7-2.4 4.4s-.5 4.5 1.9 4.6 2.3-2.7 2.4-4.4.4-4.4-1.9-4.6zM105.9 191.6l-.2-1.8 4.4-6.3c.4-.5.5-1.1.5-1.7 0-.8-.7-1.5-1.5-1.5h-.2c-.9.1-1.6.9-1.6 1.8v.2l-2.3.2c-.3-2 1.1-3.9 3.2-4.2h.6c2-.3 3.8 1 4.2 2.9v.3c0 1.2-.4 2.3-1.1 3.2l-3.1 4.5 5.1-.4.2 2.1-8.2.7zM122.1 189.3l-2.3-9.8-2.3 2.6-.6-2.4 2.6-2.9 1.9-.4 2.9 12.4-2.2.5zM45.4 153.6l-.9 1.3c1.4-.3 2.8.2 3.8 1.2.9.9 1.5 2.1 1.5 3.4 0 1.9-1 3.4-2.6 5-1.5 1.5-3 2.6-5 2.6-2.8-.1-5-2.3-5.1-5.1 0-1 .4-1.9 1-2.6l1.2 1.2c-.3.4-.6.9-.6 1.4 0 1 .4 1.9 1.1 2.5.6.6 1.5 1 2.4 1 1.5 0 2.8-1.2 3.8-2.2s2.2-2.3 2.2-3.9c0-.9-.4-1.7-1-2.3-.6-.6-1.4-1-2.3-1-1.2.1-2.3.6-3.1 1.6l2.5 2.5-1.1 1.1-3.5-3.5 5-5 .7.8zM39.5 145.7c1.7 2.4 1.3 4.9-1.4 6.8l-6.8 4.7-.9-1.3 6.8-4.8c1.7-1.2 2.3-2.7 1-4.5s-2.9-1.8-4.6-.6l-6.8 4.8-.9-1.3 6.8-4.7c2.6-1.9 5.1-1.5 6.8.9zM34.3 137.6l-11.6 5.9-.8-1.5 11.6-5.9.8 1.5zM27.3 124.3c1.1.6 2 1.6 2.4 2.8l1.5 4.3-12.3 4.3-1.5-4.3c-.4-1.2-.4-2.5.1-3.7.8-1.8 2.6-2.7 4.3-3.3s3.8-1 5.5-.1zm-8.4 4.1c-.4.8-.4 1.7-.1 2.5l1 2.7 9.4-3.3-1-2.7c-.3-.8-.8-1.5-1.6-1.9-1.3-.6-2.9-.2-4.2.3s-2.8 1-3.5 2.4zM27.2 118.6l-12.9 2.1-1.4-8.6 1.5-.2 1.2 7 3.9-.7-1-6.1 1.5-.2 1 6.1 4.4-.7-1.2-7 1.5-.2 1.5 8.5zM24.4 98.4c1.7 2.1 1.8 5.2.2 7.4-.8.9-1.9 1.4-3.1 1.4v-1.7c.8-.1 1.5-.4 2-1 .6-.7.8-1.6.8-2.5 0-.9-.2-1.7-.8-2.4-.4-.4-1-.7-1.5-.6-1 0-1.9.7-2.1 2.2l-.3 2.1c-.3 2-1.3 3.5-3.4 3.5-1 0-1.9-.4-2.6-1.1-1.7-1.9-1.8-4.8-.1-6.8.7-.8 1.7-1.3 2.8-1.3v1.7c-.6 0-1.2.3-1.6.7-1.2 1.3-1.1 3.3.1 4.6.4.3.9.5 1.4.5 1.2 0 1.7-1 1.8-2 .1-.7.2-1.5.3-2.2.3-2.2 1.6-3.6 3.6-3.7.9.1 1.8.5 2.5 1.2zM15 88.5l11.4 1.7-.2 1.6-11.3-1.7-.6 3.8-1.5-.2 1.4-9.3 1.5.2-.7 3.9zM29.9 76.2l-3.3.1-1.6 5.5 2.6 1.9-.5 1.6L16 77.1l.5-1.8 13.8-.7-.4 1.6zm-12 .5 5.8 4.2 1.3-4.4-7.1.2zM35 64.9l-6-.2-1.6 3.2 4.9 2.4-.7 1.5L20 66l2.3-4.6c.5-1.1 1.4-2 2.5-2.5.9-.3 2-.2 2.8.3.9.4 1.5 1.1 1.9 2 .2.6.2 1.2.1 1.8l6.3.2-.9 1.7zM23.6 62 22 65.2l4.1 2 1.5-3.1c.7-1.4.6-2.6-.9-3.4s-2.5 0-3.1 1.3zM43.3 43.7c0 1.2-.5 2.3-1.3 3.1l-2.2 2.4 3.8 3.4-1.1 1.2-9.7-8.7 3.2-3.6c.7-1 1.9-1.6 3.1-1.7 2.1.1 3.9 1.8 4.2 3.9zm-6.2-1.2L35 44.9l3.7 3.3 2.1-2.4c1.2-1.3 1.2-2.5-.1-3.7s-2.5-.8-3.6.4zM50.8 45.1l-8.3-10 1.2-1 7.3 8.8 4.8-4 1 1.2-6 5zM66.9 33.9l-2.5-2.1-4.9 2.8.6 3.2-1.4.8L56.1 25l1.7-1 10.5 9-1.4.9zM57.8 26l1.4 7 4-2.3-5.4-4.7zM69.4 20.2l4.4 10.6-1.5.6-4.4-10.6-3.6 1.5-.6-1.4 8.7-3.6.6 1.4-3.6 1.5zM80.6 28.5 77.1 16l1.6-.4 3.5 12.5-1.6.4zM94.9 25.8l-7.7-9.5 1.4 10.4-1.6.1-1.7-12.9 1.8-.2 7.7 9.6-1.4-10.4 1.6-.2 1.7 12.9-1.8.2zM105.7 25.8c-2.9-.1-4.7-2-4.5-5.2l.4-8.2 1.6.1-.4 8.3c-.1 2.1.7 3.5 3 3.6s3.2-1.2 3.3-3.3l.4-8.3 1.6.1-.4 8.2c-.2 3.2-2.1 4.9-5 4.7zM125.2 28.9l2.7-10.6-6.5 9.5-1.2-.3-1.3-11.5-2.7 10.7-1.5-.4 3.2-12.6 2.3.6 1.2 11.2 6.4-9.3 2.2.6-3.1 12.6-1.7-.5zM145.4 25.4l-5.6 10.1-1.4-.8 5.6-10.1-3.4-1.9.7-1.3 8.2 4.6-.7 1.3-3.4-1.9zM151.6 43.7l1.4-5.8-2.8-2.2-3.3 4.3-1.3-1 8-10.3 4 3.1c1 .7 1.7 1.7 1.9 2.9.1 1-.2 2-.8 2.7-.6.8-1.4 1.3-2.4 1.4-.6.1-1.2 0-1.8-.2l-1.5 6.1-1.4-1zm5-10.7-2.7-2.1-2.8 3.6 2.7 2.1c1.2.9 2.5 1.1 3.5-.2s.6-2.4-.7-3.4zM161.5 53.7l1.6-2.8-3.8-4.2-3 1.3-1.1-1.2 12.8-5.3 1.3 1.4-6.7 12.1-1.1-1.3zm5.8-10.5-6.6 2.8 3.1 3.4 3.5-6.2zM168.6 64.3l5.5-11-8.9 5.5-.8-1.3 11.1-6.9 1 1.6-5.6 11 8.9-5.5.8 1.3-11.1 6.9-.9-1.6zM175.6 77c-1.2-.6-2.1-1.7-2.6-3-.6-1.2-.6-2.6-.2-3.9.4-1.1 1.3-2 2.4-2.4l.6 1.6c-.7.3-1.3.9-1.6 1.6-.3.9-.2 1.8.2 2.6.3.8.8 1.6 1.6 2 .5.3 1.1.3 1.7.1.9-.4 1.5-1.3 1.1-2.8-.1-.7-.3-1.3-.5-2-.4-1.9 0-3.7 1.9-4.5.9-.3 1.9-.3 2.8.1 1.1.5 2 1.5 2.4 2.7.5 1.1.5 2.4.1 3.6-.4 1-1.2 1.8-2.1 2.2l-.6-1.6c.5-.2 1-.7 1.3-1.2.6-1.7-.1-3.5-1.7-4.3-.5-.2-1-.2-1.5 0-.9.4-1.4 1.5-1 2.5.2.7.3 1.4.5 2.1.5 2.1-.2 4-2.1 4.7-.9.3-1.9.3-2.7-.1zM183.7 88.8c-.9-.7-1.5-1.8-1.7-2.9l-.7-3.1-4.9 1-.3-1.6 12.7-2.7 1 4.7c.3 1.2.2 2.4-.5 3.5-.6.8-1.5 1.4-2.5 1.5-1 .3-2.2.2-3.1-.4zm4.6-4.3-.7-3.1-4.9 1 .7 3.1c.4 1.7 1.3 2.4 3 2s2.2-1.4 1.9-3zM178.6 101.6l3-1.2-.3-5.6-3.1-.9-.1-1.7 13.3 3.8.1 1.9-12.7 5.3-.2-1.6zm11.2-4.6-6.9-1.9.2 4.6 6.7-2.7zM177.6 114.4l5.7-1.8.4-3.6-5.4-.6.2-1.6 12.9 1.5-.6 5.1c-.1 1.2-.6 2.4-1.5 3.2-.8.6-1.8.8-2.8.7-1-.1-1.8-.5-2.4-1.3-.4-.5-.6-1-.7-1.7l-6 1.9.2-1.8zm11.7-1.2.4-3.4-4.5-.5-.4 3.4c-.2 1.5.3 2.7 2 2.9s2.3-.9 2.5-2.4zM176.5 119.9l12.5 3.7-2.4 8.3-1.4-.4 2-6.8-3.8-1.1-1.8 6-1.5-.4 1.8-6-4.3-1.3-2 6.8-1.4-.4 2.3-8.4zM169 139l12.2-1-9.4-4.7.7-1.4 11.6 5.9-.8 1.6-12.2 1 9.4 4.7-.7 1.4-11.6-5.9.8-1.6zM161.9 151.6c-.3-2.7 1.5-5.2 4.2-5.6 2-.3 3.6.7 5.3 1.9s3.1 2.6 3.3 4.5c.2 1.3-.2 2.6-1 3.7-.7 1.1-1.9 1.8-3.2 2-1.1.2-2.2-.1-3.1-.8l1-1.4c.6.4 1.2.6 1.9.5.9-.1 1.7-.6 2.2-1.3.5-.7.8-1.6.6-2.5-.2-1.5-1.6-2.6-2.7-3.4s-2.5-1.8-4-1.6c-.9.1-1.7.6-2.2 1.3-.5.7-.8 1.6-.6 2.5.2.7.5 1.3 1.1 1.7l-1 1.4c-1.1-.7-1.7-1.8-1.8-2.9zM158.3 161.3l-3.7-3.8 1.2-1.1 3.7 3.8 8.5 2.5-1.3 1.3-6.8-2.1 1.9 6.8-1.2 1.2-2.3-8.6z"/></svg>