<?xml version="1.0" encoding="utf-8"?>
<!-- Generator: Adobe Illustrator 16.0.4, SVG Export Plug-In . SVG Version: 6.00 Build 0)  -->
<!DOCTYPE svg PUBLIC "-//W3C//DTD SVG 1.1//EN" "http://www.w3.org/Graphics/SVG/1.1/DTD/svg11.dtd">
<svg version="1.1" xmlns="http://www.w3.org/2000/svg" xmlns:xlink="http://www.w3.org/1999/xlink" x="0px" y="0px" width="108px"
	 height="108px" viewBox="0 0 108 108" enable-background="new 0 0 108 108" xml:space="preserve">
<g id="white">
	<circle fill="#FFFFFF" cx="54" cy="54" r="54"/>
</g>
<g id="Background">
	<path fill="#9FB1BF" d="M54,0C24.176,0,0,24.177,0,54s24.176,54,54,54s54-24.177,54-54S83.824,0,54,0z M40.381,104.143
		C12.607,96.699-3.874,68.153,3.565,40.381C11.01,12.607,39.559-3.875,67.33,3.566c27.773,7.443,44.256,35.99,36.813,63.763
		C96.701,95.104,68.156,111.585,40.381,104.143z"/>
</g>
<g id="GuideStar">
	<g>
		<polygon fill="#9FB1BF" points="68.016,98.304 68.997,98.051 68.117,96.656 		"/>
		<path fill="#9FB1BF" d="M73.333,95.438c-0.137-0.396-0.459-0.526-0.916-0.368l-0.34,0.118l0.43,1.242l0.327-0.113
			C73.291,96.158,73.474,95.846,73.333,95.438z"/>
		<path fill="#9FB1BF" d="M49.849,98.051l-0.404-0.026l-0.182,2.769l0.405,0.027c0.797,0.052,1.32-0.334,1.384-1.301
			C51.113,98.573,50.613,98.101,49.849,98.051z"/>
		<path fill="#9FB1BF" d="M53.702,89.57c-10.851,0-21.63,0.984-32.884,2.988c5.586,4.773,12.298,8.408,19.869,10.439
			c16.776,4.493,33.838,0.055,46.142-10.397C75.486,90.567,64.634,89.57,53.702,89.57z M36.853,98.441
			c0.43,0.13,0.761,0.133,1.113,0.064l0.416-1.368l-1.252-0.38l0.145-0.992l2.478,0.753l-0.895,2.942
			c-0.694,0.198-1.531,0.218-2.354-0.031c-1.958-0.596-2.64-2.209-2.062-4.113c0.581-1.914,2.11-2.865,3.988-2.295
			c0.787,0.238,1.326,0.617,1.729,1.062l-0.504,1.048c-0.364-0.472-0.843-0.892-1.522-1.097c-1.207-0.367-2.081,0.324-2.48,1.639
			C35.25,96.997,35.61,98.063,36.853,98.441z M44.536,99.32c-0.237,1.234-1.149,1.678-2.222,1.472
			c-1.086-0.208-1.731-0.938-1.493-2.179l0.516-2.68l1.105,0.213l-0.515,2.673c-0.11,0.571,0.083,0.955,0.577,1.05
			c0.501,0.097,0.814-0.183,0.924-0.748l0.517-2.686l1.104,0.213L44.536,99.32z M46.659,101.406l-1.108-0.144l0.579-4.475
			l1.108,0.144L46.659,101.406z M49.67,101.692l-1.581-0.104l0.295-4.507l1.555,0.103c1.567,0.103,2.324,1.063,2.236,2.402
			C52.088,100.926,51.191,101.792,49.67,101.692z M53.33,101.85l-0.062-4.507l2.808-0.039l0.013,0.901l-1.711,0.023l0.012,0.85
			l1.307-0.019l0.156,0.893l-1.45,0.021l0.014,0.953l1.77-0.024l0.013,0.907L53.33,101.85z M59.659,101.639
			c-0.864,0.082-1.607-0.035-2.286-0.27l0.104-1.379c0.693,0.29,1.45,0.461,2.092,0.4c0.455-0.043,0.752-0.269,0.716-0.649
			c-0.034-0.362-0.236-0.513-1.17-0.771c-1.329-0.369-1.927-0.734-2.027-1.795c-0.118-1.235,0.785-1.987,2.012-2.104
			c0.837-0.08,1.391,0.027,1.974,0.243l-0.114,1.36c-0.607-0.279-1.229-0.407-1.722-0.36c-0.483,0.046-0.696,0.272-0.668,0.569
			c0.031,0.326,0.223,0.467,1.051,0.697c1.452,0.377,2.046,0.809,2.144,1.831C61.896,100.807,60.932,101.518,59.659,101.639z
			 M65.274,100.758l-1.107,0.203l-0.641-3.51l-1.256,0.229l-0.17-0.934l3.516-0.641l0.325,0.904l-1.308,0.239L65.274,100.758z
			 M70.05,99.697l-0.568-0.867l-1.507,0.389l-0.058,0.98l-1.064,0.275l0.439-4.794l1.19-0.308l2.617,3.864L70.05,99.697z
			 M73.281,98.652l-1.05,0.362l-1.475-4.264l1.489-0.515c1.032-0.357,1.801-0.097,2.104,0.781c0.205,0.593,0.048,1.098-0.385,1.488
			l1.587,1.209l-1.057,0.565l-1.454-1.185l-0.266,0.092L73.281,98.652z"/>
	</g>
</g>
<g id="Seal_of_transparency">
	<g>
		<path fill="#9FB1BF" d="M77.823,18.02c0.444-0.721,0.241-1.346-0.591-1.857l-0.47-0.291l-1.37,2.22l0.438,0.271
			C76.662,18.874,77.344,18.797,77.823,18.02z"/>
		<path fill="#9FB1BF" d="M19.223,30.086c1.384,1.086,2.73,1.181,3.515,0.181c0.792-1.01,0.374-2.285-1.009-3.371
			c-1.384-1.086-2.723-1.19-3.515-0.181C17.43,27.715,17.839,29,19.223,30.086z"/>
		<polygon fill="#9FB1BF" points="83.585,21.611 80.772,23.225 82.248,24.561 		"/>
		<path fill="#9FB1BF" d="M89.991,30.026c0.667-0.479,0.731-1.158,0.178-1.929l-0.413-0.574l-2.095,1.507l0.397,0.553
			C88.613,30.354,89.303,30.521,89.991,30.026z"/>
		<path fill="#9FB1BF" d="M67.023,4.713C39.884-2.56,11.986,13.547,4.712,40.688C1.109,54.133,3.248,67.76,9.619,78.977
			c1.182-0.273,2.364-0.527,3.548-0.779c0.517-0.108,1.032-0.217,1.548-0.321c0.971-0.198,1.941-0.39,2.912-0.572
			c0.597-0.112,1.193-0.22,1.789-0.326c0.775-0.141,1.553-0.277,2.328-0.406c0.486-0.082,0.973-0.165,1.46-0.241
			c1.128-0.182,2.258-0.355,3.386-0.515c1.045-0.15,2.088-0.29,3.133-0.422c0.061-0.007,0.121-0.015,0.182-0.021
			c7.466-0.939,14.906-1.437,22.347-1.499c1.165-0.01,2.331-0.008,3.497,0.004c6.135,0.062,12.271,0.421,18.422,1.087
			c0.999,0.106,1.998,0.226,2.998,0.349c-0.004,0.005-0.007,0.008-0.011,0.013c0.954,0.118,1.907,0.239,2.86,0.373
			c0.002-0.003,0.004-0.005,0.006-0.007c0.457,0.062,0.913,0.119,1.37,0.188c-0.003,0.003-0.005,0.005-0.008,0.01
			c4.108,0.598,8.22,1.332,12.326,2.192c0.138,0.03,0.274,0.058,0.411,0.087c1.316,0.277,2.633,0.568,3.948,0.875
			c2.103-3.699,3.774-7.72,4.926-12.021C110.27,39.883,94.164,11.986,67.023,4.713z M91.641,27.307
			c1.252,1.741,1.193,3.332-0.287,4.396c-1,0.72-2.037,0.707-3.016,0.114l-1.383,3.664l-1.658-1.669l1.412-3.402l-0.322-0.448
			l-2.471,1.776l-1.273-1.771l7.191-5.172L91.641,27.307z M86.083,20.824l-3.51,8.468l-1.889-1.226l0.808-1.867l-2.266-2.053
			l-1.672,0.965l-1.599-1.449l8.338-4.459L86.083,20.824z M78.213,14.817c1.837,1.135,2.458,2.649,1.445,4.29
			c-1.053,1.706-2.807,1.832-4.633,0.705l-0.481-0.297L73,22.021l-1.87-1.154l4.654-7.547L78.213,14.817z M68.096,17.839
			c0.586,0.229,1.091,0.138,1.282-0.354c0.184-0.466,0.028-0.774-0.959-1.671c-1.403-1.28-1.911-2.1-1.377-3.463
			c0.622-1.592,2.198-1.954,3.777-1.336c1.076,0.421,1.692,0.896,2.272,1.523l-0.983,1.602c-0.574-0.722-1.258-1.266-1.892-1.514
			c-0.622-0.242-1.024-0.097-1.174,0.285c-0.164,0.42-0.016,0.712,0.857,1.51c1.55,1.364,2.013,2.262,1.498,3.578
			c-0.702,1.795-2.326,2.068-3.965,1.428c-1.113-0.435-1.953-1.039-2.64-1.75l0.981-1.629C66.447,16.836,67.27,17.516,68.096,17.839
			z M57.971,7.926l2.101,0.362l2.371,5.439l0.844-4.885l2.013,0.348l-1.508,8.732L61.918,17.6l-2.541-5.821l-0.901,5.228
			l-2.013-0.348L57.971,7.926z M41.47,9.53c2.069-0.56,3.54,0.056,4.015,1.815c0.321,1.191-0.056,2.156-0.956,2.865l2.874,2.521
			l2.588-8.755l2.412-0.135l3.564,8.449l-2.199,0.483l-0.764-1.888l-3.054,0.172l-0.486,1.867l-2.155,0.122l0.062-0.207
			l-2.044,0.919l-2.688-2.521l-0.532,0.145l0.793,2.938l-2.108,0.568l-2.309-8.555L41.47,9.53z M22.557,54.65
			c-0.004-0.214-0.016-0.426-0.016-0.64c0-8.074,3.045-15.437,8.045-21.007l16.035,19.979L22.557,54.65z M37.652,57.379
			l-13.445,6.748c-0.862-2.539-1.402-5.225-1.588-8.01L37.652,57.379z M50.296,46.989L31.688,31.834
			c4.866-4.898,11.333-8.197,18.55-9.06L50.296,46.989z M36.035,11.233l1.102,1.532l-2.336,1.155l3.103,6.275l-1.979,0.978
			l-3.104-6.272l-2.244,1.11l-0.826-1.67L36.035,11.233z M50.232,19.816l0.003,1.195c-7.735,0.929-14.659,4.486-19.849,9.762
			l-0.922-0.752C34.878,24.484,42.128,20.756,50.232,19.816z M25.598,17.178l1.193,1.397l-2.375,2.028l1.177,1.379l1.759-1.503
			l1.429,1.197l-1.993,1.702l2.195,2.57l-1.662,1.419l-5.76-6.743L25.598,17.178z M16.868,25.643
			c1.585-2.02,4.062-2.181,6.213-0.492c2.15,1.689,2.594,4.158,1.001,6.188c-1.569,1.999-4.055,2.171-6.205,0.482
			C15.717,30.125,15.283,27.662,16.868,25.643z M7.046,51.086l1.771,0.023l-0.043,3.367l1.67,0.021l0.034-2.569l1.764-0.261
			l-0.037,2.853l1.875,0.024l0.046-3.482l1.786,0.023l-0.074,5.641l-8.864-0.114L7.046,51.086z M16.309,63.816l-1.902-0.016
			c0.335-0.979,0.502-2.034,0.359-2.908c-0.102-0.621-0.438-1.01-0.957-0.924c-0.495,0.08-0.682,0.371-0.951,1.676
			c-0.387,1.859-0.833,2.714-2.278,2.949c-1.687,0.273-2.802-0.898-3.074-2.572c-0.187-1.14-0.09-1.91,0.153-2.731l1.88,0.032
			c-0.328,0.86-0.447,1.727-0.339,2.398c0.107,0.659,0.439,0.931,0.845,0.865c0.442-0.073,0.62-0.35,0.86-1.508
			c0.386-2.027,0.923-2.883,2.316-3.109c1.902-0.31,2.967,0.948,3.249,2.685C16.662,61.833,16.57,62.863,16.309,63.816z
			 M17.252,44.564l-2.022,0.234l-0.645,2.988l1.671,0.966l-0.454,2.109L7.771,45.87l0.509-2.36l9.089-1.193L17.252,44.564z
			 M17.988,41.909l-8.15-3.479l0.862-2.02l6.401,2.732l1.069-2.504l1.864,0.475L17.988,41.909z M19.575,54.266
			c0-9.077,3.491-17.338,9.198-23.52l0.749,0.934c-5.44,5.956-8.761,13.883-8.761,22.586c0,0.17,0.009,0.339,0.012,0.509
			l-1.186,0.082C19.584,54.659,19.575,54.463,19.575,54.266z M21.449,65.51c-1.046-3.045-1.682-6.281-1.834-9.645l1.193,0.101
			c0.156,3.137,0.748,6.157,1.709,9.009L21.449,65.51z M26.247,74.705c-1.728-2.363-3.158-4.954-4.25-7.716l1.144-0.321
			c1.127,2.827,2.626,5.469,4.438,7.855C27.135,74.584,26.691,74.641,26.247,74.705z M29.888,74.216
			c-2.018-2.407-3.678-5.124-4.909-8.064l21.234-5.97l-5.275,8.16l0.065,0.62l0.612,0.068l10.045-6.358l0.53,10.057
			C44.768,72.787,37.341,73.281,29.888,74.216z M55.293,64.031l-0.456,0.358L54.406,64l-0.704-5.404l-3.976,2.484l-0.567-0.068
			l-0.04-0.573l2.241-3.251l-8.958,1.819l-0.522-0.321l0.271-0.547l4.686-1.774l-2.801-0.385l-0.385-0.444l0.38-0.445l6.679-1.021
			l-6.791-8.024l0.013-0.6l0.601-0.057l8.381,6.216l-0.449-14.479c-0.006-0.237,0.17-0.435,0.406-0.46
			c0.238-0.021,0.445,0.141,0.486,0.375l2.402,14.602l2.794-3.794l0.543-0.144l0.252,0.512l-0.653,2.791l4.302-2.969l0.604,0.076
			l-0.019,0.607l-5.026,5.317l6.188,2.301l0.294,0.493l-0.453,0.375h-5.092l7.551,6.822l0.052,0.61l-0.354,0.175l-0.256-0.083
			l-9.892-6.925L55.293,64.031z M63.634,37.323l-0.579,0.189l-6.067,8.854l-4.04-23.799c0.354-0.012,0.707-0.027,1.062-0.027
			c10.067,0,19.021,4.732,24.782,12.087l-0.317-0.046L63.313,44.621l0.648-6.783L63.634,37.323z M56.043,72.738l2.862-11.072
			l13.788,12.01C67.134,73.117,61.588,72.805,56.043,72.738z M78.402,73.879L65.758,59.42l12.074,0.004
			c0.246,0,0.454-0.176,0.496-0.415c0.039-0.237-0.094-0.471-0.334-0.548l-15.16-5.223l16.274-17.911l0.007-0.288
			c3.992,5.274,6.364,11.846,6.364,18.972C85.479,61.549,82.822,68.46,78.402,73.879z M82.176,74.855
			c-0.445-0.066-0.891-0.123-1.336-0.188c4.345-5.651,6.931-12.723,6.931-20.402c0-18.504-14.999-33.504-33.503-33.504
			c-0.543,0-1.082,0.016-1.619,0.041l-0.2-1.18c0.603-0.031,1.21-0.048,1.819-0.048c19.159,0,34.689,15.532,34.689,34.69
			C88.957,61.979,86.434,69.096,82.176,74.855z M86.891,36.152l8.026-3.753l2.34,5.001l-1.605,0.752l-1.425-3.048l-1.514,0.707
			l1.089,2.326l-1.474,1.001l-1.209-2.582l-1.697,0.794l1.474,3.153l-1.616,0.755L86.891,36.152z M89.604,42.037L98.21,39.9
			l0.514,2.07l-4.026,4.363l4.813-1.195l0.492,1.982l-8.605,2.137l-0.458-1.846l4.308-4.671l-5.148,1.278L89.604,42.037z
			 M100.168,60.729l-3.948,1.273l3.215,2.445l-0.397,2.303l-4.975-4.104l-3.214-0.556l0.374-2.164l3.188,0.553l5.838-2.108
			L100.168,60.729z M100.107,56.553l-1.987-0.247c0.395-0.538,0.685-1.165,0.659-1.937c-0.042-1.387-1.122-2.24-2.818-2.189
			c-1.721,0.054-2.72,1.023-2.678,2.411c0.023,0.719,0.312,1.353,0.744,1.995l-1.828,0.339c-0.433-0.693-0.728-1.508-0.76-2.548
			c-0.082-2.646,1.642-4.307,4.441-4.392c2.748-0.085,4.649,1.54,4.732,4.212C100.643,55.135,100.459,55.899,100.107,56.553z"/>
		<polygon fill="#9FB1BF" points="51.207,10.174 50.381,13.309 52.37,13.197 		"/>
		<path fill="#9FB1BF" d="M42.339,13.685c0.917-0.247,1.317-0.835,1.097-1.651c-0.214-0.795-0.828-1.096-1.745-0.848l-0.682,0.186
			l0.673,2.49L42.339,13.685z"/>
		<polygon fill="#9FB1BF" points="13.433,44.963 10.211,45.279 13.014,46.91 		"/>
	</g>
</g>
<g id="Level">
	<g>
		<g>
			<path fill="#596872" d="M19.4,88.059l-0.198-1.387l1.923-2.519c0.322-0.43,0.502-0.729,0.445-1.125
				c-0.048-0.337-0.346-0.506-0.791-0.442c-0.555,0.08-1.123,0.414-1.662,0.885l-0.462-1.601c0.552-0.453,1.228-0.813,2.218-0.955
				c1.416-0.203,2.39,0.385,2.564,1.603c0.138,0.961-0.271,1.636-0.975,2.505l-0.955,1.167l2.308-0.331l0.468,1.5L19.4,88.059z"/>
			<path fill="#596872" d="M27.45,87.085c-1.726,0.217-3.042-0.866-3.325-3.117c-0.284-2.251,0.721-3.628,2.446-3.846
				c1.736-0.219,3.032,0.867,3.315,3.119C30.171,85.493,29.186,86.866,27.45,87.085z M26.756,81.581
				c-0.655,0.083-0.84,0.852-0.678,2.141c0.163,1.289,0.533,1.988,1.188,1.906c0.665-0.084,0.83-0.851,0.668-2.14
				C27.771,82.198,27.42,81.497,26.756,81.581z"/>
			<path fill="#596872" d="M31.916,86.426l-0.533-4.895l-1.266,0.671l-0.387-1.518l1.672-1.007l1.791-0.195l0.732,6.726
				L31.916,86.426z"/>
			<path fill="#596872" d="M38.139,83.016c-0.46,0.361-0.926,0.553-1.464,0.6c-1.046,0.091-1.945-0.433-2.073-1.897
				c-0.137-1.564,0.909-2.589,2.363-2.716c1.585-0.138,2.747,0.754,2.909,2.618c0.216,2.471-1.404,3.918-3.722,4.521l-0.354-1.525
				C37.044,84.276,37.862,83.763,38.139,83.016z M38.117,81.853c-0.11-1.155-0.533-1.51-1.021-1.467
				c-0.448,0.039-0.735,0.426-0.683,1.034c0.053,0.607,0.345,0.843,0.853,0.799C37.535,82.195,37.806,82.081,38.117,81.853z"/>
			<path fill="#596872" d="M44.679,83.286l-0.319,0.017l0.11,2.066l-2.035,0.109l-0.369-6.886l2.386-0.127
				c1.776-0.095,2.905,0.615,2.99,2.202C47.528,82.293,46.415,83.193,44.679,83.286z M44.411,79.958l-0.25,0.013l0.099,1.846
				l0.229-0.012c0.679-0.036,1.032-0.355,0.997-1.004C45.455,80.202,45.089,79.922,44.411,79.958z"/>
			<path fill="#596872" d="M48.321,85.179l-0.18-6.896l2.049-0.053l0.134,5.157l1.949-0.051l0.325,1.732L48.321,85.179z"/>
			<path fill="#596872" d="M55.174,78.136l2.289,0.018l2.237,6.694l-2.071,0.304l-0.39-1.232l-2.169-0.017l-0.349,1.157
				l-1.979-0.015L55.174,78.136z M55.521,82.357l1.27,0.01l-0.603-2.184L55.521,82.357z"/>
			<path fill="#596872" d="M63.284,80.046l-0.198,5.197l-2.049-0.078l0.198-5.197l-1.849-0.07l0.064-1.699l5.548,0.212l0.215,1.709
				L63.284,80.046z"/>
			<path fill="#596872" d="M65.621,85.374l0.422-6.886l2.046,0.125l-0.422,6.885L65.621,85.374z"/>
			<path fill="#596872" d="M72.874,85.905l-1.949-3.777l-0.302,3.587l-1.894-0.159l0.579-6.875l2.013,0.169l1.775,3.461l0.277-3.288
				l1.893,0.159l-0.579,6.875L72.874,85.905z"/>
			<path fill="#596872" d="M78.573,86.585c-1.679-0.188-2.836-1.173-2.609-3.189l0.459-4.092l2.036,0.228l-0.462,4.123
				c-0.085,0.755,0.219,1.191,0.794,1.256c0.616,0.069,0.961-0.314,1.041-1.03l0.465-4.143l2.036,0.229l-0.459,4.093
				C81.65,86.056,80.232,86.771,78.573,86.585z"/>
			<path fill="#596872" d="M88.347,87.732l0.324-4.203l-1.493,4.043l-1.971-0.271l-0.359-4.296l-0.81,4.136l-1.742-0.239
				l1.422-6.767l2.624,0.36l0.398,4.454l1.582-4.182l2.556,0.351l-0.452,6.899L88.347,87.732z"/>
		</g>
	</g>
</g>
<g id="Layer_6">
</g>
</svg>
