<svg xmlns="http://www.w3.org/2000/svg" width="108" height="108" xml:space="preserve"><circle fill="#FFF" cx="54" cy="54" r="53"/><path fill="#9FB1BF" d="M54 1C24.729 1 1 24.729 1 54s23.729 53 53 53 53-23.729 53-53S83.271 1 54 1zM40.633 103.215C13.374 95.908-2.803 67.891 4.499 40.633 11.806 13.374 39.827-2.804 67.084 4.5c27.258 7.305 43.436 35.324 36.131 62.583s-35.32 43.436-62.582 36.132z"/><g fill="#9FB1BF"><path d="m67.756 97.484.964-.25-.865-1.367zM72.976 94.67c-.136-.388-.451-.516-.9-.359l-.332.113.422 1.221.319-.111c.449-.157.628-.464.491-.864zM49.926 97.234l-.397-.023-.178 2.716.397.026c.782.053 1.295-.328 1.358-1.277.061-.929-.431-1.391-1.18-1.442z"/><path d="M53.708 88.912c-10.651 0-21.23.965-32.276 2.932a49.768 49.768 0 0 0 19.501 10.245c16.465 4.411 33.211.055 45.289-10.204-11.134-1.996-21.785-2.973-32.514-2.973zM37.17 97.619c.422.125.748.129 1.092.062l.408-1.343-1.229-.372.142-.974 2.432.738-.878 2.888a4.152 4.152 0 0 1-2.31-.03c-1.922-.585-2.591-2.168-2.024-4.037.57-1.879 2.071-2.812 3.914-2.252.772.233 1.301.605 1.697 1.042l-.495 1.028c-.357-.463-.827-.876-1.494-1.077-1.185-.359-2.043.317-2.434 1.609-.393 1.299-.04 2.345 1.179 2.718zm7.541.861c-.232 1.213-1.127 1.646-2.18 1.444-1.066-.204-1.7-.921-1.466-2.138l.506-2.631 1.084.209-.505 2.623c-.108.562.081.938.566 1.031.492.095.799-.18.907-.734l.508-2.635 1.083.209-.503 2.622zm2.084 2.049-1.088-.143.568-4.393 1.087.143-.567 4.393zm2.955.28-1.552-.102.29-4.423 1.526.101c1.538.102 2.281 1.042 2.195 2.357-.086 1.315-.966 2.165-2.459 2.067zm3.593.154-.061-4.423 2.755-.038.013.885-1.679.023.013.834 1.283-.02.152.876-1.423.021.014.936 1.737-.023.013.891-2.817.038zm6.211-.207a5.174 5.174 0 0 1-2.243-.264l.102-1.354c.68.283 1.423.453 2.053.393.447-.041.738-.264.703-.638-.032-.354-.23-.503-1.147-.755-1.305-.363-1.892-.721-1.989-1.763-.115-1.214.77-1.952 1.975-2.065.822-.079 1.364.025 1.938.238l-.112 1.334c-.595-.273-1.206-.398-1.69-.352-.474.043-.683.266-.654.557.029.32.219.459 1.031.686 1.425.369 2.007.793 2.104 1.796.125 1.37-.822 2.068-2.071 2.187zm5.51-.863-1.085.199-.63-3.445-1.232.225-.168-.916 3.452-.629.319.886-1.285.235.629 3.445zm4.689-1.041L69.195 98l-1.479.381-.057.963-1.044.27.431-4.705 1.169-.302 2.568 3.792-1.03.453zm3.171-1.026-1.031.354-1.447-4.184 1.462-.506c1.013-.351 1.768-.096 2.065.766.201.582.047 1.079-.378 1.461l1.558 1.188-1.037.553-1.429-1.163-.261.093.498 1.438z"/></g><g fill="#9FB1BF"><path d="M77.382 18.686c.437-.708.237-1.321-.579-1.822l-.463-.286-1.344 2.179.43.266c.816.501 1.486.426 1.956-.337zM19.867 30.528c1.358 1.066 2.68 1.16 3.45.178.777-.992.367-2.243-.99-3.309-1.358-1.065-2.672-1.167-3.45-.178-.77.982-.368 2.244.99 3.309zM83.037 22.21l-2.762 1.585 1.45 1.311zM89.325 30.47c.653-.47.718-1.136.174-1.894l-.405-.563-2.056 1.479.39.542c.545.758 1.22.922 1.897.436z"/><path d="M66.783 5.626c-26.638-7.138-54.019 8.67-61.158 35.308-3.537 13.196-1.438 26.572 4.816 37.58a202.15 202.15 0 0 1 3.481-.763c.508-.106 1.014-.214 1.52-.315a161.892 161.892 0 0 1 4.614-.882c.76-.139 1.523-.271 2.285-.397.476-.08.954-.161 1.433-.237a190.48 190.48 0 0 1 6.398-.92c.06-.006.119-.015.179-.021a188.24 188.24 0 0 1 25.365-1.466 185.794 185.794 0 0 1 21.023 1.408l-.011.014c.936.115 1.871.234 2.807.365a.055.055 0 0 1 .006-.008c.449.062.898.117 1.346.187-.004.003-.006.003-.008.009 4.031.588 8.066 1.309 12.097 2.152l.405.085c1.291.271 2.584.557 3.873.859a49.989 49.989 0 0 0 4.835-11.798c7.138-26.641-8.669-54.022-35.306-61.16zm24.16 22.175c1.229 1.708 1.172 3.271-.281 4.315-.982.706-2 .693-2.961.112l-1.355 3.596-1.629-1.638 1.387-3.339-.316-.439-2.426 1.743-1.25-1.738 7.059-5.076 1.772 2.464zm-5.454-6.363-3.445 8.312-1.854-1.204.793-1.833-2.223-2.015-1.641.947-1.57-1.422 8.184-4.376 1.756 1.591zm-7.725-5.896c1.804 1.115 2.413 2.6 1.42 4.211-1.033 1.674-2.756 1.798-4.547.691l-.474-.291-1.515 2.459-1.835-1.132 4.566-7.408 2.385 1.47zm-9.93 2.967c.576.224 1.072.135 1.259-.348.181-.457.028-.759-.941-1.64-1.376-1.256-1.876-2.061-1.352-3.398.61-1.563 2.158-1.918 3.708-1.312 1.055.413 1.66.879 2.229 1.495l-.966 1.573c-.562-.708-1.234-1.243-1.856-1.486-.61-.238-1.005-.096-1.152.279-.16.412-.015.699.841 1.482 1.523 1.339 1.977 2.22 1.471 3.512-.688 1.762-2.283 2.029-3.891 1.401a7.096 7.096 0 0 1-2.591-1.718l.962-1.599c.662.774 1.468 1.442 2.279 1.759zm-9.938-9.73 2.062.355 2.328 5.338.828-4.795 1.976.342-1.48 8.57-1.839-.316-2.494-5.713-.883 5.131-1.977-.342 1.479-8.57zm-16.193 1.574c2.03-.549 3.473.055 3.939 1.782.315 1.168-.054 2.116-.938 2.812l2.82 2.474 2.541-8.593 2.367-.133 3.498 8.293-2.158.474-.75-1.853-2.997.168-.478 1.833-2.115.12.061-.203-2.007.901-2.638-2.474-.521.142.778 2.884-2.069.558-2.266-8.397 2.933-.788zM23.139 54.639c-.004-.211-.015-.419-.015-.629 0-7.924 2.988-15.15 7.896-20.618L46.758 53l-23.619 1.639zm14.816 2.677-13.196 6.623a30.868 30.868 0 0 1-1.559-7.861l14.755 1.238zm12.409-10.197L32.101 32.244a30.797 30.797 0 0 1 18.206-8.892l.057 23.767zM36.368 12.025l1.082 1.504-2.293 1.133 3.045 6.159-1.942.96-3.046-6.157-2.203 1.089-.811-1.638 6.168-3.05zm13.933 8.424.003 1.173a32.786 32.786 0 0 0-19.481 9.581l-.905-.737c5.314-5.435 12.43-9.095 20.383-10.017zM26.125 17.86l1.17 1.372-2.331 1.99 1.155 1.354 1.726-1.475 1.403 1.174-1.956 1.671 2.154 2.522-1.631 1.393-5.653-6.618 3.963-3.383zm-8.569 8.308c1.556-1.983 3.987-2.141 6.098-.483s2.546 4.081.982 6.074c-1.54 1.962-3.98 2.131-6.09.473-2.12-1.665-2.546-4.083-.99-6.064zM7.915 51.14l1.739.023-.042 3.305 1.639.021.033-2.521 1.732-.256-.036 2.8 1.84.024.045-3.417 1.753.022-.072 5.537-8.7-.113.069-5.425zm9.092 12.495-1.867-.017c.328-.962.492-1.997.352-2.853-.1-.609-.43-.993-.939-.909-.485.08-.669.365-.934 1.647-.379 1.823-.817 2.662-2.236 2.894-1.656.268-2.75-.882-3.017-2.524-.184-1.119-.089-1.875.15-2.681l1.845.032c-.322.842-.438 1.693-.332 2.354.105.646.43.912.829.849.433-.073.608-.345.843-1.48.379-1.99.907-2.831 2.273-3.053 1.867-.304 2.912.931 3.189 2.636a7.11 7.11 0 0 1-.156 3.105zm.926-18.896-1.985.23-.633 2.933 1.641.948-.446 2.07-7.881-4.899.499-2.316 8.921-1.17-.116 2.204zm.722-2.606-8-3.415.847-1.982 6.283 2.681 1.048-2.458 1.83.466-2.008 4.708zm1.558 12.128c0-8.909 3.426-17.017 9.027-23.084l.735.917a32.763 32.763 0 0 0-8.599 22.168c0 .167.009.333.012.5l-1.164.08c-.002-.195-.011-.387-.011-.581zm1.839 11.036a33.778 33.778 0 0 1-1.8-9.467l1.17.099a32.7 32.7 0 0 0 1.678 8.843l-1.048.525zm4.709 9.025a33.987 33.987 0 0 1-4.171-7.573l1.123-.315a32.88 32.88 0 0 0 4.356 7.709c-.437.06-.872.115-1.308.179zm3.573-.481a30.892 30.892 0 0 1-4.818-7.913l20.841-5.861-5.177 8.01.063.608.602.067 9.858-6.24.52 9.869c-7.284.058-14.574.543-21.889 1.46zm24.936-9.995-.448.352-.423-.383-.69-5.305-3.903 2.439-.556-.066-.04-.563 2.199-3.191-8.792 1.786-.513-.315.266-.537 4.599-1.74-2.749-.379-.378-.437.374-.436 6.555-1.002-6.665-7.875.013-.589.59-.056 8.226 6.101-.441-14.21a.44.44 0 0 1 .875-.083l2.357 14.332 2.743-3.724.533-.142.246.503-.641 2.739 4.224-2.914.593.075-.02.595-4.932 5.219 6.072 2.258.288.483-.443.369h-4.998l7.41 6.694.052.6-.348.17-.25-.08-9.711-6.797-1.274 6.109zm8.186-26.214-.569.186-5.953 8.69-3.966-23.359c.347-.012.694-.026 1.042-.026 9.88 0 18.67 4.644 24.323 11.862l-.312-.045-14.881 9.854.637-6.658-.321-.504zm-7.45 34.759 2.808-10.867 13.534 11.787a186.414 186.414 0 0 0-16.342-.92zm21.945 1.121L65.541 59.32l11.85.004a.492.492 0 0 0 .486-.407.477.477 0 0 0-.327-.538l-14.88-5.127 15.973-17.579.008-.282a30.746 30.746 0 0 1 6.246 18.62 30.756 30.756 0 0 1-6.946 19.501zm3.703.957c-.438-.064-.875-.121-1.311-.185a32.737 32.737 0 0 0 6.803-20.024c0-18.162-14.723-32.884-32.883-32.884-.533 0-1.062.016-1.589.041l-.197-1.158c.592-.03 1.188-.047 1.786-.047 18.804 0 34.047 15.244 34.047 34.047a33.875 33.875 0 0 1-6.656 20.21zm4.627-37.987 7.878-3.683 2.297 4.908-1.575.738-1.398-2.992-1.486.694 1.069 2.283-1.446.982-1.188-2.534-1.666.779 1.447 3.094-1.586.741-2.346-5.01zm2.662 5.777 8.448-2.098.505 2.032-3.952 4.282 4.724-1.172.483 1.945-8.446 2.098-.449-1.812 4.229-4.584-5.053 1.253-.489-1.944zm10.369 18.345-3.873 1.25 3.154 2.4-.39 2.26-4.884-4.027-3.152-.547.365-2.123 3.13.543 5.729-2.068-.079 2.312zm-.058-4.098-1.95-.242c.388-.529.671-1.145.646-1.901-.041-1.362-1.101-2.2-2.766-2.148-1.689.052-2.669 1.003-2.627 2.365.021.708.307 1.329.729 1.958l-1.793.333c-.426-.679-.715-1.479-.746-2.5-.08-2.597 1.61-4.227 4.358-4.311 2.697-.083 4.563 1.512 4.644 4.134.03.919-.149 1.669-.495 2.312z"/><path d="m51.259 10.985-.811 3.078 1.952-.11zM42.555 14.432c.9-.243 1.293-.82 1.077-1.62-.21-.78-.812-1.076-1.713-.833l-.669.182.662 2.444.643-.173zM14.184 45.13l-3.163.31 2.752 1.601z"/></g><g fill="#596872"><path d="m20.241 87.398-.192-1.359 1.891-2.472c.316-.423.494-.714.438-1.103-.047-.33-.338-.497-.775-.436-.545.078-1.103.404-1.633.867l-.45-1.573c.542-.444 1.207-.796 2.178-.933 1.39-.197 2.345.381 2.515 1.576.133.943-.268 1.604-.961 2.456l-.938 1.145 2.264-.321.458 1.473-4.795.68zM28.141 86.451c-1.696.209-2.984-.855-3.258-3.064-.275-2.211.713-3.559 2.406-3.77 1.703-.212 2.973.855 3.25 3.064.274 2.212-.694 3.559-2.398 3.77zm-.673-5.402c-.642.08-.825.834-.667 2.099.156 1.265.519 1.954 1.163 1.872.651-.082.814-.834.657-2.099-.16-1.266-.501-1.954-1.153-1.872zM32.522 85.805 32.007 81l-1.243.658-.378-1.492 1.644-.984 1.756-.188.709 6.601-1.973.21zM35.825 81.998c-.598-.311-.974-.761-1.03-1.387-.105-1.195.912-1.934 2.31-2.059 1.468-.131 2.44.502 2.53 1.51.054.606-.234 1.135-.796 1.59.799.324 1.194.781 1.261 1.533.104 1.176-.81 2.094-2.433 2.236-1.732.155-2.708-.625-2.797-1.633-.061-.684.297-1.318.955-1.79zm1.735-.785c.263-.259.406-.529.375-.88-.036-.401-.371-.628-.791-.591-.402.035-.663.324-.631.677.03.341.287.565 1.047.794zm.023 2.935c.421-.037.75-.343.71-.773-.038-.43-.321-.632-1.252-.913-.282.271-.45.601-.417.975.042.477.461.754.959.711zM44.652 82.752l-.313.018.111 2.027-1.998.11-.372-6.757 2.341-.129c1.743-.097 2.852.598 2.938 2.155.087 1.598-1.004 2.483-2.707 2.576zm-.269-3.266-.244.014.1 1.812.224-.013c.666-.035 1.012-.35.976-.986-.031-.588-.39-.864-1.056-.827zM48.229 84.609l-.186-6.769 2.011-.056.14 5.061 1.912-.052.321 1.698-4.198.118zM54.944 77.688l2.245.014 2.207 6.567-2.032.302-.386-1.211-2.128-.012-.341 1.137-1.942-.012 2.377-6.785zm.347 4.142 1.245.008-.595-2.143-.65 2.135zM62.914 79.559l-.194 5.101-2.012-.076.194-5.102-1.814-.068.062-1.668 5.446.209.211 1.676-1.893-.072zM65.208 84.781l.414-6.758 2.007.123-.414 6.756-2.007-.121zM72.35 85.303l-1.914-3.709-.297 3.521-1.858-.155.569-6.748 1.975.167 1.743 3.396.271-3.228 1.858.155-.567 6.748-1.78-.147zM77.918 85.961c-1.648-.184-2.783-1.15-2.561-3.13l.449-4.016 1.999.224-.454 4.047c-.083.742.215 1.17.78 1.232.604.067.943-.308 1.021-1.01l.457-4.067 1.997.226-.449 4.017c-.219 1.957-1.612 2.66-3.239 2.477zM87.534 87.083l.318-4.125-1.466 3.969-1.934-.267-.352-4.217-.795 4.061-1.71-.235 1.396-6.642 2.575.354.391 4.372 1.553-4.105 2.509.345-.444 6.772-2.041-.282z"/></g></svg>