<svg xmlns="http://www.w3.org/2000/svg" width="108" height="108" xml:space="preserve"><circle fill="#FFF" cx="54" cy="54" r="54"/><path fill="#9FB1BF" d="M54 0C24.176 0 0 24.177 0 54s24.176 54 54 54 54-24.177 54-54S83.824 0 54 0zM40.381 104.143C12.607 96.699-3.874 68.153 3.565 40.381 11.01 12.607 39.559-3.875 67.33 3.566c27.773 7.443 44.256 35.99 36.813 63.763-7.442 27.775-35.987 44.256-63.762 36.814z"/><g fill="#9FB1BF"><path d="m68.016 98.304.981-.253-.88-1.395zM73.333 95.438c-.137-.396-.459-.526-.916-.368l-.34.118.43 1.242.327-.113c.457-.159.64-.471.499-.879zM49.849 98.051l-.404-.026-.182 2.769.405.027c.797.052 1.32-.334 1.384-1.301.061-.947-.439-1.419-1.203-1.469z"/><path d="M53.702 89.57c-10.851 0-21.63.984-32.884 2.988a50.73 50.73 0 0 0 19.869 10.439c16.776 4.493 33.838.055 46.142-10.397-11.343-2.033-22.195-3.03-33.127-3.03zm-16.849 8.871c.43.13.761.133 1.113.064l.416-1.368-1.252-.38.145-.992 2.478.753-.895 2.942a4.225 4.225 0 0 1-2.354-.031c-1.958-.596-2.64-2.209-2.062-4.113.581-1.914 2.11-2.865 3.988-2.295.787.238 1.326.617 1.729 1.062l-.504 1.048c-.364-.472-.843-.892-1.522-1.097-1.207-.367-2.081.324-2.48 1.639-.403 1.324-.043 2.39 1.2 2.768zm7.683.879c-.237 1.234-1.149 1.678-2.222 1.472-1.086-.208-1.731-.938-1.493-2.179l.516-2.68 1.105.213-.515 2.673c-.11.571.083.955.577 1.05.501.097.814-.183.924-.748l.517-2.686 1.104.213-.513 2.672zm2.123 2.086-1.108-.144.579-4.475 1.108.144-.579 4.475zm3.011.286-1.581-.104.295-4.507 1.555.103c1.567.103 2.324 1.063 2.236 2.402-.087 1.34-.984 2.206-2.505 2.106zm3.66.158-.062-4.507 2.808-.039.013.901-1.711.023.012.85 1.307-.019.156.893-1.45.021.014.953 1.77-.024.013.907-2.87.041zm6.329-.211a5.3 5.3 0 0 1-2.286-.27l.104-1.379c.693.29 1.45.461 2.092.4.455-.043.752-.269.716-.649-.034-.362-.236-.513-1.17-.771-1.329-.369-1.927-.734-2.027-1.795-.118-1.235.785-1.987 2.012-2.104.837-.08 1.391.027 1.974.243l-.114 1.36c-.607-.279-1.229-.407-1.722-.36-.483.046-.696.272-.668.569.031.326.223.467 1.051.697 1.452.377 2.046.809 2.144 1.831.131 1.396-.833 2.107-2.106 2.228zm5.615-.881-1.107.203-.641-3.51-1.256.229-.17-.934 3.516-.641.325.904-1.308.239.641 3.51zm4.776-1.061-.568-.867-1.507.389-.058.98-1.064.275.439-4.794 1.19-.308 2.617 3.864-1.049.461zm3.231-1.045-1.05.362-1.475-4.264 1.489-.515c1.032-.357 1.801-.097 2.104.781.205.593.048 1.098-.385 1.488l1.587 1.209-1.057.565-1.454-1.185-.266.092.507 1.467z"/></g><g fill="#9FB1BF"><path d="M77.823 18.02c.444-.721.241-1.346-.591-1.857l-.47-.291-1.37 2.22.438.271c.832.511 1.514.434 1.993-.343zM19.223 30.086c1.384 1.086 2.73 1.181 3.515.181.792-1.01.374-2.285-1.009-3.371-1.384-1.086-2.723-1.19-3.515-.181-.784 1-.375 2.285 1.009 3.371zM83.585 21.611l-2.813 1.614 1.476 1.336zM89.991 30.026c.667-.479.731-1.158.178-1.929l-.413-.574-2.095 1.507.397.553c.555.771 1.245.938 1.933.443z"/><path d="M67.023 4.713C39.884-2.56 11.986 13.547 4.712 40.688 1.109 54.133 3.248 67.76 9.619 78.977c1.182-.273 2.364-.527 3.548-.779.517-.108 1.032-.217 1.548-.321a186.987 186.987 0 0 1 4.701-.898c.775-.141 1.553-.277 2.328-.406.486-.082.973-.165 1.46-.241a186.744 186.744 0 0 1 6.519-.937c.061-.007.121-.015.182-.021a191.62 191.62 0 0 1 25.844-1.495 188.676 188.676 0 0 1 21.42 1.436l-.011.013c.954.118 1.907.239 2.86.373a.043.043 0 0 1 .006-.007c.457.062.913.119 1.37.188l-.008.01a202.31 202.31 0 0 1 12.326 2.192l.411.087c1.316.277 2.633.568 3.948.875a50.963 50.963 0 0 0 4.926-12.021c7.273-27.142-8.833-55.039-35.974-62.312zm24.618 22.594c1.252 1.741 1.193 3.332-.287 4.396-1 .72-2.037.707-3.016.114l-1.383 3.664-1.658-1.669 1.412-3.402-.322-.448-2.471 1.776-1.273-1.771 7.191-5.172 1.807 2.512zm-5.558-6.483-3.51 8.468-1.889-1.226.808-1.867-2.266-2.053-1.672.965-1.599-1.449 8.338-4.459 1.79 1.621zm-7.87-6.007c1.837 1.135 2.458 2.649 1.445 4.29-1.053 1.706-2.807 1.832-4.633.705l-.481-.297L73 22.021l-1.87-1.154 4.654-7.547 2.429 1.497zm-10.117 3.022c.586.229 1.091.138 1.282-.354.184-.466.028-.774-.959-1.671-1.403-1.28-1.911-2.1-1.377-3.463.622-1.592 2.198-1.954 3.777-1.336 1.076.421 1.692.896 2.272 1.523l-.983 1.602c-.574-.722-1.258-1.266-1.892-1.514-.622-.242-1.024-.097-1.174.285-.164.42-.016.712.857 1.51 1.55 1.364 2.013 2.262 1.498 3.578-.702 1.795-2.326 2.068-3.965 1.428a7.256 7.256 0 0 1-2.64-1.75l.981-1.629c.674.788 1.497 1.468 2.323 1.791zM57.971 7.926l2.101.362 2.371 5.439.844-4.885 2.013.348-1.508 8.732-1.874-.322-2.541-5.821-.901 5.228-2.013-.348 1.508-8.733zM41.47 9.53c2.069-.56 3.54.056 4.015 1.815.321 1.191-.056 2.156-.956 2.865l2.874 2.521 2.588-8.755 2.412-.135 3.564 8.449-2.199.483-.764-1.888-3.054.172-.486 1.867-2.155.122.062-.207-2.044.919-2.688-2.521-.532.145.793 2.938-2.108.568-2.309-8.555 2.987-.803zM22.557 54.65c-.004-.214-.016-.426-.016-.64a31.344 31.344 0 0 1 8.045-21.007l16.035 19.979-24.064 1.668zm15.095 2.729-13.445 6.748a31.395 31.395 0 0 1-1.588-8.01l15.033 1.262zm12.644-10.39L31.688 31.834a31.371 31.371 0 0 1 18.55-9.06l.058 24.215zM36.035 11.233l1.102 1.532-2.336 1.155 3.103 6.275-1.979.978-3.104-6.272-2.244 1.11-.826-1.67 6.284-3.108zm14.197 8.583.003 1.195a33.4 33.4 0 0 0-19.849 9.762l-.922-.752c5.414-5.537 12.664-9.265 20.768-10.205zm-24.634-2.638 1.193 1.397-2.375 2.028 1.177 1.379 1.759-1.503 1.429 1.197-1.993 1.702 2.195 2.57-1.662 1.419-5.76-6.743 4.037-3.446zm-8.73 8.465c1.585-2.02 4.062-2.181 6.213-.492 2.15 1.689 2.594 4.158 1.001 6.188-1.569 1.999-4.055 2.171-6.205.482-2.16-1.696-2.594-4.159-1.009-6.178zM7.046 51.086l1.771.023-.043 3.367 1.67.021.034-2.569 1.764-.261-.037 2.853 1.875.024.046-3.482 1.786.023-.074 5.641-8.864-.114.072-5.526zm9.263 12.73-1.902-.016c.335-.979.502-2.034.359-2.908-.102-.621-.438-1.01-.957-.924-.495.08-.682.371-.951 1.676-.387 1.859-.833 2.714-2.278 2.949-1.687.273-2.802-.898-3.074-2.572-.187-1.14-.09-1.91.153-2.731l1.88.032c-.328.86-.447 1.727-.339 2.398.107.659.439.931.845.865.442-.073.62-.35.86-1.508.386-2.027.923-2.883 2.316-3.109 1.902-.31 2.967.948 3.249 2.685.192 1.18.1 2.21-.161 3.163zm.943-19.252-2.022.234-.645 2.988 1.671.966-.454 2.109-8.031-4.991.509-2.36 9.089-1.193-.117 2.247zm.736-2.655-8.15-3.479.862-2.02 6.401 2.732 1.069-2.504 1.864.475-2.046 4.796zm1.587 12.357c0-9.077 3.491-17.338 9.198-23.52l.749.934a33.381 33.381 0 0 0-8.761 22.586c0 .17.009.339.012.509l-1.186.082c-.003-.198-.012-.394-.012-.591zm1.874 11.244a34.43 34.43 0 0 1-1.834-9.645l1.193.101a33.362 33.362 0 0 0 1.709 9.009l-1.068.535zm4.798 9.195a34.648 34.648 0 0 1-4.25-7.716l1.144-.321a33.512 33.512 0 0 0 4.438 7.855c-.444.061-.888.118-1.332.182zm3.641-.489a31.47 31.47 0 0 1-4.909-8.064l21.234-5.97-5.275 8.16.065.62.612.068 10.045-6.358.53 10.057a190.92 190.92 0 0 0-22.302 1.487zm25.405-10.185-.456.358-.431-.389-.704-5.404-3.976 2.484-.567-.068-.04-.573 2.241-3.251-8.958 1.819-.522-.321.271-.547 4.686-1.774-2.801-.385-.385-.444.38-.445 6.679-1.021-6.791-8.024.013-.6.601-.057 8.381 6.216-.449-14.479a.45.45 0 0 1 .406-.46.45.45 0 0 1 .486.375l2.402 14.602 2.794-3.794.543-.144.252.512-.653 2.791 4.302-2.969.604.076-.019.607-5.026 5.317 6.188 2.301.294.493-.453.375h-5.092l7.551 6.822.052.61-.354.175-.256-.083-9.892-6.925-1.301 6.224zm8.341-26.708-.579.189-6.067 8.854-4.04-23.799c.354-.012.707-.027 1.062-.027 10.067 0 19.021 4.732 24.782 12.087l-.317-.046-15.162 10.04.648-6.783-.327-.515zm-7.591 35.415 2.862-11.072 13.788 12.01a189.11 189.11 0 0 0-16.65-.938zm22.359 1.141L65.758 59.42l12.074.004a.503.503 0 0 0 .496-.415.487.487 0 0 0-.334-.548l-15.16-5.223 16.274-17.911.007-.288a31.329 31.329 0 0 1 6.364 18.972 31.321 31.321 0 0 1-7.077 19.868zm3.774.976c-.445-.066-.891-.123-1.336-.188a33.352 33.352 0 0 0 6.931-20.402c0-18.504-14.999-33.504-33.503-33.504-.543 0-1.082.016-1.619.041l-.2-1.18a35.44 35.44 0 0 1 1.819-.048c19.159 0 34.689 15.532 34.689 34.69a34.508 34.508 0 0 1-6.781 20.591zm4.715-38.703 8.026-3.753 2.34 5.001-1.605.752-1.425-3.048-1.514.707 1.089 2.326-1.474 1.001-1.209-2.582-1.697.794 1.474 3.153-1.616.755-2.389-5.106zm2.713 5.885L98.21 39.9l.514 2.07-4.026 4.363 4.813-1.195.492 1.982-8.605 2.137-.458-1.846 4.308-4.671-5.148 1.278-.496-1.981zm10.564 18.692-3.948 1.273 3.215 2.445-.397 2.303-4.975-4.104-3.214-.556.374-2.164 3.188.553 5.838-2.108-.081 2.358zm-.061-4.176-1.987-.247c.395-.538.685-1.165.659-1.937-.042-1.387-1.122-2.24-2.818-2.189-1.721.054-2.72 1.023-2.678 2.411.023.719.312 1.353.744 1.995l-1.828.339a4.947 4.947 0 0 1-.76-2.548c-.082-2.646 1.642-4.307 4.441-4.392 2.748-.085 4.649 1.54 4.732 4.212.031.938-.153 1.702-.505 2.356z"/><path d="m51.207 10.174-.826 3.135 1.989-.112zM42.339 13.685c.917-.247 1.317-.835 1.097-1.651-.214-.795-.828-1.096-1.745-.848l-.682.186.673 2.49.657-.177zM13.433 44.963l-3.222.316 2.803 1.631z"/></g><g fill="#596872"><path d="m19.4 88.059-.198-1.387 1.923-2.519c.322-.43.502-.729.445-1.125-.048-.337-.346-.506-.791-.442-.555.08-1.123.414-1.662.885l-.462-1.601c.552-.453 1.228-.813 2.218-.955 1.416-.203 2.39.385 2.564 1.603.138.961-.271 1.636-.975 2.505l-.955 1.167 2.308-.331.468 1.5-4.883.7zM27.45 87.085c-1.726.217-3.042-.866-3.325-3.117-.284-2.251.721-3.628 2.446-3.846 1.736-.219 3.032.867 3.315 3.119.285 2.252-.7 3.625-2.436 3.844zm-.694-5.504c-.655.083-.84.852-.678 2.141.163 1.289.533 1.988 1.188 1.906.665-.084.83-.851.668-2.14-.163-1.29-.514-1.991-1.178-1.907zM31.916 86.426l-.533-4.895-1.266.671-.387-1.518 1.672-1.007 1.791-.195.732 6.726-2.009.218zM38.139 83.016c-.46.361-.926.553-1.464.6-1.046.091-1.945-.433-2.073-1.897-.137-1.564.909-2.589 2.363-2.716 1.585-.138 2.747.754 2.909 2.618.216 2.471-1.404 3.918-3.722 4.521l-.354-1.525c1.246-.341 2.064-.854 2.341-1.601zm-.022-1.163c-.11-1.155-.533-1.51-1.021-1.467-.448.039-.735.426-.683 1.034.053.607.345.843.853.799.269-.024.54-.138.851-.366zM44.679 83.286l-.319.017.11 2.066-2.035.109-.369-6.886 2.386-.127c1.776-.095 2.905.615 2.99 2.202.086 1.626-1.027 2.526-2.763 2.619zm-.268-3.328-.25.013.099 1.846.229-.012c.679-.036 1.032-.355.997-1.004-.031-.599-.397-.879-1.075-.843zM48.321 85.179l-.18-6.896 2.049-.053.134 5.157 1.949-.051.325 1.732-4.277.111zM55.174 78.136l2.289.018 2.237 6.694-2.071.304-.39-1.232-2.169-.017-.349 1.157-1.979-.015 2.432-6.909zm.347 4.221 1.27.01-.603-2.184-.667 2.174zM63.284 80.046l-.198 5.197-2.049-.078.198-5.197-1.849-.07.064-1.699 5.548.212.215 1.709-1.929-.074zM65.621 85.374l.422-6.886 2.046.125-.422 6.885-2.046-.124zM72.874 85.905l-1.949-3.777-.302 3.587-1.894-.159.579-6.875 2.013.169 1.775 3.461.277-3.288 1.893.159-.579 6.875-1.813-.152zM78.573 86.585c-1.679-.188-2.836-1.173-2.609-3.189l.459-4.092 2.036.228-.462 4.123c-.085.755.219 1.191.794 1.256.616.069.961-.314 1.041-1.03l.465-4.143 2.036.229-.459 4.093c-.224 1.996-1.642 2.711-3.301 2.525zM88.347 87.732l.324-4.203-1.493 4.043-1.971-.271-.359-4.296-.81 4.136-1.742-.239 1.422-6.767 2.624.36.398 4.454 1.582-4.182 2.556.351-.452 6.899-2.079-.285z"/></g></svg>