<svg xmlns="http://www.w3.org/2000/svg" width="108" height="108" xml:space="preserve"><circle fill="#FFF" cx="54" cy="54" r="54"/><g fill="#9FB1BF"><path d="M20.818 92.559a50.73 50.73 0 0 0 19.869 10.439c16.776 4.493 33.838.055 46.142-10.397-11.343-2.033-22.195-3.03-33.127-3.03-10.85-.001-21.63.984-32.884 2.988z"/><path d="M54 0C24.176 0 0 24.177 0 54s24.176 54 54 54 54-24.177 54-54S83.824 0 54 0zM40.381 104.143C12.607 96.699-3.874 68.153 3.565 40.381 11.01 12.607 39.559-3.875 67.33 3.566c27.773 7.443 44.256 35.99 36.813 63.763-7.442 27.775-35.987 44.256-63.762 36.814z"/><path d="M67.023 4.713C39.884-2.56 11.986 13.547 4.712 40.688 1.109 54.133 3.248 67.76 9.619 78.977c1.182-.273 2.364-.527 3.548-.779.517-.108 1.032-.217 1.548-.321a186.987 186.987 0 0 1 4.701-.898c.775-.141 1.553-.277 2.328-.406.486-.082.973-.165 1.46-.241a186.744 186.744 0 0 1 6.519-.937c.061-.007.121-.015.182-.021a191.62 191.62 0 0 1 25.844-1.495 188.676 188.676 0 0 1 21.42 1.436l-.011.013c.954.118 1.907.239 2.86.373a.043.043 0 0 1 .006-.007c.457.062.913.119 1.37.188l-.008.01a202.31 202.31 0 0 1 12.326 2.192l.411.087c1.316.277 2.633.568 3.948.875a50.963 50.963 0 0 0 4.926-12.021c7.273-27.142-8.833-55.039-35.974-62.312zM50.296 46.989 31.688 31.834a31.371 31.371 0 0 1 18.55-9.06l.058 24.215zM22.557 54.65c-.004-.214-.016-.426-.016-.64a31.344 31.344 0 0 1 8.045-21.007l16.035 19.979-24.064 1.668zm15.095 2.729-13.445 6.748a31.395 31.395 0 0 1-1.588-8.01l15.033 1.262zm12.58-37.563.003 1.195a33.4 33.4 0 0 0-19.849 9.762l-.922-.752c5.414-5.537 12.664-9.265 20.768-10.205zm-30.657 34.45c0-9.077 3.491-17.338 9.198-23.52l.749.934a33.381 33.381 0 0 0-8.761 22.586c0 .17.009.339.012.509l-1.186.082c-.003-.198-.012-.394-.012-.591zm1.874 11.244a34.43 34.43 0 0 1-1.834-9.645l1.193.101a33.362 33.362 0 0 0 1.709 9.009l-1.068.535zm4.798 9.195a34.648 34.648 0 0 1-4.25-7.716l1.144-.321a33.512 33.512 0 0 0 4.438 7.855c-.444.061-.888.118-1.332.182zm3.641-.489a31.47 31.47 0 0 1-4.909-8.064l21.234-5.97-5.275 8.16.065.62.612.068 10.045-6.358.53 10.057a190.92 190.92 0 0 0-22.302 1.487zm25.405-10.185-.456.358-.431-.389-.704-5.404-3.976 2.484-.567-.068-.04-.573 2.241-3.251-8.958 1.819-.522-.321.271-.547 4.686-1.774-2.801-.385-.385-.444.38-.445 6.679-1.021-6.791-8.024.013-.6.601-.057 8.381 6.216-.449-14.479a.45.45 0 0 1 .406-.46.45.45 0 0 1 .486.375l2.402 14.602 2.794-3.794.543-.144.252.512-.653 2.791 4.302-2.969.604.076-.019.607-5.026 5.317 6.188 2.301.294.493-.453.375h-5.092l7.551 6.822.052.61-.354.175-.256-.083-9.892-6.925-1.301 6.224zm8.341-26.708-.579.189-6.067 8.854-4.04-23.799c.354-.012.707-.027 1.062-.027 10.067 0 19.021 4.732 24.782 12.087l-.317-.046-15.162 10.04.648-6.783-.327-.515zm-7.591 35.415 2.862-11.072 13.788 12.01a189.11 189.11 0 0 0-16.65-.938zm22.359 1.141L65.758 59.42l12.074.004a.503.503 0 0 0 .496-.415.487.487 0 0 0-.334-.548l-15.16-5.223 16.274-17.911.007-.288a31.329 31.329 0 0 1 6.364 18.972 31.321 31.321 0 0 1-7.077 19.868zm3.774.976c-.445-.066-.891-.123-1.336-.188a33.352 33.352 0 0 0 6.931-20.402c0-18.504-14.999-33.504-33.503-33.504-.543 0-1.082.016-1.619.041l-.2-1.18a35.44 35.44 0 0 1 1.819-.048c19.159 0 34.689 15.532 34.689 34.69a34.508 34.508 0 0 1-6.781 20.591z"/></g><g fill="#FFF"><path d="M36.504 99.43c-1.958-.596-2.64-2.209-2.062-4.113.581-1.914 2.11-2.865 3.988-2.295.787.238 1.326.617 1.729 1.062l-.504 1.048c-.364-.472-.843-.892-1.522-1.097-1.207-.367-2.081.324-2.48 1.639-.402 1.323-.042 2.39 1.2 2.768.43.13.761.133 1.113.064l.416-1.368-1.252-.38.145-.992 2.478.753-.895 2.942a4.225 4.225 0 0 1-2.354-.031zM42.314 100.792c-1.086-.208-1.731-.938-1.493-2.179l.516-2.68 1.105.213-.515 2.673c-.11.571.083.955.577 1.05.501.097.814-.183.924-.748l.517-2.686 1.104.213-.514 2.672c-.236 1.235-1.148 1.678-2.221 1.472zM45.551 101.263l.579-4.475 1.108.144-.579 4.475-1.108-.144zM49.67 101.692l-1.581-.104.295-4.507 1.555.103c1.567.103 2.324 1.063 2.236 2.402-.087 1.34-.984 2.206-2.505 2.106zm.179-3.641-.404-.026-.182 2.769.405.027c.797.052 1.32-.334 1.384-1.301.061-.947-.439-1.419-1.203-1.469zM53.33 101.85l-.062-4.507 2.808-.039.013.901-1.711.023.012.85 1.307-.019.156.893-1.45.021.014.953 1.77-.024.013.907-2.87.041zM59.659 101.639a5.3 5.3 0 0 1-2.286-.27l.104-1.379c.693.29 1.45.461 2.092.4.455-.043.752-.269.716-.649-.034-.362-.236-.513-1.17-.771-1.329-.369-1.927-.734-2.027-1.795-.118-1.235.785-1.987 2.012-2.104.837-.08 1.391.027 1.974.243l-.114 1.36c-.607-.279-1.229-.407-1.722-.36-.483.046-.696.272-.668.569.031.326.223.467 1.051.697 1.452.377 2.046.809 2.144 1.831.131 1.396-.833 2.107-2.106 2.228zM64.634 97.249l.641 3.509-1.107.203-.641-3.51-1.256.229-.17-.934 3.516-.641.325.904-1.308.24zM67.292 95.681l1.19-.308 2.617 3.864-1.05.46-.568-.867-1.507.389-.058.98-1.064.275.44-4.793zm.724 2.623.981-.253-.88-1.395-.101 1.648zM74.495 98.28l-1.454-1.185-.266.092.506 1.465-1.05.362-1.475-4.264 1.489-.515c1.032-.357 1.801-.097 2.104.781.205.593.048 1.098-.385 1.488l1.587 1.209-1.056.567zm-2.078-3.211-.34.118.43 1.242.327-.113c.457-.158.64-.471.499-.879-.137-.395-.459-.526-.916-.368z"/></g><g fill="#FFF"><path d="M16.47 60.653a7.262 7.262 0 0 1-.161 3.163l-1.902-.016c.335-.979.502-2.034.359-2.908-.102-.621-.438-1.01-.957-.924-.495.08-.682.371-.951 1.676-.387 1.859-.833 2.714-2.278 2.949-1.687.273-2.802-.898-3.074-2.572-.187-1.14-.09-1.91.153-2.731l1.88.032c-.328.86-.447 1.727-.339 2.398.107.659.439.931.845.865.442-.073.62-.35.86-1.508.386-2.027.923-2.883 2.316-3.109 1.902-.309 2.967.949 3.249 2.685zM15.838 56.727l-8.864-.114.072-5.526 1.771.023-.043 3.367 1.67.021.034-2.569 1.764-.261-.037 2.853 1.875.024.046-3.482 1.786.023-.074 5.641zM7.771 45.87l.509-2.36 9.089-1.193-.116 2.248-2.022.234-.645 2.988 1.671.966-.454 2.109-8.032-4.992zm5.243 1.04.419-1.947-3.222.316 2.803 1.631zM17.988 41.909l-8.15-3.479.862-2.02 6.401 2.732 1.069-2.504 1.864.475-2.046 4.796zM24.082 31.339c-1.569 1.999-4.055 2.171-6.205.482-2.16-1.696-2.594-4.159-1.009-6.179s4.062-2.181 6.213-.492c2.15 1.69 2.594 4.159 1.001 6.189zm-5.868-4.624c-.784 1-.375 2.285 1.009 3.371s2.73 1.181 3.515.181c.792-1.01.374-2.285-1.009-3.371-1.384-1.086-2.723-1.191-3.515-.181zM24.416 20.604l1.177 1.379 1.759-1.503 1.429 1.197-1.993 1.702 2.195 2.57-1.662 1.419-5.76-6.743 4.037-3.447 1.193 1.397-2.375 2.029zM34.801 13.921l3.103 6.275-1.979.978-3.104-6.272-2.244 1.11-.826-1.67 6.285-3.108 1.102 1.532-2.337 1.155zM45.326 17.76l-2.688-2.521-.532.145.793 2.938-2.108.568-2.309-8.555 2.988-.805c2.069-.56 3.54.056 4.015 1.815.321 1.191-.056 2.156-.956 2.865l2.945 2.583-2.148.967zm-3.636-6.574-.682.186.673 2.49.657-.177c.917-.247 1.317-.835 1.097-1.651-.213-.796-.828-1.096-1.745-.848z"/><path d="m49.99 7.977 2.412-.135 3.564 8.449-2.199.483-.764-1.888-3.054.172-.486 1.867-2.155.122 2.682-9.07zm.391 5.332 1.989-.111-1.163-3.023-.826 3.134zM61.918 17.6l-2.541-5.821-.901 5.228-2.013-.348 1.508-8.732 2.101.362 2.371 5.439.844-4.885 2.013.348-1.508 8.732-1.874-.323zM67.434 19.428a7.256 7.256 0 0 1-2.64-1.75l.981-1.629c.672.787 1.494 1.467 2.32 1.79.586.229 1.091.138 1.282-.354.184-.466.028-.774-.959-1.671-1.403-1.28-1.911-2.1-1.377-3.463.622-1.592 2.198-1.954 3.777-1.336 1.076.421 1.692.896 2.272 1.523l-.983 1.602c-.574-.722-1.258-1.266-1.892-1.514-.622-.242-1.024-.097-1.174.285-.164.42-.016.712.857 1.51 1.55 1.364 2.013 2.262 1.498 3.578-.7 1.796-2.324 2.069-3.962 1.429zM75.025 19.812l-.481-.297L73 22.021l-1.87-1.154 4.654-7.547 2.429 1.497c1.837 1.135 2.458 2.649 1.445 4.29-1.053 1.706-2.806 1.832-4.633.705zm2.207-3.65-.47-.291-1.37 2.22.438.271c.832.513 1.514.436 1.993-.342.445-.721.241-1.346-.591-1.858zM84.294 19.203l1.789 1.621-3.51 8.468-1.889-1.226.808-1.867-2.266-2.053-1.672.965-1.599-1.449 8.339-4.459zm-3.522 4.022 1.476 1.336 1.337-2.949-2.813 1.613zM85.297 33.812l1.412-3.402-.322-.448-2.471 1.776-1.273-1.771 7.191-5.172 1.807 2.512c1.252 1.741 1.193 3.332-.287 4.396-1 .72-2.037.707-3.016.114l-1.383 3.664-1.658-1.669zm4.872-5.714-.413-.574-2.095 1.507.397.553c.555.771 1.244.938 1.933.443.667-.479.732-1.159.178-1.929zM86.891 36.152l8.026-3.753 2.34 5.001-1.605.752-1.425-3.048-1.514.707 1.089 2.326-1.474 1.001-1.209-2.582-1.697.794 1.474 3.153-1.616.755-2.389-5.106zM90.939 47.412l4.308-4.671-5.148 1.278-.494-1.982L98.21 39.9l.514 2.07-4.026 4.363 4.813-1.195.492 1.982-8.605 2.137-.459-1.845zM91.439 54.377c-.082-2.646 1.642-4.307 4.441-4.392 2.748-.085 4.649 1.54 4.732 4.212.029.938-.154 1.702-.506 2.355l-1.987-.247c.395-.538.685-1.165.659-1.937-.042-1.387-1.122-2.24-2.818-2.189-1.721.054-2.72 1.023-2.678 2.411.023.719.312 1.353.744 1.995l-1.828.339a4.972 4.972 0 0 1-.759-2.547zM94.062 62.646l-3.214-.556.374-2.164 3.188.553 5.838-2.108-.081 2.358-3.948 1.273 3.215 2.445-.397 2.303-4.975-4.104z"/></g><g fill="#9FB1BF"><path d="m18.325 88.445-.171-1.461 2.088-2.594c.351-.442.547-.751.498-1.168-.041-.355-.349-.541-.818-.486-.585.068-1.19.403-1.77.884l-.441-1.694c.592-.461 1.312-.82 2.354-.941 1.493-.175 2.499.469 2.649 1.753.118 1.013-.329 1.71-1.092 2.604l-1.034 1.2 2.432-.285.45 1.588-5.145.6zM26.804 87.65c-1.818.176-3.166-1.003-3.395-3.375-.229-2.373.869-3.787 2.688-3.963 1.829-.176 3.156 1.004 3.385 3.377s-.849 3.786-2.678 3.961zm-.559-5.8c-.69.066-.908.868-.777 2.227s.498 2.104 1.188 2.038c.7-.067.897-.867.767-2.226-.132-1.36-.478-2.107-1.178-2.039zM31.528 87.093l-.405-5.157-1.351.665-.358-1.606 1.788-1.006 1.887-.148.557 7.086-2.118.166zM36.752 86.794l-2.001-.2 2.069-5.266-2.736.171-.358-1.703 5.104-.319.102 1.614-2.18 5.703zM44.068 84.189l-.336.012.076 2.173-2.143.075-.252-7.244 2.509-.088c1.868-.064 3.041.704 3.1 2.373.06 1.711-1.127 2.636-2.954 2.699zm-.216-3.502-.263.009.067 1.942.242-.009c.714-.024 1.091-.354 1.067-1.035-.022-.63-.4-.932-1.113-.907zM47.555 86.253l-.115-7.254 2.155-.034.086 5.425 2.051-.033.323 1.825-4.5.071z"/><path d="m54.433 78.893 2.408.01 2.377 7.034-2.178.327-.415-1.295-2.281-.01-.363 1.217-2.081-.008 2.533-7.275zm.38 4.437 1.335.006-.642-2.294-.693 2.288zM62.578 80.838l-.135 5.459-2.152-.054.136-5.459-1.942-.048.044-1.785 5.826.145.25 1.792-2.027-.05zM64.825 86.378l.295-7.243 2.151.087-.295 7.243-2.151-.087zM72.165 86.751l-2.144-3.915-.226 3.773-1.991-.119.432-7.232 2.117.127 1.953 3.588.206-3.46 1.992.119-.432 7.233-1.907-.114zM77.831 87.271c-1.769-.146-3.014-1.146-2.837-3.271l.358-4.312 2.146.179-.361 4.345c-.065.795.266 1.244.873 1.295.648.054.999-.359 1.062-1.113l.362-4.365 2.146.178-.358 4.312c-.175 2.103-1.643 2.898-3.391 2.752zM87.837 88.171l.228-4.423-1.459 4.286-2.077-.23-.493-4.503-.738 4.365-1.837-.203 1.312-7.145 2.766.307.538 4.666 1.549-4.434 2.693.299-.289 7.258-2.193-.243z"/></g><g opacity=".5"><path d="m18.325 88.445-.171-1.461 2.088-2.594c.351-.442.547-.751.498-1.168-.041-.355-.349-.541-.818-.486-.585.068-1.19.403-1.77.884l-.441-1.694c.592-.461 1.312-.82 2.354-.941 1.493-.175 2.499.469 2.649 1.753.118 1.013-.329 1.71-1.092 2.604l-1.034 1.2 2.432-.285.45 1.588-5.145.6zM26.804 87.65c-1.818.176-3.166-1.003-3.395-3.375-.229-2.373.869-3.787 2.688-3.963 1.829-.176 3.156 1.004 3.385 3.377s-.849 3.786-2.678 3.961zm-.559-5.8c-.69.066-.908.868-.777 2.227s.498 2.104 1.188 2.038c.7-.067.897-.867.767-2.226-.132-1.36-.478-2.107-1.178-2.039zM31.528 87.093l-.405-5.157-1.351.665-.358-1.606 1.788-1.006 1.887-.148.557 7.086-2.118.166zM36.752 86.794l-2.001-.2 2.069-5.266-2.736.171-.358-1.703 5.104-.319.102 1.614-2.18 5.703zM44.068 84.189l-.336.012.076 2.173-2.143.075-.252-7.244 2.509-.088c1.868-.064 3.041.704 3.1 2.373.06 1.711-1.127 2.636-2.954 2.699zm-.216-3.502-.263.009.067 1.942.242-.009c.714-.024 1.091-.354 1.067-1.035-.022-.63-.4-.932-1.113-.907zM47.555 86.253l-.115-7.254 2.155-.034.086 5.425 2.051-.033.323 1.825-4.5.071z"/><path d="m54.433 78.893 2.408.01 2.377 7.034-2.178.327-.415-1.295-2.281-.01-.363 1.217-2.081-.008 2.533-7.275zm.38 4.437 1.335.006-.642-2.294-.693 2.288zM62.578 80.838l-.135 5.459-2.152-.054.136-5.459-1.942-.048.044-1.785 5.826.145.25 1.792-2.027-.05zM64.825 86.378l.295-7.243 2.151.087-.295 7.243-2.151-.087zM72.165 86.751l-2.144-3.915-.226 3.773-1.991-.119.432-7.232 2.117.127 1.953 3.588.206-3.46 1.992.119-.432 7.233-1.907-.114zM77.831 87.271c-1.769-.146-3.014-1.146-2.837-3.271l.358-4.312 2.146.179-.361 4.345c-.065.795.266 1.244.873 1.295.648.054.999-.359 1.062-1.113l.362-4.365 2.146.178-.358 4.312c-.175 2.103-1.643 2.898-3.391 2.752zM87.837 88.171l.228-4.423-1.459 4.286-2.077-.23-.493-4.503-.738 4.365-1.837-.203 1.312-7.145 2.766.307.538 4.666 1.549-4.434 2.693.299-.289 7.258-2.193-.243z"/></g></svg>