<?xml version="1.0" encoding="utf-8"?>
<!-- Generator: Adobe Illustrator 24.3.0, SVG Export Plug-In . SVG Version: 6.00 Build 0)  -->
<svg version="1.1" id="type" xmlns="http://www.w3.org/2000/svg" xmlns:xlink="http://www.w3.org/1999/xlink" x="0px" y="0px"
	 viewBox="0 0 204 204" style="enable-background:new 0 0 204 204;" xml:space="preserve">
<style type="text/css">
	.st0{fill:#FFFFFF;}
	.st1{fill:#91B5C7;}
</style>
<circle class="st0" cx="102" cy="102" r="101.1"/>
<path class="st1" d="M102,1.8c55.3,0,100.2,44.8,100.2,100.2S157.3,202.2,102,202.2S1.8,157.3,1.8,102c0,0,0,0,0,0
	C1.9,46.7,46.7,1.9,102,1.8 M102,0C45.7,0,0,45.7,0,102s45.7,102,102,102s102-45.7,102-102S158.3,0,102,0z"/>
<path class="st1" d="M107.6,124.6l-8,32.1c-0.2,0.4-0.6,0.6-1.1,0.5c-0.3-0.1-0.6-0.5-0.5-0.8l-1.8-33l-16.7,10.2
	c-0.4,0.2-0.9,0.1-1.1-0.4c-0.2-0.3-0.1-0.7,0.1-0.9l8.1-12.7l-39.3,4.1c-0.4,0.1-0.8-0.2-0.9-0.6c-0.1-0.4,0.1-0.9,0.5-1l29.9-12.3
	l-28.1-4.6c-0.4-0.1-0.7-0.5-0.6-0.9c0.1-0.4,0.4-0.7,0.9-0.7l36.7-2.2L67,64.9c-0.2-0.4-0.1-0.8,0.2-1.1c0.3-0.3,0.8-0.2,1.1,0.1
	L98.2,93l7.8-50c0-0.5,0.4-0.8,0.9-0.8c0.5,0,0.8,0.4,0.8,0.9l1.7,50.2l10.3-11c0.3-0.3,0.8-0.4,1.2,0c0.2,0.2,0.3,0.5,0.2,0.8
	l-0.2,11.7l30.5-13.9c0.4-0.2,0.8,0,1,0.3c0.2,0.4,0.2,0.8-0.2,1.1l-30.8,24.6l21.5,11.8c0.4,0.2,0.5,0.6,0.4,1
	c-0.1,0.4-0.5,0.6-0.9,0.6l-22.3-0.6l23.1,34.3c28.5-22.6,33.2-64.1,10.6-92.5S89.6,28.3,61.1,50.9S27.9,115,50.6,143.4
	c21.2,26.7,59.3,32.8,87.8,14L107.6,124.6z"/>
<path d="M79,188.7l0.4-1.8l6.1-4.8c0.5-0.4,0.8-0.9,1-1.5c0.2-0.8-0.2-1.6-1-1.9c-0.1,0-0.1,0-0.2,0c-0.9-0.2-1.8,0.4-2,1.3
	c0,0.1,0,0.1,0,0.2l-2.3-0.5c0.3-2,2.2-3.4,4.3-3c0.2,0,0.4,0.1,0.5,0.1c2,0.2,3.4,2.1,3.1,4c0,0.1,0,0.2-0.1,0.3
	c-0.3,1.1-1,2.1-2,2.8l-4.3,3.4l5,1.1l-0.4,2L79,188.7z"/>
<path d="M99.5,190.7c-0.8,0.7-1.9,1.1-3,1c-1.1,0-2.2-0.5-2.9-1.3c-1.2-1.3-1.3-3.5-1.2-5.6s0.5-4.2,1.9-5.4
	c1.8-1.4,4.3-1.3,5.9,0.4c1.2,1.4,1.3,3.5,1.2,5.6S100.9,189.5,99.5,190.7z M97.2,180.5c-2.4-0.1-2.3,2.7-2.4,4.4s-0.5,4.5,1.9,4.6
	s2.3-2.7,2.4-4.4S99.5,180.7,97.2,180.5z"/>
<path d="M105.9,191.6l-0.2-1.8l4.4-6.3c0.4-0.5,0.5-1.1,0.5-1.7c0-0.8-0.7-1.5-1.5-1.5c-0.1,0-0.2,0-0.2,0c-0.9,0.1-1.6,0.9-1.6,1.8
	c0,0.1,0,0.1,0,0.2l-2.3,0.2c-0.3-2,1.1-3.9,3.2-4.2c0.2,0,0.4,0,0.6,0c2-0.3,3.8,1,4.2,2.9c0,0.1,0,0.2,0,0.3
	c0,1.2-0.4,2.3-1.1,3.2l-3.1,4.5l5.1-0.4l0.2,2.1L105.9,191.6z"/>
<path d="M122.1,189.3l-2.3-9.8l-2.3,2.6l-0.6-2.4l2.6-2.9l1.9-0.4l2.9,12.4L122.1,189.3z"/>
<path d="M45.4,153.6l-0.9,1.3c1.4-0.3,2.8,0.2,3.8,1.2c0.9,0.9,1.5,2.1,1.5,3.4c0,1.9-1,3.4-2.6,5c-1.5,1.5-3,2.6-5,2.6
	c-2.8-0.1-5-2.3-5.1-5.1c0-1,0.4-1.9,1-2.6l1.2,1.2c-0.3,0.4-0.6,0.9-0.6,1.4c0,1,0.4,1.9,1.1,2.5c0.6,0.6,1.5,1,2.4,1
	c1.5,0,2.8-1.2,3.8-2.2s2.2-2.3,2.2-3.9c0-0.9-0.4-1.7-1-2.3c-0.6-0.6-1.4-1-2.3-1c-1.2,0.1-2.3,0.6-3.1,1.6l2.5,2.5l-1.1,1.1
	l-3.5-3.5l5-5L45.4,153.6z"/>
<path d="M39.5,145.7c1.7,2.4,1.3,4.9-1.4,6.8l-6.8,4.7l-0.9-1.3l6.8-4.8c1.7-1.2,2.3-2.7,1-4.5s-2.9-1.8-4.6-0.6l-6.8,4.8l-0.9-1.3
	l6.8-4.7C35.3,142.9,37.8,143.3,39.5,145.7z"/>
<path d="M34.3,137.6l-11.6,5.9l-0.8-1.5l11.6-5.9L34.3,137.6z"/>
<path d="M27.3,124.3c1.1,0.6,2,1.6,2.4,2.8l1.5,4.3l-12.3,4.3l-1.5-4.3c-0.4-1.2-0.4-2.5,0.1-3.7c0.8-1.8,2.6-2.7,4.3-3.3
	S25.6,123.4,27.3,124.3z M18.9,128.4c-0.4,0.8-0.4,1.7-0.1,2.5l1,2.7l9.4-3.3l-1-2.7c-0.3-0.8-0.8-1.5-1.6-1.9
	c-1.3-0.6-2.9-0.2-4.2,0.3S19.6,127,18.9,128.4z"/>
<path d="M27.2,118.6l-12.9,2.1l-1.4-8.6l1.5-0.2l1.2,7l3.9-0.7l-1-6.1l1.5-0.2l1,6.1l4.4-0.7l-1.2-7l1.5-0.2L27.2,118.6z"/>
<path d="M24.4,98.4c1.7,2.1,1.8,5.2,0.2,7.4c-0.8,0.9-1.9,1.4-3.1,1.4v-1.7c0.8-0.1,1.5-0.4,2-1c0.6-0.7,0.8-1.6,0.8-2.5
	c0-0.9-0.2-1.7-0.8-2.4c-0.4-0.4-1-0.7-1.5-0.6c-1,0-1.9,0.7-2.1,2.2c-0.1,0.7-0.2,1.4-0.3,2.1c-0.3,2-1.3,3.5-3.4,3.5
	c-1,0-1.9-0.4-2.6-1.1c-1.7-1.9-1.8-4.8-0.1-6.8c0.7-0.8,1.7-1.3,2.8-1.3v1.7c-0.6,0-1.2,0.3-1.6,0.7c-1.2,1.3-1.1,3.3,0.1,4.6
	c0.4,0.3,0.9,0.5,1.4,0.5c1.2,0,1.7-1,1.8-2c0.1-0.7,0.2-1.5,0.3-2.2c0.3-2.2,1.6-3.6,3.6-3.7C22.8,97.3,23.7,97.7,24.4,98.4z"/>
<path d="M15,88.5l11.4,1.7l-0.2,1.6l-11.3-1.7l-0.6,3.8l-1.5-0.2l1.4-9.3l1.5,0.2L15,88.5z"/>
<path d="M29.9,76.2l-3.3,0.1L25,81.8l2.6,1.9l-0.5,1.6L16,77.1l0.5-1.8l13.8-0.7L29.9,76.2z M17.9,76.7l5.8,4.2l1.3-4.4L17.9,76.7z"
	/>
<path d="M35,64.9l-6-0.2l-1.6,3.2l4.9,2.4l-0.7,1.5l-11.6-5.8l2.3-4.6c0.5-1.1,1.4-2,2.5-2.5c0.9-0.3,2-0.2,2.8,0.3
	c0.9,0.4,1.5,1.1,1.9,2c0.2,0.6,0.2,1.2,0.1,1.8l6.3,0.2L35,64.9z M23.6,62L22,65.2l4.1,2l1.5-3.1c0.7-1.4,0.6-2.6-0.9-3.4
	S24.2,60.7,23.6,62z"/>
<path d="M43.3,43.7c0,1.2-0.5,2.3-1.3,3.1l-2.2,2.4l3.8,3.4l-1.1,1.2l-9.7-8.7l3.2-3.6c0.7-1,1.9-1.6,3.1-1.7
	C41.2,39.9,43,41.6,43.3,43.7L43.3,43.7z M37.1,42.5L35,44.9l3.7,3.3l2.1-2.4c1.2-1.3,1.2-2.5-0.1-3.7S38.2,41.3,37.1,42.5z"/>
<path d="M50.8,45.1l-8.3-10l1.2-1l7.3,8.8l4.8-4l1,1.2L50.8,45.1z"/>
<path d="M66.9,33.9l-2.5-2.1l-4.9,2.8l0.6,3.2l-1.4,0.8l-2.6-13.6l1.7-1L68.3,33L66.9,33.9z M57.8,26l1.4,7l4-2.3L57.8,26z"/>
<path d="M69.4,20.2l4.4,10.6l-1.5,0.6l-4.4-10.6l-3.6,1.5l-0.6-1.4l8.7-3.6l0.6,1.4L69.4,20.2z"/>
<path d="M80.6,28.5L77.1,16l1.6-0.4l3.5,12.5L80.6,28.5z"/>
<path d="M94.9,25.8l-7.7-9.5l1.4,10.4L87,26.8l-1.7-12.9l1.8-0.2l7.7,9.6l-1.4-10.4l1.6-0.2l1.7,12.9L94.9,25.8z"/>
<path d="M105.7,25.8c-2.9-0.1-4.7-2-4.5-5.2l0.4-8.2l1.6,0.1l-0.4,8.3c-0.1,2.1,0.7,3.5,3,3.6s3.2-1.2,3.3-3.3l0.4-8.3l1.6,0.1
	l-0.4,8.2C110.5,24.3,108.6,26,105.7,25.8z"/>
<path d="M125.2,28.9l2.7-10.6l-6.5,9.5l-1.2-0.3l-1.3-11.5l-2.7,10.7l-1.5-0.4l3.2-12.6l2.3,0.6l1.2,11.2l6.4-9.3l2.2,0.6l-3.1,12.6
	L125.2,28.9z"/>
<path d="M145.4,25.4l-5.6,10.1l-1.4-0.8l5.6-10.1l-3.4-1.9l0.7-1.3l8.2,4.6l-0.7,1.3L145.4,25.4z"/>
<path d="M151.6,43.7l1.4-5.8l-2.8-2.2l-3.3,4.3l-1.3-1l8-10.3l4,3.1c1,0.7,1.7,1.7,1.9,2.9c0.1,1-0.2,2-0.8,2.7
	c-0.6,0.8-1.4,1.3-2.4,1.4c-0.6,0.1-1.2,0-1.8-0.2l-1.5,6.1L151.6,43.7z M156.6,33l-2.7-2.1l-2.8,3.6l2.7,2.1
	c1.2,0.9,2.5,1.1,3.5-0.2S157.9,34,156.6,33L156.6,33z"/>
<path d="M161.5,53.7l1.6-2.8l-3.8-4.2l-3,1.3l-1.1-1.2l12.8-5.3l1.3,1.4L162.6,55L161.5,53.7z M167.3,43.2l-6.6,2.8l3.1,3.4
	L167.3,43.2z"/>
<path d="M168.6,64.3l5.5-11l-8.9,5.5l-0.8-1.3l11.1-6.9l1,1.6l-5.6,11l8.9-5.5l0.8,1.3l-11.1,6.9L168.6,64.3z"/>
<path d="M175.6,77c-1.2-0.6-2.1-1.7-2.6-3c-0.6-1.2-0.6-2.6-0.2-3.9c0.4-1.1,1.3-2,2.4-2.4l0.6,1.6c-0.7,0.3-1.3,0.9-1.6,1.6
	c-0.3,0.9-0.2,1.8,0.2,2.6c0.3,0.8,0.8,1.6,1.6,2c0.5,0.3,1.1,0.3,1.7,0.1c0.9-0.4,1.5-1.3,1.1-2.8c-0.1-0.7-0.3-1.3-0.5-2
	c-0.4-1.9,0-3.7,1.9-4.5c0.9-0.3,1.9-0.3,2.8,0.1c1.1,0.5,2,1.5,2.4,2.7c0.5,1.1,0.5,2.4,0.1,3.6c-0.4,1-1.2,1.8-2.1,2.2l-0.6-1.6
	c0.5-0.2,1-0.7,1.3-1.2c0.6-1.7-0.1-3.5-1.7-4.3c-0.5-0.2-1-0.2-1.5,0c-0.9,0.4-1.4,1.5-1,2.5c0.2,0.7,0.3,1.4,0.5,2.1
	c0.5,2.1-0.2,4-2.1,4.7C177.4,77.4,176.4,77.4,175.6,77z"/>
<path d="M183.7,88.8c-0.9-0.7-1.5-1.8-1.7-2.9l-0.7-3.1l-4.9,1l-0.3-1.6l12.7-2.7l1,4.7c0.3,1.2,0.2,2.4-0.5,3.5
	c-0.6,0.8-1.5,1.4-2.5,1.5C185.8,89.5,184.6,89.4,183.7,88.8z M188.3,84.5l-0.7-3.1l-4.9,1l0.7,3.1c0.4,1.7,1.3,2.4,3,2
	S188.6,86.1,188.3,84.5z"/>
<path d="M178.6,101.6l3-1.2l-0.3-5.6l-3.1-0.9l-0.1-1.7l13.3,3.8l0.1,1.9l-12.7,5.3L178.6,101.6z M189.8,97l-6.9-1.9l0.2,4.6
	L189.8,97z"/>
<path d="M177.6,114.4l5.7-1.8l0.4-3.6l-5.4-0.6l0.2-1.6l12.9,1.5l-0.6,5.1c-0.1,1.2-0.6,2.4-1.5,3.2c-0.8,0.6-1.8,0.8-2.8,0.7
	c-1-0.1-1.8-0.5-2.4-1.3c-0.4-0.5-0.6-1-0.7-1.7l-6,1.9L177.6,114.4z M189.3,113.2l0.4-3.4l-4.5-0.5l-0.4,3.4
	c-0.2,1.5,0.3,2.7,2,2.9S189.1,114.7,189.3,113.2L189.3,113.2z"/>
<path d="M176.5,119.9l12.5,3.7l-2.4,8.3l-1.4-0.4l2-6.8l-3.8-1.1l-1.8,6l-1.5-0.4l1.8-6l-4.3-1.3l-2,6.8l-1.4-0.4L176.5,119.9z"/>
<path d="M169,139l12.2-1l-9.4-4.7l0.7-1.4l11.6,5.9l-0.8,1.6l-12.2,1l9.4,4.7l-0.7,1.4l-11.6-5.9L169,139z"/>
<path d="M161.9,151.6c-0.3-2.7,1.5-5.2,4.2-5.6c2-0.3,3.6,0.7,5.3,1.9s3.1,2.6,3.3,4.5c0.2,1.3-0.2,2.6-1,3.7
	c-0.7,1.1-1.9,1.8-3.2,2c-1.1,0.2-2.2-0.1-3.1-0.8l1-1.4c0.6,0.4,1.2,0.6,1.9,0.5c0.9-0.1,1.7-0.6,2.2-1.3c0.5-0.7,0.8-1.6,0.6-2.5
	c-0.2-1.5-1.6-2.6-2.7-3.4s-2.5-1.8-4-1.6c-0.9,0.1-1.7,0.6-2.2,1.3c-0.5,0.7-0.8,1.6-0.6,2.5c0.2,0.7,0.5,1.3,1.1,1.7l-1,1.4
	C162.6,153.8,162,152.7,161.9,151.6z"/>
<path d="M158.3,161.3l-3.7-3.8l1.2-1.1l3.7,3.8l8.5,2.5l-1.3,1.3l-6.8-2.1l1.9,6.8l-1.2,1.2L158.3,161.3z"/>
</svg>
