<svg xmlns:dc="http://purl.org/dc/elements/1.1/" xmlns:cc="http://creativecommons.org/ns#" xmlns:rdf="http://www.w3.org/1999/02/22-rdf-syntax-ns#" xmlns:svg="http://www.w3.org/2000/svg" xmlns="http://www.w3.org/2000/svg" xmlns:sodipodi="http://sodipodi.sourceforge.net/DTD/sodipodi-0.dtd" xmlns:inkscape="http://www.inkscape.org/namespaces/inkscape" width="657.8749389648438" height="698.6243896484375" version="1.1" inkscape:version="0.48.0 r9654" sodipodi:docname="wikipedia-10.svg"><rect id="backgroundrect" width="100%" height="100%" x="0" y="0" fill="none" stroke="none"/>
  <defs id="defs4"/>
  <sodipodi:namedview id="base" pagecolor="#ffffff" bordercolor="#666666" borderopacity="1.0" inkscape:pageopacity="0.0" inkscape:pageshadow="2" inkscape:zoom="0.49497475" inkscape:cx="325.05673" inkscape:cy="299.18094" inkscape:document-units="px" inkscape:current-layer="layer1" showgrid="false" inkscape:window-width="1214" inkscape:window-height="703" inkscape:window-x="0" inkscape:window-y="0" inkscape:window-maximized="1" fit-margin-top="0" fit-margin-left="0" fit-margin-right="0" fit-margin-bottom="0"/>
  <metadata id="metadata7">
    <rdf:RDF>
      <cc:Work rdf:about="">
        <dc:format>image/svg+xml</dc:format>
        <dc:type rdf:resource="http://purl.org/dc/dcmitype/StillImage"/>
        <dc:title/>
      </cc:Work>
    </rdf:RDF>
  </metadata>
  
<g class="currentLayer"><title>Layer 1</title><g inkscape:label="Layer 1" inkscape:groupmode="layer" id="layer1" class="" fill="#009900" fill-opacity="1">
    <path style="" d="m334.9111061621094,694.762154296875 c-15.27222,-7.56008 -33.96039,-15.35629 -44.3594,-18.5056 c-5.7367,-1.73734 -11.85556,-3.92155 -13.59744,-4.85378 c-3.91069,-2.09293 -38.06004,-2.46056 -67.25459,-0.7240000000000001 c-23.07493,1.37255 -30.54688,0.52561 -54.4601,-6.17303 c-14.01203,-3.92509 -22.23876,-7.12836 -23.83639,-9.28124 c-0.37457000000000007,-0.50475 -4.66512,-2.35604 -9.53455,-4.11397 c-4.86944,-1.75791 -9.77292,-3.9446700000000003 -10.89664,-4.85947 c-1.12372,-0.9147900000000001 -4.49486,-2.93499 -7.49144,-4.48931 c-2.99657,-1.5543200000000001 -4.68215,-2.85313 -3.7457200000000004,-2.8862300000000003 c0.93643,-0.03310000000000001 1.7026000000000001,-0.7093200000000001 1.7026000000000001,-1.50268 c0,-0.79335 -0.6184200000000001,-1.06025 -1.37427,-0.59311 c-2.11698,1.30837 -6.7982,-0.6358600000000001 -6.7982,-2.82348 c0,-1.0732300000000001 -0.45971,-1.82623 -1.02156,-1.67333 c-1.4390100000000001,0.39161000000000007 -16.12294,-8.17456 -18.10359,-10.56112 c-0.90178,-1.08658 -2.22391,-1.9756 -2.9380800000000002,-1.9756 c-1.5021,0 -26.737353,-19.13376 -30.021694,-22.76292 c-1.21228,-1.33955 -2.30912,-3.04849 -2.437409,-3.79763 c-0.12831,-0.7491400000000001 -0.7849200000000001,-1.20885 -1.45914,-1.02156 c-0.6742300000000001,0.18729000000000004 -1.22588,-0.1713 -1.22588,-0.79683 c0,-1.23041 -21.35746,-17.55045 -31.19535,-23.83754 c-3.32431,-2.12446 -5.4478100000000005,-4.26974 -4.71892,-4.76728 c2.7200100000000003,-1.8566900000000002 8.67268,-10.77902 8.67268,-12.9993 c0,-1.26665 0.98208,-3.8018400000000003 2.18238,-5.63374 c2.35133,-3.58858 2.19878,-7.83941 -0.8685400000000001,-24.20312 l-1.73231,-9.24163 l3.7457200000000004,-3.9097 c3.46483,-3.61649 3.71035,-4.60598 3.27392,-13.19479 l-0.47181000000000006,-9.28509 l4.47555,-2.13836 c4.36939,-2.08763 8.46421,-7.81275 8.46421,-11.83414 c0,-1.10419 -4.50075,-8.23613 -10.00167,-15.84873 c-5.50091,-7.61261 -10.43157,-14.59271 -10.95702,-15.51134 c-0.97071,-1.6970900000000002 13.07557,-27.44168 15.98407,-29.29622 c0.8631800000000001,-0.55039 1.13182,-1.01009 0.5969700000000001,-1.02156 c-1.0903100000000001,-0.023400000000000008 27.10619,-49.30257 28.837289,-50.39907 c0.6075900000000001,-0.3848700000000001 1.3288700000000002,-1.67653 1.6028200000000001,-2.87033 c0.27394,-1.19381 7.240384,-13.90379 15.480964,-28.24439 l14.98288,-26.07382 l92.6214,-0.2969800000000001 c50.94177,-0.16334000000000004 98.98777,-0.09480000000000002 106.76889,0.15239000000000003 c9.69322,0.30789000000000005 13.86744,-0.004000000000000001 13.25806,-0.9897400000000001 c-0.48919,-0.79152 -0.26649,-1.8241200000000002 0.4948700000000001,-2.29467 c2.4062,-1.4871 1.50151,-3.41288 -1.68038,-3.57693 c-2.3062300000000002,-0.11891000000000002 -2.47478,-0.31216000000000005 -0.6810400000000002,-0.7809200000000001 c2.31307,-0.60446 2.943,-2.00635 2.48532,-5.53095 c-0.12163000000000002,-0.93643 0.4187,-1.7026000000000001 1.20069,-1.7026000000000001 c2.46313,0 1.55031,-2.63042 -1.97714,-5.69751 c-3.25878,-2.83347 -3.30091,-3.06598 -1.02156,-5.63832 c1.74361,-1.96774 1.92348,-2.84173 0.6747700000000002,-3.27851 c-2.59864,-0.9089700000000001 -2.02761,-3.26669 0.6810400000000002,-2.81189 c1.3319200000000002,0.22364000000000003 2.23339,-0.35099 2.04312,-1.30237 c-0.18729000000000004,-0.93643 0.3388600000000001,-1.7026000000000001 1.1692200000000001,-1.7026000000000001 c0.91093,0 1.18628,-1.28878 0.6942000000000002,-3.24935 c-0.51608,-2.0562 -0.07020000000000001,-3.86795 1.2144300000000001,-4.93405 c1.11647,-0.92659 2.02995,-2.78446 2.02995,-4.12858 c0,-1.34413 0.72145,-2.68436 1.60323,-2.97828 c1.03847,-0.3461600000000001 1.1704,-1.22585 0.3745200000000001,-2.49716 c-0.6758000000000002,-1.0795 -1.0521800000000001,-3.03586 -0.8364,-4.34746 c0.4499600000000001,-2.73503 -4.54937,-5.10671 -10.76458,-5.10671 c-3.06566,0 -3.99757,-0.6238800000000001 -3.99757,-2.67624 c0,-2.99916 -3.67167,-5.44176 -8.42345,-5.60377 c-1.73483,-0.059100000000000014 -2.3880500000000002,-0.41669 -1.45163,-0.79454 c3.99012,-1.6100500000000002 1.24589,-2.79198 -3.83296,-1.65083 c-6.34102,1.42474 -8.08523,0.77355 -8.08523,-3.01854 c0,-1.47759 -0.9833299999999999,-3.06387 -2.18519,-3.52507 c-1.6865,-0.6471600000000001 -1.99946,-1.9999099999999999 -1.37141,-5.92756 c0.5809700000000001,-3.63321 0.23197,-5.57192 -1.22001,-6.77695 c-1.1185800000000001,-0.92834 -2.03525,-2.99194 -2.03703,-4.58578 c-0.003000000000000001,-2.88825 -8.50664,-16.48521 -13.9509,-22.30754 c-1.57611,-1.6855700000000002 -3.99784,-3.06468 -5.3816,-3.06468 c-1.38376,0 -3.21411,-1.53234 -4.06744,-3.4052 c-1.1134600000000001,-2.44374 -2.62083,-3.4052 -5.33874,-3.4052 c-2.08297,0 -4.13688,-0.5657800000000001 -4.56426,-1.25728 c-0.4273800000000001,-0.6915100000000001 -2.73374,-1.68704 -5.12523,-2.21231 c-4.43652,-0.97442 -9.85566,-6.41323 -9.89859,-9.93451 c-0.038400000000000004,-3.152 -4.356,-5.22995 -7.18972,-3.46025 c-3.6881700000000004,2.30329 -11.22218,0.75116 -11.22218,-2.31195 c0,-1.3872 -1.8388,-4.61646 -4.08624,-7.17615 c-2.24743,-2.55967 -4.0862300000000005,-5.52309 -4.0862300000000005,-6.58538 c0,-2.99702 -2.9115,-5.20039 -6.87171,-5.20039 c-4.22855,0 -7.19085,-2.91303 -10.13999,-9.97128 c-1.17299,-2.80737 -3.64811,-5.79477 -5.50027,-6.63867 c-2.37925,-1.08407 -3.36755,-2.62045 -3.36755,-5.23518 c0,-4.77556 -3.1628,-7.32461 -8.88683,-7.16236 c-2.87726,0.08160000000000002 -5.4242,-0.82543 -6.90131,-2.45763 c-1.2876,-1.42277 -3.74226,-2.5868700000000002 -5.4548,-2.5868700000000002 c-1.7125400000000002,0 -3.49252,-0.6129400000000002 -3.95552,-1.3620800000000002 c-0.5532900000000001,-0.8952400000000001 11.79054,-1.3620800000000002 36.01471,-1.3620800000000002 l36.85654,0 l0,-23.61804 c0,-12.98992 0.40319,-34.74914 0.8959900000000002,-48.35382 l0.8959700000000002,-24.73579 l148.25174,0 l148.25172,0 l0.013900000000000003,41.20291 c0.010000000000000002,27.35051 -1.85859,82.79372 -5.55563,164.91176 c-3.06322,68.03988 -5.23398,124.58321 -4.8239,125.65184 c0.95259,2.48239 4.17197,2.49377 6.64225,0.023400000000000008 c1.1524,-1.1524 2.64148,-1.4733100000000001 3.72609,-0.8029900000000001 c0.99361,0.6141000000000001 6.14974,0.7938700000000001 11.45805,0.39949000000000007 c5.8981200000000005,-0.43820000000000003 12.03514,-0.04320000000000001 15.780850000000001,1.01567 c3.37114,0.9530000000000001 8.05949,1.59538 10.41856,1.4275200000000001 c2.35905,-0.16785000000000003 4.69374,0.3493700000000001 5.18819,1.14939 c0.49443000000000004,0.80003 3.6407000000000003,1.45459 6.9917,1.45459 c3.35099,0 8.29316,0.9194 10.98258,2.04312 c6.08233,2.54135 5.61943,2.6161700000000003 6.32009,-1.02156 c0.43253,-2.2456300000000002 0.6398500000000001,-1.8963400000000001 0.77578,1.3069600000000001 c0.22101000000000004,5.2087 5.05762,10.23641 13.46576,13.99779 c5.62027,2.51422 7.10132,4.49504 4.54309,6.0761 c-0.6851500000000001,0.42346000000000006 -1.55617,-0.00007000000000000001 -1.9355799999999999,-0.9411700000000001 c-0.3794200000000001,-0.9411 -0.7288500000000001,-0.48521000000000003 -0.77652,1.01307 c-0.13389,4.20789 1.904,6.41297 5.46004,5.90801 c1.9619300000000002,-0.27859 3.42216,-1.53288 3.7065900000000003,-3.18385 c0.25814,-1.49828 1.18381,-3.33709 2.05704,-4.08624 c2.11889,-1.81776 4.9928799999999995,-10.2272 4.9928799999999995,-14.6094 c0,-3.3197200000000002 0.30914,-3.47795 5.44832,-2.78863 c6.70068,0.8987400000000002 6.91391,-0.6602700000000001 0.6717400000000002,-4.91129 c-2.61689,-1.78214 -4.75798,-3.76548 -4.75798,-4.40743 c0,-0.6419500000000001 -2.45174,-2.78968 -5.44832,-4.77271 c-2.99657,-1.98304 -5.44832,-4.48479 -5.44832,-5.55943 c0,-2.93413 5.256,-0.90385 10.89664,4.20918 c8.97085,8.1317 15.90428,12.86267 24.68708,16.84498 c4.83237,2.19111 11.92172,6.76867 15.75411,10.17238 c3.83239,3.4037 7.6246,6.41264 8.42712,6.68651 c0.80251,0.27388000000000007 1.11,1.8266300000000002 0.6832900000000002,3.45056 c-0.54317,2.06713 -2.6236300000000004,3.4968 -6.93739,4.76728 c-3.7979700000000003,1.11856 -6.56396,2.85968 -7.21055,4.53884 c-1.08631,2.82107 -12.03321,13.56849 -27.05353,26.56055 c-4.76352,4.12029 -9.46664,8.25761 -10.45137,9.19404 c-0.98473,0.93643 -2.24483,1.7026000000000001 -2.80022,1.7026000000000001 c-0.55539,0 -5.04295,3.87671 -9.97237,8.61492 c-4.9294,4.7382 -12.94665,10.93749 -17.81608,13.77618 c-12.50083,7.28752 -24.61896,17.14858 -38.81927,31.58898 c-9.824770000000001,9.99087 -14.19974,13.36115 -22.03482,16.97459 c-8.28831,3.82247 -9.58388,4.86783 -8.513,6.86878 c3.58685,6.7020800000000005 -0.9638500000000001,19.38586 -7.54815,21.03842 c-4.64998,1.16707 -4.49443,5.47559 0.41504,11.49676 c2.12436,2.6054 4.5734,6.81281 5.44228,9.3498 c0.8688800000000001,2.53698 2.5380700000000003,5.31342 3.70931,6.16984 c1.70853,1.24931 1.84435,2.30716 0.6870700000000002,5.35104 c-0.79334,2.08665 -1.44244,6.80696 -1.44244,10.48958 l0,6.69567 l-5.92161,-0.8116500000000001 c-5.60356,-0.7680500000000001 -6.23165,-0.49850000000000005 -11.69385,5.01857 c-3.17473,3.2066 -6.70986,7.26119 -7.85583,9.01018 c-1.14599,1.74898 -3.2389900000000003,3.17997 -4.65111,3.17997 c-2.04698,0 -2.56751,1.0093 -2.56751,4.97838 c0,4.7367 -0.12095,4.86895 -2.4908900000000003,2.72416 c-3.3109,-2.99633 -5.27104,-2.84225 -7.09045,0.55735 c-1.18468,2.21361 -2.33251,2.62977 -5.39682,1.9567400000000001 c-2.29072,-0.50313 -5.4741800000000005,-0.06920000000000003 -7.73725,1.05475 c-2.63371,1.30797 -5.34709,1.57132 -8.61242,0.8358800000000001 c-5.9273,-1.3349600000000001 -8.69223,1.47391 -7.70032,7.82271 c0.36657000000000006,2.34633 0.022500000000000006,4.9101099999999995 -0.7647300000000001,5.69728 c-2.15004,2.15004 -0.19386000000000003,5.70058 3.14077,5.70058 c2.5178000000000003,0 2.68079,0.30471000000000004 1.14978,2.14947 c-1.5264,1.83918 -1.14473,2.6497 2.6439700000000004,5.6148 l4.42788,3.46534 l-4.1396,2.51745 c-2.27679,1.38459 -6.23183,2.43879 -8.789,2.34265 c-7.00073,-0.26319 -16.57459,7.99135 -17.74295,15.2979 c-0.51157,3.19921 -2.41437,7.0663 -4.5969,9.34235 c-3.291,3.43203 -4.51586,3.82951 -10.5344,3.4186 c-3.7457200000000004,-0.25576 -8.27476,-0.54635 -10.06452,-0.6458000000000002 c-2.25225,-0.12517999999999999 -4.76835,1.56601 -8.17248,5.49298 c-2.7051,3.12059 -7.98304,7.31745 -11.72875,9.32634 c-4.72811,2.5357700000000003 -7.57351,5.21426 -9.30622,8.76033 c-1.37269,2.80929 -3.32025,5.1078 -4.3279,5.1078 c-3.35915,0 -7.14837,6.68343 -8.09788,14.28301 c-1.1249500000000001,9.00388 -2.1892,9.27567 -13.80504,3.5256 z" id="path3082" inkscape:connector-curvature="0" fill="#009900" fill-opacity="1"/>
    <g id="g3793" fill="#009900" fill-opacity="1">
      <g id="g3360" stroke-width="0" fill="#009900" fill-opacity="1">
        <path inkscape:connector-curvature="0" id="path3362" d="m166.96643775520317,413.9947856535938 h8.40897288 l5.21231741184,-20.517893827199998 c0.44930906944000004,-1.7939142144000002 1.00990726144,-4.76549988992 1.57050545344,-8.969571072 c0.28071435392000016,2.9151105983999996 0.8969571072000001,5.88586575808 1.681794576,9.0816907104 l5.10102828928,20.4057741888 h8.46461744128 l10.48443196416,-40.75507330048 h-7.51284628864 l-5.94151031936,23.6572437024 c-0.7848374688000002,3.08370531392 -1.3454356608,6.0544604736 -1.57050545344,8.913095994879999 c-0.6727178304,-4.484785536 -1.23248550656,-7.5120157728 -1.6253194988800002,-9.137335271680001 l-5.66162648128,-23.4330044256 h-6.55941410432 l-5.9423408352000004,23.6572437024 c-0.5597676761600003,2.3545124064 -1.4019107379200004,5.21397844352 -1.6253194988800002,8.913095994879999 c-0.6727178304,-4.484785536 -1.23248550656,-7.5120157728 -1.6253194988800002,-9.137335271680001 l-5.830221196799999,-23.4330044256 h-7.5120157728 l10.48277093248,40.75507330048 zm45.35114795904,0 h6.951417580799999 v-29.3753452608 h-6.951417580799999 v29.3753452608 zm0,-34.196489711999995 h6.951417580799999 v-6.55858358848 h-6.951417580799999 v6.55858358848 zm14.351313715200002,34.196489711999995 h6.8392979424 v-9.47452470272 l3.363589152,-3.9798319052799997 l6.5029390272,13.454356608 h7.56849084992 l-9.419710657280001,-18.9482188896 l8.69051774976,-10.4271263712 h-7.6797799724799996 l-9.02604614912,11.884681670400001 v-23.26440971008 h-6.8392979424 v40.75507330048 l0,0 zm28.08555416128,0 h6.951417580799999 v-29.3753452608 h-6.951417580799999 v29.3753452608 zm0,-34.196489711999995 h6.951417580799999 v-6.55858358848 h-6.951417580799999 v6.55858358848 zm21.1906116576,31.393498752 c2.0181534912,2.3545124064 4.1484266208000005,3.363589152 7.119181780479999,3.363589152 c6.33517482752,0 11.21196384,-5.77374611968 11.21196384,-15.2482708224 c0,-9.13816578752 -4.76549988992,-15.2482708224 -11.43703363264,-15.2482708224 c-3.2514695136,0 -5.492201249920001,1.121196384 -7.960494326400001,3.75559262848 l-0.7291929075200002,-3.19499443648 h-5.045383728 v40.0267109088 h6.8392979424 c0.0016610316800000008,0 0.0016610316800000008,-13.454356608 0.0016610316800000008,-13.454356608 zm-0.055644561280000025,-4.76549988992 v-13.958479722879998 c1.73743913728,-1.681794576 3.3062835590399997,-2.5787516832 5.211486896,-2.5787516832 c3.8685427827200005,0 6.22222467328,3.30794459072 6.22222467328,9.4180496256 c0,6.166580112 -2.4101569676800003,9.58581382528 -6.166580112,9.58581382528 c-1.9035423052799998,0 -3.47404775872,-0.84048203008 -5.2671314572800005,-2.4666320448 zm46.47234434304,1.7939142144000002 l-5.10185880512,-3.1393498752 c-1.6253194988800002,2.5787516832 -3.363589152,3.75559262848 -5.997985396480001,3.75559262848 c-4.09195154368,0 -6.166580112,-2.80299096 -6.22305518912,-8.35332831872 h17.6027832288 c0,-0.5041231148800002 0.05481404544000003,-1.0090767456 0.05481404544000003,-1.51403037632 c0,-9.530169264 -4.54043009728,-14.911911907199999 -12.16373499264,-14.911911907199999 c-7.624965927039999,0 -12.33482125568,5.55033735872 -12.33482125568,15.30391538368 c0,9.642288902399999 4.65421076736,15.191795745280002 12.4452798624,15.191795745280002 c5.439878752,0.0024915475200000016 9.47701625024,-2.1842566592 11.7185785024,-6.33268328 zm-17.21077975232,-12.72516370048 c0.28071435392000016,-3.9798319052799997 2.242392768,-6.22305518912 5.3817426432,-6.22305518912 c3.3054530432,0 5.326098081920001,2.29886784512 5.326098081920001,6.22305518912 h-10.70784072512 zm40.868023454719996,15.360390460800001 l0.7291929075200002,3.1393498752 h5.3817426432 c-0.22506979264000002,-3.1393498752 -0.3363589152,-5.43821772032 -0.3363589152,-6.8392979424 v-33.915775358080005 h-6.8392979424 v14.182718999680002 c-2.0181534912,-2.3545124064 -4.14759610496,-3.363589152 -7.1175207488000005,-3.363589152 c-6.33517482752,0 -11.21196384,5.77374611968 -11.21196384,15.2482708224 c0,9.137335271680001 4.8211444511999995,15.2482708224 11.492678193920002,15.2482708224 c3.3046225273600003,0 5.82689913344,-1.17767146112 7.901527701759999,-3.6999480672000002 zm-1.0090767456,-4.65338025152 c-1.73743913728,1.681794576 -3.2514695136,2.52227660608 -5.1575033664,2.52227660608 c-3.8685427827200005,0 -6.22222467328,-3.3071140748800003 -6.22222467328,-9.4180496256 c0,-6.166580112 2.4101569676800003,-9.530169264 6.166580112,-9.530169264 c1.9060338528,0 3.4200642291200003,0.84048203008 5.213147927680001,2.4666320448 c0,0.0008305158400000004 0,13.95931023872 0,13.95931023872 zm14.18188848384,7.79273012672 h6.951417580799999 v-29.3753452608 h-6.951417580799999 v29.3753452608 zm0,-34.196489711999995 h6.951417580799999 v-6.55858358848 h-6.951417580799999 v6.55858358848 zm29.599584537600002,34.196489711999995 h6.6150586656 c-0.28071435392000016,-1.62615001472 -0.44847855360000005,-2.97075515968 -0.44847855360000005,-3.9806624211200003 v-17.266424313599998 c0,-5.3817426432 -3.8660512352,-8.689687233919999 -10.7634852864,-8.689687233919999 c-5.043722696320001,0 -8.80180687232,1.9060338528 -11.26677788544,5.7181015584 l4.7090248128,2.97075515968 c1.5696749376,-2.18591769088 3.75476211264,-3.363589152 6.44646395008,-3.363589152 c2.69170183744,0 4.1484266208000005,1.2333160224000002 4.1484266208000005,3.363589152 v2.2980373292800005 c-11.21196384,1.4019107379200004 -16.65018156032,4.87761952832 -16.65018156032,11.4362031168 c0,4.87678901248 2.9151105983999996,7.848374688 7.848374688,7.848374688 c3.13768884352,0 6.05279944192,-0.95260166848 8.74367076352,-2.9151105983999996 c0.0016610316800000008,0.0016610316800000008 0.6179037849600002,2.58041271488 0.6179037849600002,2.58041271488 zm-0.7848374688000002,-14.29566915392 v6.2786997504 c-2.12861209792,2.07462856832 -4.2605462592,3.08370531392 -6.44646395008,3.08370531392 c-2.0181534912,0 -3.13851935936,-1.17684094528 -3.13851935936,-3.1393498752 c0,-3.4757087903999997 3.08287479808,-5.326098081920001 9.58498330944,-6.22305518912 z" stroke-width="0" fill="#009900" fill-opacity="1"/>
      </g>
      <g id="g3364" stroke-width="0" fill="#009900" fill-opacity="1">
        <path style="stroke:#010101;stroke-width:0.30000001" inkscape:connector-curvature="0" id="path3366" d="m166.96643775520317,413.9947856535938 h8.40897288 l5.21231741184,-20.517893827199998 c0.44930906944000004,-1.7939142144000002 1.00990726144,-4.76549988992 1.57050545344,-8.969571072 c0.28071435392000016,2.9151105983999996 0.8969571072000001,5.88586575808 1.681794576,9.0816907104 l5.10102828928,20.4057741888 h8.46461744128 l10.48443196416,-40.75507330048 h-7.51284628864 l-5.94151031936,23.6572437024 c-0.7848374688000002,3.08370531392 -1.3454356608,6.0544604736 -1.57050545344,8.913095994879999 c-0.6727178304,-4.484785536 -1.23248550656,-7.5120157728 -1.6253194988800002,-9.137335271680001 l-5.66162648128,-23.4330044256 h-6.55941410432 l-5.9423408352000004,23.6572437024 c-0.5597676761600003,2.3545124064 -1.4019107379200004,5.21397844352 -1.6253194988800002,8.913095994879999 c-0.6727178304,-4.484785536 -1.23248550656,-7.5120157728 -1.6253194988800002,-9.137335271680001 l-5.830221196799999,-23.4330044256 h-7.5120157728 l10.48277093248,40.75507330048 zm45.35114795904,0 h6.951417580799999 v-29.3753452608 h-6.951417580799999 v29.3753452608 zm0,-34.196489711999995 h6.951417580799999 v-6.55858358848 h-6.951417580799999 v6.55858358848 zm14.351313715200002,34.196489711999995 h6.8392979424 v-9.47452470272 l3.363589152,-3.9798319052799997 l6.5029390272,13.454356608 h7.56849084992 l-9.419710657280001,-18.9482188896 l8.69051774976,-10.4271263712 h-7.6797799724799996 l-9.02604614912,11.884681670400001 v-23.26440971008 h-6.8392979424 v40.75507330048 l0,0 zm28.08555416128,0 h6.951417580799999 v-29.3753452608 h-6.951417580799999 v29.3753452608 zm0,-34.196489711999995 h6.951417580799999 v-6.55858358848 h-6.951417580799999 v6.55858358848 zm21.1906116576,31.393498752 c2.0181534912,2.3545124064 4.1484266208000005,3.363589152 7.119181780479999,3.363589152 c6.33517482752,0 11.21196384,-5.77374611968 11.21196384,-15.2482708224 c0,-9.13816578752 -4.76549988992,-15.2482708224 -11.43703363264,-15.2482708224 c-3.2514695136,0 -5.492201249920001,1.121196384 -7.960494326400001,3.75559262848 l-0.7291929075200002,-3.19499443648 h-5.045383728 v40.0267109088 h6.8392979424 c0.0016610316800000008,0 0.0016610316800000008,-13.454356608 0.0016610316800000008,-13.454356608 zm-0.055644561280000025,-4.76549988992 v-13.958479722879998 c1.73743913728,-1.681794576 3.3062835590399997,-2.5787516832 5.211486896,-2.5787516832 c3.8685427827200005,0 6.22222467328,3.30794459072 6.22222467328,9.4180496256 c0,6.166580112 -2.4101569676800003,9.58581382528 -6.166580112,9.58581382528 c-1.9035423052799998,0 -3.47404775872,-0.84048203008 -5.2671314572800005,-2.4666320448 zm46.47234434304,1.7939142144000002 l-5.10185880512,-3.1393498752 c-1.6253194988800002,2.5787516832 -3.363589152,3.75559262848 -5.997985396480001,3.75559262848 c-4.09195154368,0 -6.166580112,-2.80299096 -6.22305518912,-8.35332831872 h17.6027832288 c0,-0.5041231148800002 0.05481404544000003,-1.0090767456 0.05481404544000003,-1.51403037632 c0,-9.530169264 -4.54043009728,-14.911911907199999 -12.16373499264,-14.911911907199999 c-7.624965927039999,0 -12.33482125568,5.55033735872 -12.33482125568,15.30391538368 c0,9.642288902399999 4.65421076736,15.191795745280002 12.4452798624,15.191795745280002 c5.439878752,0.0024915475200000016 9.47701625024,-2.1842566592 11.7185785024,-6.33268328 zm-17.21077975232,-12.72516370048 c0.28071435392000016,-3.9798319052799997 2.242392768,-6.22305518912 5.3817426432,-6.22305518912 c3.3054530432,0 5.326098081920001,2.29886784512 5.326098081920001,6.22305518912 h-10.70784072512 zm40.868023454719996,15.360390460800001 l0.7291929075200002,3.1393498752 h5.3817426432 c-0.22506979264000002,-3.1393498752 -0.3363589152,-5.43821772032 -0.3363589152,-6.8392979424 v-33.915775358080005 h-6.8392979424 v14.182718999680002 c-2.0181534912,-2.3545124064 -4.14759610496,-3.363589152 -7.1175207488000005,-3.363589152 c-6.33517482752,0 -11.21196384,5.77374611968 -11.21196384,15.2482708224 c0,9.137335271680001 4.8211444511999995,15.2482708224 11.492678193920002,15.2482708224 c3.3046225273600003,0 5.82689913344,-1.17767146112 7.901527701759999,-3.6999480672000002 zm-1.0090767456,-4.65338025152 c-1.73743913728,1.681794576 -3.2514695136,2.52227660608 -5.1575033664,2.52227660608 c-3.8685427827200005,0 -6.22222467328,-3.3071140748800003 -6.22222467328,-9.4180496256 c0,-6.166580112 2.4101569676800003,-9.530169264 6.166580112,-9.530169264 c1.9060338528,0 3.4200642291200003,0.84048203008 5.213147927680001,2.4666320448 c0,0.0008305158400000004 0,13.95931023872 0,13.95931023872 zm14.18188848384,7.79273012672 h6.951417580799999 v-29.3753452608 h-6.951417580799999 v29.3753452608 zm0,-34.196489711999995 h6.951417580799999 v-6.55858358848 h-6.951417580799999 v6.55858358848 zm29.599584537600002,34.196489711999995 h6.6150586656 c-0.28071435392000016,-1.62615001472 -0.44847855360000005,-2.97075515968 -0.44847855360000005,-3.9806624211200003 v-17.266424313599998 c0,-5.3817426432 -3.8660512352,-8.689687233919999 -10.7634852864,-8.689687233919999 c-5.043722696320001,0 -8.80180687232,1.9060338528 -11.26677788544,5.7181015584 l4.7090248128,2.97075515968 c1.5696749376,-2.18591769088 3.75476211264,-3.363589152 6.44646395008,-3.363589152 c2.69170183744,0 4.1484266208000005,1.2333160224000002 4.1484266208000005,3.363589152 v2.2980373292800005 c-11.21196384,1.4019107379200004 -16.65018156032,4.87761952832 -16.65018156032,11.4362031168 c0,4.87678901248 2.9151105983999996,7.848374688 7.848374688,7.848374688 c3.13768884352,0 6.05279944192,-0.95260166848 8.74367076352,-2.9151105983999996 c0.0016610316800000008,0.0016610316800000008 0.6179037849600002,2.58041271488 0.6179037849600002,2.58041271488 zm-0.7848374688000002,-14.29566915392 v6.2786997504 c-2.12861209792,2.07462856832 -4.2605462592,3.08370531392 -6.44646395008,3.08370531392 c-2.0181534912,0 -3.13851935936,-1.17684094528 -3.13851935936,-3.1393498752 c0,-3.4757087903999997 3.08287479808,-5.326098081920001 9.58498330944,-6.22305518912 z" stroke-width="0" fill="#009900" fill-opacity="1"/>
      </g>
      <g id="g3408" stroke-width="0" fill="#009900" fill-opacity="1">
        <path style="stroke:#000000;stroke-width:0.5" inkscape:connector-curvature="0" id="path3410" d="M163.24225346770154,600.5508085201244 H192.89748256658154 V475.67029423852443 c-11.8099352448,0 -23.09415396288,0.7873290163200002 -33.0669881696,2.09954404352 V455.4630133354844 c17.3204078432,-3.4117590707199996 32.27965915328,-8.39817617408 44.61448040896,-15.484137320959999 h21.78276945152 v160.57193250560002 h29.65605961472 v26.76835603904 H163.24225346770154 v-26.76835603904 z" stroke-width="0" fill="#009900" fill-opacity="1"/>
      </g>
      <g id="g3412" stroke-width="0" fill="#009900" fill-opacity="1">
        <path style="stroke:#000000;stroke-width:0.5" inkscape:connector-curvature="0" id="path3414" d="m330.2041748462615,439.1483601745244 c44.8769234144,0 68.496793904,30.83788365504 68.496793904,95.66047548288 c0,64.82259182784 -23.61903997376,94.82995964288 -68.496793904,94.82995964288 c-44.877753930240004,0 -68.496793904,-30.007367815040002 -68.496793904,-94.82995964288 c0,-64.82259182784 23.6198704896,-95.66047548288 68.496793904,-95.66047548288 zm0,161.09681851648 c22.570098467839998,0 34.38003371264,-19.77292111872 34.38003371264,-65.43634303360001 c0,-45.66425243072 -11.8099352448,-66.52930187903999 -34.38003371264,-66.52930187903999 c-22.306824946560003,0 -34.64164620224,20.86504944832 -34.64164620224,66.52930187903999 c0.0008305158400000004,45.66425243072 12.33482125568,65.43634303360001 34.64164620224,65.43634303360001 z" stroke-width="0" fill="#009900" fill-opacity="1"/>
      </g>
      <g id="g3420" stroke-width="0" fill="#009900" fill-opacity="1">
        <path inkscape:connector-curvature="0" id="path3422" d="m166.96643775520317,413.9947856535938 h8.40897288 l5.21231741184,-20.517893827199998 c0.44930906944000004,-1.7939142144000002 1.00990726144,-4.76549988992 1.57050545344,-8.969571072 c0.28071435392000016,2.9151105983999996 0.8969571072000001,5.88586575808 1.681794576,9.0816907104 l5.10102828928,20.4057741888 h8.46461744128 l10.48443196416,-40.75507330048 h-7.51284628864 l-5.94151031936,23.6572437024 c-0.7848374688000002,3.08370531392 -1.3454356608,6.0544604736 -1.57050545344,8.913095994879999 c-0.6727178304,-4.484785536 -1.23248550656,-7.5120157728 -1.6253194988800002,-9.137335271680001 l-5.66162648128,-23.4330044256 h-6.55941410432 l-5.9423408352000004,23.6572437024 c-0.5597676761600003,2.3545124064 -1.4019107379200004,5.21397844352 -1.6253194988800002,8.913095994879999 c-0.6727178304,-4.484785536 -1.23248550656,-7.5120157728 -1.6253194988800002,-9.137335271680001 l-5.830221196799999,-23.4330044256 h-7.5120157728 l10.48277093248,40.75507330048 zm45.35114795904,0 h6.951417580799999 v-29.3753452608 h-6.951417580799999 v29.3753452608 zm0,-34.196489711999995 h6.951417580799999 v-6.55858358848 h-6.951417580799999 v6.55858358848 zm14.351313715200002,34.196489711999995 h6.8392979424 v-9.47452470272 l3.363589152,-3.9798319052799997 l6.5029390272,13.454356608 h7.56849084992 l-9.419710657280001,-18.9482188896 l8.69051774976,-10.4271263712 h-7.6797799724799996 l-9.02604614912,11.884681670400001 v-23.26440971008 h-6.8392979424 v40.75507330048 l0,0 zm28.086384677119998,0 h6.951417580799999 v-29.3753452608 h-6.951417580799999 v29.3753452608 zm0,-34.196489711999995 h6.951417580799999 v-6.55858358848 h-6.951417580799999 v6.55858358848 zm21.18978114176,31.393498752 c2.0181534912,2.3545124064 4.1484266208000005,3.363589152 7.119181780479999,3.363589152 c6.33517482752,0 11.21196384,-5.77374611968 11.21196384,-15.2482708224 c0,-9.13816578752 -4.76549988992,-15.2482708224 -11.43703363264,-15.2482708224 c-3.2514695136,0 -5.492201249920001,1.121196384 -7.960494326400001,3.75559262848 l-0.7291929075200002,-3.19499443648 h-5.045383728 v40.0267109088 h6.8392979424 c0.0016610316800000008,0 0.0016610316800000008,-13.454356608 0.0016610316800000008,-13.454356608 zm-0.055644561280000025,-4.76549988992 v-13.958479722879998 c1.73743913728,-1.681794576 3.3062835590399997,-2.5787516832 5.211486896,-2.5787516832 c3.8685427827200005,0 6.22222467328,3.30794459072 6.22222467328,9.4180496256 c0,6.166580112 -2.4101569676800003,9.58581382528 -6.166580112,9.58581382528 c-1.9035423052799998,0 -3.47404775872,-0.84048203008 -5.2671314572800005,-2.4666320448 zm46.47234434304,1.7939142144000002 l-5.10185880512,-3.1393498752 c-1.6253194988800002,2.5787516832 -3.363589152,3.75559262848 -5.997985396480001,3.75559262848 c-4.09195154368,0 -6.166580112,-2.80299096 -6.22305518912,-8.35332831872 h17.6027832288 c0,-0.5041231148800002 0.05481404544000003,-1.0090767456 0.05481404544000003,-1.51403037632 c0,-9.530169264 -4.54043009728,-14.911911907199999 -12.16373499264,-14.911911907199999 c-7.624965927039999,0 -12.33482125568,5.55033735872 -12.33482125568,15.30391538368 c0,9.642288902399999 4.65421076736,15.191795745280002 12.4452798624,15.191795745280002 c5.439878752,0.0024915475200000016 9.47701625024,-2.1842566592 11.7185785024,-6.33268328 zm-17.21077975232,-12.72516370048 c0.28071435392000016,-3.9798319052799997 2.242392768,-6.22305518912 5.3817426432,-6.22305518912 c3.3054530432,0 5.326098081920001,2.29886784512 5.326098081920001,6.22305518912 h-10.70784072512 zm40.868023454719996,15.360390460800001 l0.7291929075200002,3.1393498752 h5.3817426432 c-0.22506979264000002,-3.1393498752 -0.3363589152,-5.43821772032 -0.3363589152,-6.8392979424 v-33.915775358080005 h-6.8392979424 v14.182718999680002 c-2.0181534912,-2.3545124064 -4.14759610496,-3.363589152 -7.1175207488000005,-3.363589152 c-6.33517482752,0 -11.21196384,5.77374611968 -11.21196384,15.2482708224 c0,9.137335271680001 4.8211444511999995,15.2482708224 11.492678193920002,15.2482708224 c3.3046225273600003,0 5.82689913344,-1.17767146112 7.901527701759999,-3.6999480672000002 zm-1.0090767456,-4.65338025152 c-1.73743913728,1.681794576 -3.2514695136,2.52227660608 -5.1575033664,2.52227660608 c-3.8685427827200005,0 -6.22222467328,-3.3071140748800003 -6.22222467328,-9.4180496256 c0,-6.166580112 2.4101569676800003,-9.530169264 6.166580112,-9.530169264 c1.9060338528,0 3.4200642291200003,0.84048203008 5.213147927680001,2.4666320448 c0,0.0008305158400000004 0,13.95931023872 0,13.95931023872 zm14.182718999680002,7.79273012672 h6.951417580799999 v-29.3753452608 h-6.951417580799999 v29.3753452608 zm0,-34.196489711999995 h6.951417580799999 v-6.55858358848 h-6.951417580799999 v6.55858358848 zm29.59875402176,34.196489711999995 h6.6150586656 c-0.28071435392000016,-1.62615001472 -0.44847855360000005,-2.97075515968 -0.44847855360000005,-3.9806624211200003 v-17.266424313599998 c0,-5.3817426432 -3.8660512352,-8.689687233919999 -10.7634852864,-8.689687233919999 c-5.043722696320001,0 -8.80180687232,1.9060338528 -11.26677788544,5.7181015584 l4.7090248128,2.97075515968 c1.5696749376,-2.18591769088 3.75476211264,-3.363589152 6.44646395008,-3.363589152 c2.69170183744,0 4.1484266208000005,1.2333160224000002 4.1484266208000005,3.363589152 v2.2980373292800005 c-11.21196384,1.4019107379200004 -16.65018156032,4.87761952832 -16.65018156032,11.4362031168 c0,4.87678901248 2.9151105983999996,7.848374688 7.848374688,7.848374688 c3.13768884352,0 6.05279944192,-0.95260166848 8.74367076352,-2.9151105983999996 c0.0016610316800000008,0.0016610316800000008 0.6179037849600002,2.58041271488 0.6179037849600002,2.58041271488 zm-0.7848374688000002,-14.29566915392 v6.2786997504 c-2.12861209792,2.07462856832 -4.2605462592,3.08370531392 -6.44646395008,3.08370531392 c-2.0181534912,0 -3.13851935936,-1.17684094528 -3.13851935936,-3.1393498752 c0,-3.4757087903999997 3.08287479808,-5.326098081920001 9.58498330944,-6.22305518912 z" stroke-width="0" fill="#009900" fill-opacity="1"/>
      </g>
      <g id="g3424" stroke-width="0" fill="#009900" fill-opacity="1">
        <path style="" inkscape:connector-curvature="0" id="path3426" d="m166.96643775520317,413.9947856535938 h8.40897288 l5.21231741184,-20.517893827199998 c0.44930906944000004,-1.7939142144000002 1.00990726144,-4.76549988992 1.57050545344,-8.969571072 c0.28071435392000016,2.9151105983999996 0.8969571072000001,5.88586575808 1.681794576,9.0816907104 l5.10102828928,20.4057741888 h8.46461744128 l10.48443196416,-40.75507330048 h-7.51284628864 l-5.94151031936,23.6572437024 c-0.7848374688000002,3.08370531392 -1.3454356608,6.0544604736 -1.57050545344,8.913095994879999 c-0.6727178304,-4.484785536 -1.23248550656,-7.5120157728 -1.6253194988800002,-9.137335271680001 l-5.66162648128,-23.4330044256 h-6.55941410432 l-5.9423408352000004,23.6572437024 c-0.5597676761600003,2.3545124064 -1.4019107379200004,5.21397844352 -1.6253194988800002,8.913095994879999 c-0.6727178304,-4.484785536 -1.23248550656,-7.5120157728 -1.6253194988800002,-9.137335271680001 l-5.830221196799999,-23.4330044256 h-7.5120157728 l10.48277093248,40.75507330048 zm45.35114795904,0 h6.951417580799999 v-29.3753452608 h-6.951417580799999 v29.3753452608 zm0,-34.196489711999995 h6.951417580799999 v-6.55858358848 h-6.951417580799999 v6.55858358848 zm14.351313715200002,34.196489711999995 h6.8392979424 v-9.47452470272 l3.363589152,-3.9798319052799997 l6.5029390272,13.454356608 h7.56849084992 l-9.419710657280001,-18.9482188896 l8.69051774976,-10.4271263712 h-7.6797799724799996 l-9.02604614912,11.884681670400001 v-23.26440971008 h-6.8392979424 v40.75507330048 l0,0 zm28.086384677119998,0 h6.951417580799999 v-29.3753452608 h-6.951417580799999 v29.3753452608 zm0,-34.196489711999995 h6.951417580799999 v-6.55858358848 h-6.951417580799999 v6.55858358848 zm21.18978114176,31.393498752 c2.0181534912,2.3545124064 4.1484266208000005,3.363589152 7.119181780479999,3.363589152 c6.33517482752,0 11.21196384,-5.77374611968 11.21196384,-15.2482708224 c0,-9.13816578752 -4.76549988992,-15.2482708224 -11.43703363264,-15.2482708224 c-3.2514695136,0 -5.492201249920001,1.121196384 -7.960494326400001,3.75559262848 l-0.7291929075200002,-3.19499443648 h-5.045383728 v40.0267109088 h6.8392979424 c0.0016610316800000008,0 0.0016610316800000008,-13.454356608 0.0016610316800000008,-13.454356608 zm-0.055644561280000025,-4.76549988992 v-13.958479722879998 c1.73743913728,-1.681794576 3.3062835590399997,-2.5787516832 5.211486896,-2.5787516832 c3.8685427827200005,0 6.22222467328,3.30794459072 6.22222467328,9.4180496256 c0,6.166580112 -2.4101569676800003,9.58581382528 -6.166580112,9.58581382528 c-1.9035423052799998,0 -3.47404775872,-0.84048203008 -5.2671314572800005,-2.4666320448 zm46.47234434304,1.7939142144000002 l-5.10185880512,-3.1393498752 c-1.6253194988800002,2.5787516832 -3.363589152,3.75559262848 -5.997985396480001,3.75559262848 c-4.09195154368,0 -6.166580112,-2.80299096 -6.22305518912,-8.35332831872 h17.6027832288 c0,-0.5041231148800002 0.05481404544000003,-1.0090767456 0.05481404544000003,-1.51403037632 c0,-9.530169264 -4.54043009728,-14.911911907199999 -12.16373499264,-14.911911907199999 c-7.624965927039999,0 -12.33482125568,5.55033735872 -12.33482125568,15.30391538368 c0,9.642288902399999 4.65421076736,15.191795745280002 12.4452798624,15.191795745280002 c5.439878752,0.0024915475200000016 9.47701625024,-2.1842566592 11.7185785024,-6.33268328 zm-17.21077975232,-12.72516370048 c0.28071435392000016,-3.9798319052799997 2.242392768,-6.22305518912 5.3817426432,-6.22305518912 c3.3054530432,0 5.326098081920001,2.29886784512 5.326098081920001,6.22305518912 h-10.70784072512 zm40.868023454719996,15.360390460800001 l0.7291929075200002,3.1393498752 h5.3817426432 c-0.22506979264000002,-3.1393498752 -0.3363589152,-5.43821772032 -0.3363589152,-6.8392979424 v-33.915775358080005 h-6.8392979424 v14.182718999680002 c-2.0181534912,-2.3545124064 -4.14759610496,-3.363589152 -7.1175207488000005,-3.363589152 c-6.33517482752,0 -11.21196384,5.77374611968 -11.21196384,15.2482708224 c0,9.137335271680001 4.8211444511999995,15.2482708224 11.492678193920002,15.2482708224 c3.3046225273600003,0 5.82689913344,-1.17767146112 7.901527701759999,-3.6999480672000002 zm-1.0090767456,-4.65338025152 c-1.73743913728,1.681794576 -3.2514695136,2.52227660608 -5.1575033664,2.52227660608 c-3.8685427827200005,0 -6.22222467328,-3.3071140748800003 -6.22222467328,-9.4180496256 c0,-6.166580112 2.4101569676800003,-9.530169264 6.166580112,-9.530169264 c1.9060338528,0 3.4200642291200003,0.84048203008 5.213147927680001,2.4666320448 c0,0.0008305158400000004 0,13.95931023872 0,13.95931023872 zm14.182718999680002,7.79273012672 h6.951417580799999 v-29.3753452608 h-6.951417580799999 v29.3753452608 zm0,-34.196489711999995 h6.951417580799999 v-6.55858358848 h-6.951417580799999 v6.55858358848 zm29.59875402176,34.196489711999995 h6.6150586656 c-0.28071435392000016,-1.62615001472 -0.44847855360000005,-2.97075515968 -0.44847855360000005,-3.9806624211200003 v-17.266424313599998 c0,-5.3817426432 -3.8660512352,-8.689687233919999 -10.7634852864,-8.689687233919999 c-5.043722696320001,0 -8.80180687232,1.9060338528 -11.26677788544,5.7181015584 l4.7090248128,2.97075515968 c1.5696749376,-2.18591769088 3.75476211264,-3.363589152 6.44646395008,-3.363589152 c2.69170183744,0 4.1484266208000005,1.2333160224000002 4.1484266208000005,3.363589152 v2.2980373292800005 c-11.21196384,1.4019107379200004 -16.65018156032,4.87761952832 -16.65018156032,11.4362031168 c0,4.87678901248 2.9151105983999996,7.848374688 7.848374688,7.848374688 c3.13768884352,0 6.05279944192,-0.95260166848 8.74367076352,-2.9151105983999996 c0.0016610316800000008,0.0016610316800000008 0.6179037849600002,2.58041271488 0.6179037849600002,2.58041271488 zm-0.7848374688000002,-14.29566915392 v6.2786997504 c-2.12861209792,2.07462856832 -4.2605462592,3.08370531392 -6.44646395008,3.08370531392 c-2.0181534912,0 -3.13851935936,-1.17684094528 -3.13851935936,-3.1393498752 c0,-3.4757087903999997 3.08287479808,-5.326098081920001 9.58498330944,-6.22305518912 z" stroke-width="0" fill="#009900" fill-opacity="1"/>
      </g>
      <g id="g3468" stroke-width="0" fill="#009900" fill-opacity="1">
        <path style="stroke: rgb(255, 255, 255); stroke-width: 0.5;" inkscape:connector-curvature="0" id="path3470" d="M163.24225346770154,600.5508085201244 H192.89748256658154 V475.67029423852443 c-11.8099352448,0 -23.09415396288,0.7873290163200002 -33.0669881696,2.09954404352 V455.4630133354844 c17.3204078432,-3.4117590707199996 32.27965915328,-8.39817617408 44.61448040896,-15.484137320959999 h21.78276945152 v160.57193250560002 h29.65605961472 v26.76835603904 H163.24225346770154 v-26.76835603904 z" stroke-width="0" fill="#009900" fill-opacity="1"/>
      </g>
      <g id="g3472" stroke-width="0" fill="#009900" fill-opacity="1">
        <path style="stroke: rgb(255, 255, 255); stroke-width: 0.5;" inkscape:connector-curvature="0" id="path3474" d="m330.20500536210153,439.1483601745244 c44.8769234144,0 68.496793904,30.83788365504 68.496793904,95.66047548288 c0,64.82259182784 -23.6198704896,94.82995964288 -68.496793904,94.82995964288 c-44.8769234144,0 -68.496793904,-30.007367815040002 -68.496793904,-94.82995964288 c0,-64.82259182784 23.61903997376,-95.66047548288 68.496793904,-95.66047548288 zm0,161.09681851648 c22.570098467839998,0 34.38003371264,-19.77292111872 34.38003371264,-65.43634303360001 c0,-45.66425243072 -11.8099352448,-66.52930187903999 -34.38003371264,-66.52930187903999 c-22.306824946560003,0 -34.64164620224,20.86504944832 -34.64164620224,66.52930187903999 c0,45.66425243072 12.33399073984,65.43634303360001 34.64164620224,65.43634303360001 z" stroke-width="0" fill="#009900" fill-opacity="1"/>
      </g>
      <rect y="-331.1534423828125" x="-19.1912899017334" height="10.779999732971191" width="287.072998046875" id="rect3789" style="stroke: none;" transform="matrix(0.83051584,0,0,0.83051584,173.72194,604.60324) " stroke-width="0" fill="#009900" fill-opacity="1"/>
      <rect style="stroke: none;" id="rect3791" width="287.072998046875" height="10.779999732971191" x="-19.1912899017334" y="-313.1534423828125" transform="matrix(0.83051584,0,0,0.83051584,173.72194,604.60324) " stroke-width="0" fill="#009900" fill-opacity="1"/>
    </g>
  </g><rect fill="#009900" stroke="none" stroke-width="2" stroke-linejoin="round" stroke-dashoffset="" fill-rule="nonzero" id="svg_1" x="150" y="321" width="260" height="315.0422668457031" style="color: rgb(0, 0, 0);" class="" fill-opacity="1"/><path fill="#d50b0b" stroke-width="2" stroke-linejoin="round" stroke-dashoffset="" fill-rule="nonzero" marker-start="" marker-mid="" marker-end="" id="svg_2" d="M188.49049907242042,478.1907841842485 C216.32042390472589,399.1165779196295 325.35898185424236,478.1907841842485 188.49049907242042,579.8576208101828 C51.62201629060034,478.1907841842485 160.6605742401184,399.1165779196295 188.49049907242042,478.1907841842485 z" style="color: rgb(0, 0, 0);" class="selected" fill-opacity="1"/></g></svg>