<svg width="40" height="40" fill="none" xmlns="http://www.w3.org/2000/svg"><path d="M20.334 39.777c-.876-.435-1.946-.882-2.54-1.059-.327-.097-.682-.223-.779-.28-.223-.12-2.18-.144-3.85-.04-1.322.08-1.745.028-3.118-.356-.801-.223-1.27-.406-1.362-.532-.023-.029-.269-.137-.544-.235-.28-.103-.56-.223-.623-.28a3.763 3.763 0 00-.43-.258c-.171-.091-.268-.166-.211-.166.051 0 .097-.04.097-.086 0-.045-.034-.063-.08-.034-.12.074-.389-.034-.389-.16 0-.063-.029-.103-.057-.098-.08.023-.921-.47-1.036-.606-.051-.064-.126-.115-.166-.115-.085 0-1.527-1.093-1.716-1.305a.572.572 0 01-.137-.218.069.069 0 00-.086-.057c-.04.011-.069-.012-.069-.046 0-.069-1.224-1.007-1.785-1.362-.189-.12-.309-.247-.269-.275.155-.109.498-.619.498-.745 0-.074.057-.217.126-.32.137-.206.126-.447-.052-1.385l-.097-.527.212-.223c.2-.207.211-.264.189-.756l-.029-.533.257-.12c.252-.12.487-.446.487-.675 0-.063-.258-.47-.572-.905a52.284 52.284 0 01-.63-.887c-.057-.098.75-1.569.916-1.678.051-.034.063-.057.034-.057-.063 0 1.55-2.822 1.648-2.885.034-.023.074-.098.091-.166.017-.07.412-.796.887-1.615l.858-1.494 5.298-.017c2.912-.012 5.664-.006 6.11.011.556.017.796 0 .762-.057a.093.093 0 01.028-.132c.138-.086.086-.194-.097-.206-.132-.006-.143-.017-.04-.046.131-.034.166-.114.143-.314-.006-.052.023-.098.069-.098.143 0 .091-.149-.115-.326-.189-.16-.189-.178-.057-.32.097-.115.109-.161.04-.19-.149-.051-.114-.189.04-.16.074.012.126-.023.114-.074-.011-.052.018-.098.07-.098.05 0 .068-.074.04-.183-.03-.12-.006-.223.068-.28a.354.354 0 00.114-.235c0-.075.04-.155.092-.172.057-.017.069-.069.023-.143a.369.369 0 01-.046-.246c.023-.155-.258-.292-.618-.292-.177 0-.229-.034-.229-.155 0-.171-.211-.309-.48-.32-.098-.006-.138-.023-.086-.046.229-.092.068-.16-.218-.098-.36.08-.463.046-.463-.171 0-.086-.057-.178-.126-.2-.097-.035-.114-.115-.08-.338.034-.207.011-.321-.069-.39-.063-.051-.177-.07-.114-.263 0-.166-.486-.945-.801-1.277-.092-.097-.229-.177-.31-.177-.08 0-.182-.086-.234-.195-.063-.137-.148-.194-.303-.194-.12 0-.235-.035-.263-.075-.023-.04-.155-.097-.292-.126-.252-.057-.566-.366-.566-.567 0-.183-.252-.297-.412-.2-.212.132-.641.046-.641-.132 0-.08-.103-.263-.235-.412-.125-.149-.234-.315-.234-.378 0-.171-.166-.297-.395-.297-.24 0-.412-.166-.578-.573-.068-.16-.206-.332-.315-.378-.137-.063-.194-.149-.194-.297 0-.275-.183-.418-.51-.413-.165.006-.308-.045-.394-.143a.493.493 0 00-.315-.149c-.097 0-.2-.034-.228-.08-.035-.051.675-.08 2.06-.08h2.11V4.185c0-.744.023-1.987.052-2.77L13.233 0h16.97v2.359c0 1.568-.109 4.74-.32 9.44-.178 3.893-.298 7.134-.275 7.197.057.143.24.143.377 0 .07-.07.15-.086.212-.046.057.034.35.046.658.023.338-.023.687 0 .904.057.195.057.463.091.595.08.137-.011.269.017.298.063.028.046.206.086.4.086.195 0 .475.051.63.114.348.143.32.15.36-.057.023-.126.034-.109.046.075.011.297.291.584.772.801.32.143.406.258.258.35-.04.022-.092 0-.11-.052-.022-.052-.04-.029-.045.057-.006.24.109.366.315.338.114-.017.194-.086.211-.184a.482.482 0 01.12-.234c.12-.103.287-.584.287-.836 0-.189.017-.2.309-.16.383.051.394-.04.04-.28-.15-.104-.275-.218-.275-.253 0-.034-.143-.16-.309-.275-.172-.114-.309-.257-.309-.32 0-.166.303-.052.624.24.515.464.91.739 1.413.962.274.126.68.39.904.584.217.195.435.366.48.384.046.017.063.103.04.2-.028.12-.148.2-.394.275-.218.063-.378.166-.412.257-.063.16-.687.779-1.55 1.523-.275.235-.544.475-.602.527-.057.051-.125.097-.16.097-.034 0-.286.224-.572.493-.28.269-.738.624-1.018.79-.715.418-1.408.979-2.22 1.809-.56.572-.813.767-1.259.973-.475.218-.549.28-.486.395.206.384-.057 1.11-.43 1.202-.262.069-.257.315.024.659.12.148.263.389.309.532.051.143.143.303.211.355.098.069.103.132.04.31-.045.12-.08.389-.08.6v.384l-.337-.046c-.32-.046-.355-.029-.67.286a5.2 5.2 0 00-.452.516c-.063.097-.183.183-.268.183-.115 0-.15.057-.15.286 0 .27-.005.28-.142.155-.19-.172-.304-.16-.407.034-.068.126-.14.177-.308.114a.698.698 0 00-.441.063.682.682 0 01-.492.046c-.338-.074-.498.086-.44.447.022.131 0 .28-.046.326-.126.126-.012.326.177.326.143 0 .154.018.063.12-.086.104-.063.15.149.321l.251.2-.234.144c-.132.08-.355.137-.504.131-.4-.017-.95.458-1.012.876a1.066 1.066 0 01-.264.533c-.188.194-.257.217-.6.194-.212-.017-.475-.028-.578-.034-.132-.006-.275.092-.47.315a2.883 2.883 0 01-.669.532c-.269.143-.434.298-.532.504-.08.16-.189.292-.246.292-.194 0-.406.384-.463.819-.063.515-.126.532-.79.2h-.005z" fill="#090"/><path d="M14.118 27.059c2.529-4.167 9.174.833-.028 7.336-9.146-6.503-2.474-11.503.028-7.336z" fill="#D50B0B"/></svg>