<svg xmlns="http://www.w3.org/2000/svg" width="658" height="699"><style>.a{fill:#090;}</style><rect width="100" height="100" fill="none"/><g class="currentLayer"><title>  Layer 1</title><g class="a"><path d="m334.9 694.8c-15.3-7.6-34-15.4-44.4-18.5 -5.7-1.7-11.9-3.9-13.6-4.9 -3.9-2.1-38.1-2.5-67.3-0.7 -23.1 1.4-30.5 0.5-54.5-6.2 -14-3.9-22.2-7.1-23.8-9.3 -0.4-0.5-4.7-2.4-9.5-4.1 -4.9-1.8-9.8-3.9-10.9-4.9 -1.1-0.9-4.5-2.9-7.5-4.5 -3-1.6-4.7-2.9-3.7-2.9 0.9 0 1.7-0.7 1.7-1.5 0-0.8-0.6-1.1-1.4-0.6 -2.1 1.3-6.8-0.6-6.8-2.8 0-1.1-0.5-1.8-1-1.7 -1.4 0.4-16.1-8.2-18.1-10.6 -0.9-1.1-2.2-2-2.9-2 -1.5 0-26.7-19.1-30-22.8 -1.2-1.3-2.3-3-2.4-3.8 -0.1-0.7-0.8-1.2-1.5-1 -0.7 0.2-1.2-0.2-1.2-0.8 0-1.2-21.4-17.6-31.2-23.8 -3.3-2.1-5.4-4.3-4.7-4.8 2.7-1.9 8.7-10.8 8.7-13 0-1.3 1-3.8 2.2-5.6 2.4-3.6 2.2-7.8-0.9-24.2l-1.7-9.2 3.7-3.9c3.5-3.6 3.7-4.6 3.3-13.2l-0.5-9.3 4.5-2.1c4.4-2.1 8.5-7.8 8.5-11.8 0-1.1-4.5-8.2-10-15.8 -5.5-7.6-10.4-14.6-11-15.5 -1-1.7 13.1-27.4 16-29.3 0.9-0.6 1.1-1 0.6-1 -1.1 0 27.1-49.3 28.8-50.4 0.6-0.4 1.3-1.7 1.6-2.9 0.3-1.2 7.2-13.9 15.5-28.2l15-26.1 92.6-0.3c50.9-0.2 99-0.1 106.8 0.2 9.7 0.3 13.9 0 13.3-1 -0.5-0.8-0.3-1.8 0.5-2.3 2.4-1.5 1.5-3.4-1.7-3.6 -2.3-0.1-2.5-0.3-0.7-0.8 2.3-0.6 2.9-2 2.5-5.5 -0.1-0.9 0.4-1.7 1.2-1.7 2.5 0 1.6-2.6-2-5.7 -3.3-2.8-3.3-3.1-1-5.6 1.7-2 1.9-2.8 0.7-3.3 -2.6-0.9-2-3.3 0.7-2.8 1.3 0.2 2.2-0.4 2-1.3 -0.2-0.9 0.3-1.7 1.2-1.7 0.9 0 1.2-1.3 0.7-3.2 -0.5-2.1-0.1-3.9 1.2-4.9 1.1-0.9 2-2.8 2-4.1 0-1.3 0.7-2.7 1.6-3 1-0.3 1.2-1.2 0.4-2.5 -0.7-1.1-1.1-3-0.8-4.3 0.4-2.7-4.5-5.1-10.8-5.1 -3.1 0-4-0.6-4-2.7 0-3-3.7-5.4-8.4-5.6 -1.7-0.1-2.4-0.4-1.5-0.8 4-1.6 1.2-2.8-3.8-1.7 -6.3 1.4-8.1 0.8-8.1-3 0-1.5-1-3.1-2.2-3.5 -1.7-0.6-2-2-1.4-5.9 0.6-3.6 0.2-5.6-1.2-6.8 -1.1-0.9-2-3-2-4.6 0-2.9-8.5-16.5-14-22.3 -1.6-1.7-4-3.1-5.4-3.1 -1.4 0-3.2-1.5-4.1-3.4 -1.1-2.4-2.6-3.4-5.3-3.4 -2.1 0-4.1-0.6-4.6-1.3 -0.4-0.7-2.7-1.7-5.1-2.2 -4.4-1-9.9-6.4-9.9-9.9 0-3.2-4.4-5.2-7.2-3.5 -3.7 2.3-11.2 0.8-11.2-2.3 0-1.4-1.8-4.6-4.1-7.2 -2.2-2.6-4.1-5.5-4.1-6.6 0-3-2.9-5.2-6.9-5.2 -4.2 0-7.2-2.9-10.1-10 -1.2-2.8-3.6-5.8-5.5-6.6 -2.4-1.1-3.4-2.6-3.4-5.2 0-4.8-3.2-7.3-8.9-7.2 -2.9 0.1-5.4-0.8-6.9-2.5 -1.3-1.4-3.7-2.6-5.5-2.6 -1.7 0-3.5-0.6-4-1.4 -0.6-0.9 11.8-1.4 36-1.4l36.9 0 0-23.6c0-13 0.4-34.7 0.9-48.4l0.9-24.7 148.3 0 148.3 0 0 41.2c0 27.4-1.9 82.8-5.6 164.9 -3.1 68-5.2 124.6-4.8 125.7 1 2.5 4.2 2.5 6.6 0 1.2-1.2 2.6-1.5 3.7-0.8 1 0.6 6.1 0.8 11.5 0.4 5.9-0.4 12 0 15.8 1 3.4 1 8.1 1.6 10.4 1.4 2.4-0.2 4.7 0.3 5.2 1.1 0.5 0.8 3.6 1.5 7 1.5 3.4 0 8.3 0.9 11 2 6.1 2.5 5.6 2.6 6.3-1 0.4-2.2 0.6-1.9 0.8 1.3 0.2 5.2 5.1 10.2 13.5 14 5.6 2.5 7.1 4.5 4.5 6.1 -0.7 0.4-1.6 0-1.9-0.9 -0.4-0.9-0.7-0.5-0.8 1 -0.1 4.2 1.9 6.4 5.5 5.9 2-0.3 3.4-1.5 3.7-3.2 0.3-1.5 1.2-3.3 2.1-4.1 2.1-1.8 5-10.2 5-14.6 0-3.3 0.3-3.5 5.4-2.8 6.7 0.9 6.9-0.7 0.7-4.9 -2.6-1.8-4.8-3.8-4.8-4.4 0-0.6-2.5-2.8-5.4-4.8 -3-2-5.4-4.5-5.4-5.6 0-2.9 5.3-0.9 10.9 4.2 9 8.1 15.9 12.9 24.7 16.8 4.8 2.2 11.9 6.8 15.8 10.2 3.8 3.4 7.6 6.4 8.4 6.7 0.8 0.3 1.1 1.8 0.7 3.5 -0.5 2.1-2.6 3.5-6.9 4.8 -3.8 1.1-6.6 2.9-7.2 4.5 -1.1 2.8-12 13.6-27.1 26.6 -4.8 4.1-9.5 8.3-10.5 9.2 -1 0.9-2.2 1.7-2.8 1.7 -0.6 0-5 3.9-10 8.6 -4.9 4.7-12.9 10.9-17.8 13.8 -12.5 7.3-24.6 17.1-38.8 31.6 -9.8 10-14.2 13.4-22 17 -8.3 3.8-9.6 4.9-8.5 6.9 3.6 6.7-1 19.4-7.5 21 -4.6 1.2-4.5 5.5 0.4 11.5 2.1 2.6 4.6 6.8 5.4 9.3 0.9 2.5 2.5 5.3 3.7 6.2 1.7 1.2 1.8 2.3 0.7 5.4 -0.8 2.1-1.4 6.8-1.4 10.5l0 6.7 -5.9-0.8c-5.6-0.8-6.2-0.5-11.7 5 -3.2 3.2-6.7 7.3-7.9 9 -1.1 1.7-3.2 3.2-4.7 3.2 -2 0-2.6 1-2.6 5 0 4.7-0.1 4.9-2.5 2.7 -3.3-3-5.3-2.8-7.1 0.6 -1.2 2.2-2.3 2.6-5.4 2 -2.3-0.5-5.5-0.1-7.7 1.1 -2.6 1.3-5.3 1.6-8.6 0.8 -5.9-1.3-8.7 1.5-7.7 7.8 0.4 2.3 0 4.9-0.8 5.7 -2.2 2.2-0.2 5.7 3.1 5.7 2.5 0 2.7 0.3 1.1 2.1 -1.5 1.8-1.1 2.6 2.6 5.6l4.4 3.5 -4.1 2.5c-2.3 1.4-6.2 2.4-8.8 2.3 -7-0.3-16.6 8-17.7 15.3 -0.5 3.2-2.4 7.1-4.6 9.3 -3.3 3.4-4.5 3.8-10.5 3.4 -3.7-0.3-8.3-0.5-10.1-0.6 -2.3-0.1-4.8 1.6-8.2 5.5 -2.7 3.1-8 7.3-11.7 9.3 -4.7 2.5-7.6 5.2-9.3 8.8 -1.4 2.8-3.3 5.1-4.3 5.1 -3.4 0-7.1 6.7-8.1 14.3 -1.1 9-2.2 9.3-13.8 3.5z" class="a"/><g class="a"><g class="a"><path d="m167 414h8.4l5.2-20.5c0.4-1.8 1-4.8 1.6-9 0.3 2.9 0.9 5.9 1.7 9.1l5.1 20.4h8.5l10.5-40.8h-7.5l-5.9 23.7c-0.8 3.1-1.3 6.1-1.6 8.9 -0.7-4.5-1.2-7.5-1.6-9.1l-5.7-23.4h-6.6l-5.9 23.7c-0.6 2.4-1.4 5.2-1.6 8.9 -0.7-4.5-1.2-7.5-1.6-9.1l-5.8-23.4h-7.5l10.5 40.8zm45.4 0h7v-29.4h-7v29.4zm0-34.2h7v-6.6h-7v6.6zm14.4 34.2h6.8v-9.5l3.4-4 6.5 13.5h7.6l-9.4-18.9 8.7-10.4h-7.7l-9 11.9v-23.3h-6.8v40.8l0 0zm28.1 0h7v-29.4h-7v29.4zm0-34.2h7v-6.6h-7v6.6zm21.2 31.4c2 2.4 4.1 3.4 7.1 3.4 6.3 0 11.2-5.8 11.2-15.2 0-9.1-4.8-15.2-11.4-15.2 -3.3 0-5.5 1.1-8 3.8l-0.7-3.2h-5v40h6.8c0 0 0-13.5 0-13.5zm-0.1-4.8v-14c1.7-1.7 3.3-2.6 5.2-2.6 3.9 0 6.2 3.3 6.2 9.4 0 6.2-2.4 9.6-6.2 9.6 -1.9 0-3.5-0.8-5.3-2.5zm46.5 1.8l-5.1-3.1c-1.6 2.6-3.4 3.8-6 3.8 -4.1 0-6.2-2.8-6.2-8.4h17.6c0-0.5 0.1-1 0.1-1.5 0-9.5-4.5-14.9-12.2-14.9 -7.6 0-12.3 5.6-12.3 15.3 0 9.6 4.7 15.2 12.4 15.2 5.4 0 9.5-2.2 11.7-6.3zm-17.2-12.7c0.3-4 2.2-6.2 5.4-6.2 3.3 0 5.3 2.3 5.3 6.2h-10.7zm40.9 15.4l0.7 3.1h5.4c-0.2-3.1-0.3-5.4-0.3-6.8v-33.9h-6.8v14.2c-2-2.4-4.1-3.4-7.1-3.4 -6.3 0-11.2 5.8-11.2 15.2 0 9.1 4.8 15.2 11.5 15.2 3.3 0 5.8-1.2 7.9-3.7zm-1-4.7c-1.7 1.7-3.3 2.5-5.2 2.5 -3.9 0-6.2-3.3-6.2-9.4 0-6.2 2.4-9.5 6.2-9.5 1.9 0 3.4 0.8 5.2 2.5 0 0 0 14 0 14zm14.2 7.8h7v-29.4h-7v29.4zm0-34.2h7v-6.6h-7v6.6zm29.6 34.2h6.6c-0.3-1.6-0.4-3-0.4-4v-17.3c0-5.4-3.9-8.7-10.8-8.7 -5 0-8.8 1.9-11.3 5.7l4.7 3c1.6-2.2 3.8-3.4 6.4-3.4 2.7 0 4.1 1.2 4.1 3.4v2.3c-11.2 1.4-16.7 4.9-16.7 11.4 0 4.9 2.9 7.8 7.8 7.8 3.1 0 6.1-1 8.7-2.9 0 0 0.6 2.6 0.6 2.6zm-0.8-14.3v6.3c-2.1 2.1-4.3 3.1-6.4 3.1 -2 0-3.1-1.2-3.1-3.1 0-3.5 3.1-5.3 9.6-6.2z" class="a"/></g><g class="a"><path d="m167 414h8.4l5.2-20.5c0.4-1.8 1-4.8 1.6-9 0.3 2.9 0.9 5.9 1.7 9.1l5.1 20.4h8.5l10.5-40.8h-7.5l-5.9 23.7c-0.8 3.1-1.3 6.1-1.6 8.9 -0.7-4.5-1.2-7.5-1.6-9.1l-5.7-23.4h-6.6l-5.9 23.7c-0.6 2.4-1.4 5.2-1.6 8.9 -0.7-4.5-1.2-7.5-1.6-9.1l-5.8-23.4h-7.5l10.5 40.8zm45.4 0h7v-29.4h-7v29.4zm0-34.2h7v-6.6h-7v6.6zm14.4 34.2h6.8v-9.5l3.4-4 6.5 13.5h7.6l-9.4-18.9 8.7-10.4h-7.7l-9 11.9v-23.3h-6.8v40.8l0 0zm28.1 0h7v-29.4h-7v29.4zm0-34.2h7v-6.6h-7v6.6zm21.2 31.4c2 2.4 4.1 3.4 7.1 3.4 6.3 0 11.2-5.8 11.2-15.2 0-9.1-4.8-15.2-11.4-15.2 -3.3 0-5.5 1.1-8 3.8l-0.7-3.2h-5v40h6.8c0 0 0-13.5 0-13.5zm-0.1-4.8v-14c1.7-1.7 3.3-2.6 5.2-2.6 3.9 0 6.2 3.3 6.2 9.4 0 6.2-2.4 9.6-6.2 9.6 -1.9 0-3.5-0.8-5.3-2.5zm46.5 1.8l-5.1-3.1c-1.6 2.6-3.4 3.8-6 3.8 -4.1 0-6.2-2.8-6.2-8.4h17.6c0-0.5 0.1-1 0.1-1.5 0-9.5-4.5-14.9-12.2-14.9 -7.6 0-12.3 5.6-12.3 15.3 0 9.6 4.7 15.2 12.4 15.2 5.4 0 9.5-2.2 11.7-6.3zm-17.2-12.7c0.3-4 2.2-6.2 5.4-6.2 3.3 0 5.3 2.3 5.3 6.2h-10.7zm40.9 15.4l0.7 3.1h5.4c-0.2-3.1-0.3-5.4-0.3-6.8v-33.9h-6.8v14.2c-2-2.4-4.1-3.4-7.1-3.4 -6.3 0-11.2 5.8-11.2 15.2 0 9.1 4.8 15.2 11.5 15.2 3.3 0 5.8-1.2 7.9-3.7zm-1-4.7c-1.7 1.7-3.3 2.5-5.2 2.5 -3.9 0-6.2-3.3-6.2-9.4 0-6.2 2.4-9.5 6.2-9.5 1.9 0 3.4 0.8 5.2 2.5 0 0 0 14 0 14zm14.2 7.8h7v-29.4h-7v29.4zm0-34.2h7v-6.6h-7v6.6zm29.6 34.2h6.6c-0.3-1.6-0.4-3-0.4-4v-17.3c0-5.4-3.9-8.7-10.8-8.7 -5 0-8.8 1.9-11.3 5.7l4.7 3c1.6-2.2 3.8-3.4 6.4-3.4 2.7 0 4.1 1.2 4.1 3.4v2.3c-11.2 1.4-16.7 4.9-16.7 11.4 0 4.9 2.9 7.8 7.8 7.8 3.1 0 6.1-1 8.7-2.9 0 0 0.6 2.6 0.6 2.6zm-0.8-14.3v6.3c-2.1 2.1-4.3 3.1-6.4 3.1 -2 0-3.1-1.2-3.1-3.1 0-3.5 3.1-5.3 9.6-6.2z" class="a"/></g><g class="a"><path d="M163.2 600.6H192.9V475.7c-11.8 0-23.1 0.8-33.1 2.1V455.5c17.3-3.4 32.3-8.4 44.6-15.5h21.8v160.6h29.7v26.8H163.2v-26.8z" class="a"/></g><g class="a"><path d="m330.2 439.1c44.9 0 68.5 30.8 68.5 95.7 0 64.8-23.6 94.8-68.5 94.8 -44.9 0-68.5-30-68.5-94.8 0-64.8 23.6-95.7 68.5-95.7zm0 161.1c22.6 0 34.4-19.8 34.4-65.4 0-45.7-11.8-66.5-34.4-66.5 -22.3 0-34.6 20.9-34.6 66.5 0 45.7 12.3 65.4 34.6 65.4z" class="a"/></g><g class="a"><path d="m167 414h8.4l5.2-20.5c0.4-1.8 1-4.8 1.6-9 0.3 2.9 0.9 5.9 1.7 9.1l5.1 20.4h8.5l10.5-40.8h-7.5l-5.9 23.7c-0.8 3.1-1.3 6.1-1.6 8.9 -0.7-4.5-1.2-7.5-1.6-9.1l-5.7-23.4h-6.6l-5.9 23.7c-0.6 2.4-1.4 5.2-1.6 8.9 -0.7-4.5-1.2-7.5-1.6-9.1l-5.8-23.4h-7.5l10.5 40.8zm45.4 0h7v-29.4h-7v29.4zm0-34.2h7v-6.6h-7v6.6zm14.4 34.2h6.8v-9.5l3.4-4 6.5 13.5h7.6l-9.4-18.9 8.7-10.4h-7.7l-9 11.9v-23.3h-6.8v40.8l0 0zm28.1 0h7v-29.4h-7v29.4zm0-34.2h7v-6.6h-7v6.6zm21.2 31.4c2 2.4 4.1 3.4 7.1 3.4 6.3 0 11.2-5.8 11.2-15.2 0-9.1-4.8-15.2-11.4-15.2 -3.3 0-5.5 1.1-8 3.8l-0.7-3.2h-5v40h6.8c0 0 0-13.5 0-13.5zm-0.1-4.8v-14c1.7-1.7 3.3-2.6 5.2-2.6 3.9 0 6.2 3.3 6.2 9.4 0 6.2-2.4 9.6-6.2 9.6 -1.9 0-3.5-0.8-5.3-2.5zm46.5 1.8l-5.1-3.1c-1.6 2.6-3.4 3.8-6 3.8 -4.1 0-6.2-2.8-6.2-8.4h17.6c0-0.5 0.1-1 0.1-1.5 0-9.5-4.5-14.9-12.2-14.9 -7.6 0-12.3 5.6-12.3 15.3 0 9.6 4.7 15.2 12.4 15.2 5.4 0 9.5-2.2 11.7-6.3zm-17.2-12.7c0.3-4 2.2-6.2 5.4-6.2 3.3 0 5.3 2.3 5.3 6.2h-10.7zm40.9 15.4l0.7 3.1h5.4c-0.2-3.1-0.3-5.4-0.3-6.8v-33.9h-6.8v14.2c-2-2.4-4.1-3.4-7.1-3.4 -6.3 0-11.2 5.8-11.2 15.2 0 9.1 4.8 15.2 11.5 15.2 3.3 0 5.8-1.2 7.9-3.7zm-1-4.7c-1.7 1.7-3.3 2.5-5.2 2.5 -3.9 0-6.2-3.3-6.2-9.4 0-6.2 2.4-9.5 6.2-9.5 1.9 0 3.4 0.8 5.2 2.5 0 0 0 14 0 14zm14.2 7.8h7v-29.4h-7v29.4zm0-34.2h7v-6.6h-7v6.6zm29.6 34.2h6.6c-0.3-1.6-0.4-3-0.4-4v-17.3c0-5.4-3.9-8.7-10.8-8.7 -5 0-8.8 1.9-11.3 5.7l4.7 3c1.6-2.2 3.8-3.4 6.4-3.4 2.7 0 4.1 1.2 4.1 3.4v2.3c-11.2 1.4-16.7 4.9-16.7 11.4 0 4.9 2.9 7.8 7.8 7.8 3.1 0 6.1-1 8.7-2.9 0 0 0.6 2.6 0.6 2.6zm-0.8-14.3v6.3c-2.1 2.1-4.3 3.1-6.4 3.1 -2 0-3.1-1.2-3.1-3.1 0-3.5 3.1-5.3 9.6-6.2z" class="a"/></g><g class="a"><path d="m167 414h8.4l5.2-20.5c0.4-1.8 1-4.8 1.6-9 0.3 2.9 0.9 5.9 1.7 9.1l5.1 20.4h8.5l10.5-40.8h-7.5l-5.9 23.7c-0.8 3.1-1.3 6.1-1.6 8.9 -0.7-4.5-1.2-7.5-1.6-9.1l-5.7-23.4h-6.6l-5.9 23.7c-0.6 2.4-1.4 5.2-1.6 8.9 -0.7-4.5-1.2-7.5-1.6-9.1l-5.8-23.4h-7.5l10.5 40.8zm45.4 0h7v-29.4h-7v29.4zm0-34.2h7v-6.6h-7v6.6zm14.4 34.2h6.8v-9.5l3.4-4 6.5 13.5h7.6l-9.4-18.9 8.7-10.4h-7.7l-9 11.9v-23.3h-6.8v40.8l0 0zm28.1 0h7v-29.4h-7v29.4zm0-34.2h7v-6.6h-7v6.6zm21.2 31.4c2 2.4 4.1 3.4 7.1 3.4 6.3 0 11.2-5.8 11.2-15.2 0-9.1-4.8-15.2-11.4-15.2 -3.3 0-5.5 1.1-8 3.8l-0.7-3.2h-5v40h6.8c0 0 0-13.5 0-13.5zm-0.1-4.8v-14c1.7-1.7 3.3-2.6 5.2-2.6 3.9 0 6.2 3.3 6.2 9.4 0 6.2-2.4 9.6-6.2 9.6 -1.9 0-3.5-0.8-5.3-2.5zm46.5 1.8l-5.1-3.1c-1.6 2.6-3.4 3.8-6 3.8 -4.1 0-6.2-2.8-6.2-8.4h17.6c0-0.5 0.1-1 0.1-1.5 0-9.5-4.5-14.9-12.2-14.9 -7.6 0-12.3 5.6-12.3 15.3 0 9.6 4.7 15.2 12.4 15.2 5.4 0 9.5-2.2 11.7-6.3zm-17.2-12.7c0.3-4 2.2-6.2 5.4-6.2 3.3 0 5.3 2.3 5.3 6.2h-10.7zm40.9 15.4l0.7 3.1h5.4c-0.2-3.1-0.3-5.4-0.3-6.8v-33.9h-6.8v14.2c-2-2.4-4.1-3.4-7.1-3.4 -6.3 0-11.2 5.8-11.2 15.2 0 9.1 4.8 15.2 11.5 15.2 3.3 0 5.8-1.2 7.9-3.7zm-1-4.7c-1.7 1.7-3.3 2.5-5.2 2.5 -3.9 0-6.2-3.3-6.2-9.4 0-6.2 2.4-9.5 6.2-9.5 1.9 0 3.4 0.8 5.2 2.5 0 0 0 14 0 14zm14.2 7.8h7v-29.4h-7v29.4zm0-34.2h7v-6.6h-7v6.6zm29.6 34.2h6.6c-0.3-1.6-0.4-3-0.4-4v-17.3c0-5.4-3.9-8.7-10.8-8.7 -5 0-8.8 1.9-11.3 5.7l4.7 3c1.6-2.2 3.8-3.4 6.4-3.4 2.7 0 4.1 1.2 4.1 3.4v2.3c-11.2 1.4-16.7 4.9-16.7 11.4 0 4.9 2.9 7.8 7.8 7.8 3.1 0 6.1-1 8.7-2.9 0 0 0.6 2.6 0.6 2.6zm-0.8-14.3v6.3c-2.1 2.1-4.3 3.1-6.4 3.1 -2 0-3.1-1.2-3.1-3.1 0-3.5 3.1-5.3 9.6-6.2z" class="a"/></g><g class="a"><path d="M163.2 600.6H192.9V475.7c-11.8 0-23.1 0.8-33.1 2.1V455.5c17.3-3.4 32.3-8.4 44.6-15.5h21.8v160.6h29.7v26.8H163.2v-26.8z" class="a"/></g><g class="a"><path d="m330.2 439.1c44.9 0 68.5 30.8 68.5 95.7 0 64.8-23.6 94.8-68.5 94.8 -44.9 0-68.5-30-68.5-94.8 0-64.8 23.6-95.7 68.5-95.7zm0 161.1c22.6 0 34.4-19.8 34.4-65.4 0-45.7-11.8-66.5-34.4-66.5 -22.3 0-34.6 20.9-34.6 66.5 0 45.7 12.3 65.4 34.6 65.4z" class="a"/></g><rect y="-331.2" x="-19.2" height="10.8" width="287.1" transform="matrix(0.83051584 0 0 0.83051584 173.72194 604.60324)" class="a"/><rect width="287.1" height="10.8" x="-19.2" y="-313.2" transform="matrix(0.83051584 0 0 0.83051584 173.72194 604.60324)" class="a"/></g></g><rect x="150" y="321" width="260" height="315" style="fill:#090;stroke-linejoin:round;stroke-width:2"/><path d="M188.5 478.2C216.3 399.1 325.4 478.2 188.5 579.9 51.6 478.2 160.7 399.1 188.5 478.2z" class="selected" style="fill:#d50b0b;marker-end:;marker-mid:;marker-start:;stroke-linejoin:round;stroke-width:2"/></g></svg>
