<?xml version="1.0" encoding="utf-8"?>
<!-- Generator: Adobe Illustrator 18.1.1, SVG Export Plug-In . SVG Version: 6.00 Build 0)  -->
<svg version="1.1" xmlns="http://www.w3.org/2000/svg" xmlns:xlink="http://www.w3.org/1999/xlink" x="0px" y="0px"
	 viewBox="0 0 600 500" enable-background="new 0 0 600 500" xml:space="preserve">
<g id="Layer_3">
	<g>
		<g>
			<path fill="#8DC63F" d="M227.4,383.8c1.2-9.1-0.3-18.2,0.3-27.3c0-0.7,0.1-1.4,0.2-2.1c-0.2,1.6-0.2,1.5,0.1-0.2
				c0.2-0.9,0.4-1.9,0.7-2.8c0.6-1.5,0.6-1.8,0.2-0.9c-0.4,0.9-0.3,0.6,0.4-0.8c0.4-0.8,0.9-1.6,1.4-2.4c-2,2.8,3.3-2.1,0.5-0.3
				c6.8-4.4,9.6-13.3,5.4-20.5c-3.9-6.7-13.7-9.8-20.5-5.4c-9.5,6.2-15.5,15.9-17.4,27.1c-1.9,11.8,0.3,23.7-1.3,35.5
				c-1,7.8,7.6,15.3,15,15C221.4,398.4,226.3,392.1,227.4,383.8L227.4,383.8z"/>
		</g>
	</g>
	<g>
		<g>
			<path fill="#8DC63F" d="M233.2,302.3c0.1-8.3,0.2-16.5,0.4-24.8c0-1.5,0.3-3.6,0.1-5.1c-3.1,6.2-3.6,7.9-1.5,5c0.8-1,1.6-2,2.3-3
				c1.5-2.6,2.2-5.7,2.4-8.7c0.1-0.8,0-1.7-0.2-2.5c-0.6-5.5-0.7-5.3-0.5,0.6c-1.3,2.2-2.6,4.4-3.9,6.6c0.2-0.3,0.5-0.5,0.7-0.8
				c-2.2,1.3-4.4,2.6-6.6,3.9c-0.7,0-1.4,0-2.1,0c0.9-0.1,1.9-0.2,2.8-0.3c1.3-0.1,2.5-0.3,3.8-0.4c3.8-0.4,7.7-1,11.5-1.5
				c5.9-0.9,11.8-1.9,17.7-3.2c7.9-1.7,12.5-11,10.5-18.5c-2.3-8.2-10.5-12.2-18.5-10.5c-8.9,1.9-17.4,3.2-25.9,4.1
				c-5.9,0.6-10.9,1.3-15.1,5.8c-3,3.2-4.5,7.3-4.7,11.6c0,1.7,0.2,3.4,0.6,5.1c-0.3-1-0.3-2.1,0-3.1c1.3-2.2,2.6-4.4,3.9-6.6
				c-2.8,3.6-5.4,6.5-6.6,11c-1,3.9-0.7,8.2-0.8,12.2c-0.1,7.6-0.2,15.3-0.3,22.9c-0.1,7.8,7,15.4,15,15
				C226.4,317,233.1,310.7,233.2,302.3L233.2,302.3z"/>
		</g>
	</g>
	<g>
		<g>
			<path fill="#8DC63F" d="M273.2,275.5c2.3-8.2,0.8-16.3-1.4-24.3c-0.4-1.4-0.8-2.9-1.2-4.3c-0.1-0.4-0.7-3.4-0.4-1.6
				c0.2,1.6,0-0.7,0-0.8c0-0.2,0.3-2.4,0-0.8c-0.3,1.7,0.3-0.7,0.3-0.8c-0.8,1.1,0.1,0,0.7-0.6c-1.1,1,0.4-0.4,0.7-0.7
				c11.2-12.4,17.2-27.4,21.9-43.2c4.8-16.3,9.5-32.8,10.9-49.8c1.4-17.2-3.2-33.9-4.2-50.3c-0.1-1.6,0.4-4.6-0.2-6
				c-1.5,1.5-3,3.1-4.6,4.6c-5.5,3.4-6.6,5-3.2,4.6c1,0.2,2.3,0.2,3.3,0.2c4.9,0.4,9.7,0.8,14.6,1.1c10,0.8,20.1,1.6,30.1,2.3
				c-5-5-10-10-15-15c0.1,6-2.6,14-4.5,21.1c-2.1,8.1-4.3,16.2-6.5,24.2c-4.3,15.8-8.6,31.7-13.2,47.4
				c-9.2,31.8-19.3,63.4-31.1,94.3c8.4-2.2,16.7-4.4,25.1-6.6c-0.7-0.6-3.7-4.3-2.5-2.4c-0.5-0.8-1-1.7-1.4-2.6
				c0.6,1.3,0.5,1.1-0.1-0.6c-0.3-1-0.5-1.9-0.7-2.9c0.2,1.5,0.2,1.4,0-0.5c0-1.5-0.1-3,0.1-4.5c-0.2,1-0.2,0.6,0.2-1.3
				c0.2-1.2,0.5-2.3,0.8-3.4c0.6-2.3,1.4-4.6,2.3-6.8c0.8-2.1,2.9-6.4,4.4-9.3c7.9-15.9,16.6-31.3,24.2-47.3
				c7.6-16.1,14.3-32.9,17.2-50.6c1.6-10,3.6-21.3-1.9-30.5c-5.7-9.7-16.9-12.4-27.4-11.8c-8.4,0.5-14.6,6.5-15,15
				c-1,22.3-0.2,44.2-7.1,64.9c-0.4,1.1-0.8,2.3-1.2,3.4c-0.2,0.6-0.4,1.1-0.7,1.7c0.5-1.1,0.5-1.1,0-0.2c-1,2-2,4-3.1,5.9
				c-1.1,1.9-2.4,3.8-3.7,5.6c-1.5,2.1,2.2-2.3-0.9,1.1c-0.7,0.7-1.3,1.5-2,2.2c-1.7,1.8-3.5,3.5-5.4,5c1.2-1,0.2-0.2-0.5,0.3
				c-1,0.7-2,1.3-3.1,1.9c-0.8,0.5-1.7,0.9-2.5,1.4c-0.8,0.4-3,1.2-1.1,0.5c-2.3,0.8-4.6,1.4-7,1.9c6.2,6.2,12.3,12.3,18.5,18.5
				c1.3-6.7,2.3-13.4,3-20.2c0.8-7.8,1-15.2-5.1-21.1c-4.8-4.6-11.9-4.8-18-6.6c-4-1.2,1.3,0.9-2.4-0.9c-1-0.5-1.9-1-2.9-1.5
				c-1.4-0.8-2.8-1.7-4.1-2.6c-0.4-0.3-0.9-0.6-1.3-0.9c0.8,0.6,0.8,0.6,0.1,0c-3.3-3.2,0.9,1.3,0.2,1.5c0,0.2,0,0.3,0,0.5
				c-0.1-1.3-0.2-2.5-0.4-3.8c-0.5-3.7-1.5-7.1-3.5-10.3c-1.6-2.6-3.7-4.9-6-6.9c-1.5-1.3-3.1-2.4-4.7-3.6c-2.2-1.7,0.5,0.6-0.8-0.7
				c-0.9-0.8-1.7-1.7-2.6-2.5c-1.7-1.8,0,0.3-0.7-1c-0.6-1-1.2-2.1-1.8-3.1c0.9,1.8-0.1-0.2-0.4-1.1c-0.4-1.2-0.6-2.3-0.9-3.5
				c-0.7-2.7-0.1,0.6-0.1-1c0-1.2,0-2.4,0-3.6c-0.1,2.6,0.2-0.9,0.4-1.7c3.4-14.3-14.2-25.4-25.1-14.6c-0.2,0.2-0.4,0.4-0.6,0.6
				c2.2-1.3,4.4-2.6,6.6-3.9c-0.3,0.1-0.6,0.1-0.9,0.2c2.7,0,5.3,0,8,0c-0.3-0.1-0.6-0.2-1-0.3c2.2,1.3,4.4,2.6,6.6,3.9
				c1,2.1,1.9,4.2,2.9,6.2c0-0.6,0-1.3,0.1-1.9c0.2-1.5,0.1-3.3,0.2-4.8c0.1-2.9,0.2-5.8,0.3-8.7c0.2-5.8,0.4-11.6,0.6-17.4
				c-2.5,4.3-5,8.6-7.4,13c-2.2,1,2-0.6,2.1-0.6c1.2-0.3,2.4-0.6,3.7-0.8c1.5-0.3-1.4,0,1.2-0.1c1.5,0,3-0.1,4.6-0.1
				c5.7,0,11.5,0.7,17.2,1.4c12.1,1.3,24.5,2.1,36.1-2c-3.9-9.1-7.7-18.3-11.6-27.4c-21,12.7-31.1,36.3-32.3,60.2
				c-0.7,13.8,1.7,27.7,4.6,41.1c1.2,5.5,2.3,11,5.4,15.7c5.2,7.8,14.4,11.5,23.3,8c13-5,15.5-23.3,17.4-35.4
				c2-12.8,3-25.9,1.7-38.8c-0.8-8.2-3-15.8-10.4-20.5c-5.6-3.5-13-4.8-19.2-6.7c-13.2-4-33.9-14.3-42.8,1.8
				c-3.4,6.2-3.5,14.7-3.8,21.6c-0.3,7.1,0.3,14.1,1.3,21.1c1.9,13.8,6.4,27,12.9,39.3c3.8,7.2,13.8,9.3,20.5,5.4
				c7.3-4.2,9.2-13.3,5.4-20.5c-4.4-8.4-7.7-18.2-9.4-28.8c-0.3-1.8-0.3-2.6-0.5-5.4c-0.2-2.6-0.3-5.1-0.2-7.7
				c0-2.9,0.1-5.7,0.4-8.6c0.1-1.1,0.4-2.3,0.4-3.4c-0.1,0.8-0.1,0.8,0.1,0.1c0.5-2-0.2-0.9-2,3.5c-2.2,1.3-4.4,2.6-6.6,3.9
				c0.5-0.1,1.1-0.1,1.6-0.2c-2.7,0-5.3,0-8,0c8.6,2,17.2,5.1,25.7,7.7c3,0.9,7.4,3.3,10.5,3.2c-4-1.4-5.9-3.6-5.8-6.8
				c0.1,1.2,0.2,2.4,0.3,3.7c0.1,1.8,0.2,3.7,0.3,5.5c0.1,4,0.1,8-0.1,11.9c-0.2,2.9-0.6,8.1-0.9,9.7c-0.6,4.2-1.5,8.5-2.5,12.6
				c-0.4,1.8-0.9,3.6-1.4,5.3c-0.3,1.2-0.7,2.3-1.1,3.5c1-2.4,2.8-4.2,5.6-5.2c2.7,0,5.3,0,8,0c2,0.8,3.6,2.1,4.8,3.8
				c-0.8-1.5-0.8-1.5,0,0.2c-0.6-2.3-1.1-4.5-1.5-6.8c-0.9-4.4-1.8-8.8-2.5-13.3c-1.3-7.8-1.7-17.2-0.8-25.6c0.1-1.3,0.1-1.3,0,0
				c0.2-1,0.3-2,0.6-3c0.4-2,0.9-4,1.5-5.9c1.3-4.2,1.1-3.8,3.2-7.7c1-1.8,2-3.5,3.2-5.1c1.6-2.4-0.8,0.5,1.4-1.7
				c1.4-1.4,2.7-2.9,4.3-4.2c-1.1,0.8-0.9,0.6,0.5-0.4c0.8-0.6,1.7-1.1,2.5-1.6c6.3-3.8,9.1-11.9,6.1-18.7
				c-2.8-6.4-10.5-11.2-17.7-8.7c-1.5,0.5-2.9,1-4.4,1.3c-0.1,0-4.7,0.8-2,0.5c-2.8,0.3-5.6,0.3-8.5,0.2c-6-0.2-12-1-18-1.6
				c-13.7-1.4-26.4-0.8-39.1,4.9c-4.8,2.1-7.3,8.1-7.4,13c-0.4,10.6-0.9,21.2-1.1,31.8c-0.2,6.7,1.8,13.1,7.4,17.1
				c6.9,5,16.1,4.3,22.2-1.7c-8.4-4.9-16.7-9.7-25.1-14.6c-2.5,10.6-1.6,21.1,2.7,31c2.2,5.1,5.2,9.8,9.1,13.8
				c2,2.1,4.4,3.9,6.7,5.7c0.9,0.7,1.4,1.2,0.2,0.2c0.8,0.7,1.6,1.7,2.5,2.3c1.4,0.9-0.3-0.9-0.5-1.1c-1.1-0.9,0.7-1.4-0.2-0.1
				c-1.3,1.9,2,9.6,3,11.5c2.9,5.3,7.8,9.2,12.7,12.5c4.4,3,9.3,5.2,14.3,7.2c4.5,1.7,9.2,2.1,13.7,3.6c-2.2-1.3-4.4-2.6-6.6-3.9
				c0.3,0.2,0.5,0.4,0.8,0.6c-1.3-2.2-2.6-4.4-3.9-6.6c0-2-0.1-1.9-0.1,0.4c0,0.6-0.1,1.2-0.1,1.8c-0.2,2.1-0.4,4.2-0.6,6.3
				c-0.2,2-1,6.4-1.6,9.5c-2.3,11.6,6.8,20.7,18.5,18.5c24.1-4.7,41.4-24.8,50.1-46.7c9.7-24.4,8.9-52.2,10-78c-5,5-10,10-15,15
				c1.9-0.1,3.8-0.3,5.7-0.1c-1.7-0.2-1.6-0.2,0.1,0.2c-2-0.4-3.4-1.6-4-3.4c-0.7-0.7-1-1.6-0.8-2.5c0.1,1,0.1,2.1,0,3.1
				c-0.1,2.2-0.3,4.5-0.6,6.7c0.3-2.2-0.5,3-0.5,2.8c-0.4,2.2-0.9,4.5-1.4,6.7c-0.9,3.9-2,7.7-3.2,11.5c-4.8,15-11.6,28.3-19.2,43
				c-8,15.3-17.1,30.5-22.7,46.9c-5.8,17-4.2,38.4,10.3,50.8c9,7.7,20.9,4.3,25.1-6.6c12-31.5,22.3-63.7,31.6-96.2
				c4.6-16.1,9.1-32.2,13.4-48.4c2.2-8.1,4.3-16.2,6.5-24.2c2.3-8.6,4.9-17.3,4.8-26.2c-0.1-8.6-6.8-14.4-15-15
				c-9.4-0.7-18.8-1.5-28.2-2.2c-8.7-0.7-19.3-3.1-27.9-0.5c-22.3,6.9-12.5,38.2-10.6,53.6c2.3,18.4-0.4,33.7-5.4,51.3
				c-2.2,8-4.5,16.1-7.3,24c-1.4,4-1.7,4.7-3.7,8.5c-0.8,1.5-1.6,2.9-2.4,4.3c-0.6,0.9-1.2,1.8-1.8,2.7c-0.2,0.2-1.5,2-0.6,0.9
				c-7,8.7-13.7,16.7-12.5,28.7c0.5,4.8,1.6,9.4,2.9,14.1c0.2,0.7,0.4,1.4,0.6,2.2c0-0.1,0.9,4,0.6,2.3c-0.3-1.6,0,0.7,0,0.9
				c0.3,3.6,0.7-1.9-0.2,1.6c-2.1,7.6,2.6,16.7,10.5,18.5C262.6,287.8,270.9,283.6,273.2,275.5L273.2,275.5z"/>
		</g>
	</g>
	<g>
		<g>
			<path fill="#8DC63F" d="M318.6,340.2c-2.9-12.6,0.4-23.7,7.2-35.1c7.7-13,15.8-25,20.7-39.5c4.9-14.6,6.8-30.1,8.6-45.4
				c1.8-15.9,3.4-31.7,5.1-47.6c-10,0-20,0-30,0c0,1.4,0,2.8,0,4.1c0,7.8,6.9,15.4,15,15c8.2-0.4,14.9-6.6,15-15
				c0.4-29,0.8-58,1.3-87.1c0.1-7.8-7-15.4-15-15c-8.2,0.4-14.9,6.6-15,15c-0.4,29-0.8,58-1.3,87.1c10,0,20,0,30,0
				c0-1.4,0-2.8,0-4.1c0-7.8-6.9-15.4-15-15c-8.8,0.4-14.1,6.6-15,15c-1.7,16.2-3.4,32.3-5.2,48.5c-0.8,7.2-1.4,12-2.9,19.6
				c-1.5,7.4-3.4,14.8-6.2,21.9c-4.5,11-14.1,22.9-19.9,34.7c-7.9,16.1-10.2,33.3-6.2,50.9c1.8,7.9,10.9,12.6,18.5,10.5
				C316.3,356.4,320.4,348.1,318.6,340.2L318.6,340.2z"/>
		</g>
	</g>
	<g>
		<g>
			<path fill="#8DC63F" d="M309.9,205.1c2,23.6,1.7,46.3-6.6,68.4c-2,5.2-8.5,17-12.1,21.2c-3.3,3.9-6.8,7.5-10.7,10.8
				c-0.5,0.4-1.8,1.4-0.5,0.5c-1,0.8-2.1,1.5-3.1,2.2c-2.3,1.5-4.7,2.9-7.2,4.2c7.5,4.3,15,8.6,22.6,13c0.2-15.4,0.4-30.9,0.6-46.3
				c0.2-13.5,2.7-33.3-12.5-40.2c-7.3-3.3-16.2-2.2-20.5,5.4c-6.5,11.4-11.3,24.1-13.3,37.1c-1.2,7.6-2.9,16,0.9,23.1
				c5,9.6,16,12.3,25.3,7.5c-6.8-6.8-13.7-13.7-20.5-20.5c-17.9,28.7-33.1,59.8-43.3,92.1c-2.7,8.4-4.6,16.9-5.8,25.6
				c-1.3,9.7-2.1,20.1,5.5,27.6c8.4,8.3,22.3,6.3,29.3-2.5c6.9-8.5,5.4-20.6-2.7-27.9c-10.4-9.4-26-6.1-33.6,5.1
				c-7.3,10.9-3.4,23.8,4.3,33.1c5.2,6.2,15.8,5.4,21.2,0c6.2-6.2,5.2-15,0-21.2c0.9,1.1,0.6,2.6,0,3.8c-1.9,3.8-7.4,3.5-10.5,2.2
				c-4.4-2-5.4-6.2-2.8-12.7c1.8-1.4,3.6-2.9,5.4-4.3c7.4-0.2,11.7,2.1,12.7,6.9c0.2,1.1,0.3,0.8,0.2-0.8c0.2-1.2,0.2-2.5,0.3-3.7
				c0.2-2.1,0.6-4.4,1.1-7.1c2.5-12.5,6.9-24.6,11.6-36.4c8.7-22,20.2-44.2,33-64.8c3.5-5.6,2.3-13.6-2.3-18.2
				c-4.9-4.9-12.2-5.4-18.2-2.3c-0.4,0.2-0.7,0.4-1.1,0.5c2.5-0.7,5-1.4,7.6-2c-0.4,0-0.8,0-1.2-0.1c2.5,0.7,5,1.4,7.6,2
				c3.1,8.6,4.7,10.8,4.7,6.6c0-0.6,0.1-1.2,0.1-1.7c0.2-2.7-0.1-0.4,0.3-2.9c0.6-3.7,1.4-7.4,2.5-11.1c2-7.1,4-11.6,7.7-18
				c-6.8,1.8-13.7,3.6-20.5,5.4c2.7,1.2-1.7-2.4-2.3-3.2c-0.9-1.3,0.3,1.7-0.1-1c0.4,2.5,0.1,5.2,0.1,7.7
				c-0.1,6.2-0.2,12.5-0.2,18.7c-0.2,12.8-0.3,25.6-0.5,38.4c-0.1,11.8,12.7,18.1,22.6,13c21.9-11.4,37.1-31.5,46.3-54
				c10.1-24.9,11.1-52.8,8.8-79.2c-0.7-7.8-6.4-15.4-15-15C317.4,190.5,309.2,196.8,309.9,205.1L309.9,205.1z"/>
		</g>
	</g>
	<g>
		<g>
			<path fill="#8DC63F" d="M255,319.7c2,22.1-0.5,41.8-8.3,62.6c-2.8,7.6-7.9,18.2-13.1,24.5c-1.7,2-3.5,3.9-5.4,5.7
				c-0.8,0.7-1.6,1.4-2.4,2.1c-0.4,0.3-0.8,0.7-1.2,1c0.7-0.6,0.7-0.6-0.1,0c-1.9,1.4-3.9,2.6-6,3.8c-0.9,0.5-1.9,1-2.8,1.5
				c-4.1,2.2,2.1-0.7-2.2,1c-6,2.3-11.3,7.4-11,14.5c0.3,6.1,4.4,13.4,11,14.5c6.3,1,12.6,2,19,3c2.8,0.5,5.7,0.9,8.5,1.4
				c1.4,0.2,3.3,0.9,4.7,0.8c0.4,0.1,0.7,0.1,1.1,0.2c-1-0.5-2-1-3-1.7c-1.3-2.2-2.6-4.4-3.9-6.6c0.1,0.3,0.2,0.7,0.3,1
				c1.3-4.9,2.6-9.7,3.9-14.6c-0.2,0.2-0.4,0.4-0.6,0.6c3.5-1.5,7.1-2.9,10.6-4.4c-0.3,0-0.6-0.1-0.9-0.1c2.5,0.7,5,1.4,7.6,2
				c1.4,1.5,2.9,3,4.3,4.6c-0.4-1.9-0.5-2.4-0.2-1.4c-0.1-1.2-0.2-2.4-0.2-3.6c0-1.8,0.1-3.6,0.2-5.4c0,0.1,0.2-2.8,0.1-1.4
				c0.8-6.6,2.9-13.2,5-19.5c4-11.8,9-23.3,11.6-35.5c1.5-7.1,3.1-14.9,0.2-21.8c-3.7-9-13.4-13.1-22.7-10.8
				c-15.1,3.9-18,24.1-22.1,36.6c-4.3,13-10.1,26.3-11,40.1c-0.9,13,5.6,27,17.8,32.6c4.1,1.9,7.5,2.4,12,2.9
				c3.4,0.4,0.9,0.2,0.2-0.1c-1.7-0.9,2.1,1.4,1.9,1.3c7.6,4.5,16.2,4.9,23.8,0c10.2-6.6,15.6-21.1,20.3-31.8
				c12.1-27.2,19.4-55.6,21.9-85.2c0.8-8.9-10.3-18.1-19-14.5c-9.9,4.1-16.1,10.9-20.4,20.7c-4.3,9.8-8.2,19.8-12.3,29.7
				c-8,19.3-16,38.5-24,57.8c9.6,2.7,19.3,5.3,28.9,8c1.2-2.9,0.7-1.7,0.4-1c0.4-1,0.9-2,1.4-3c0.8-1.8,1.7-3.5,2.5-5.2
				c2-3.9,4.1-7.8,6.4-11.6c4.2-7.1,8.9-14.1,13.6-20.9c9.6-13.9,19.6-27.6,27.7-42.5c9.1-16.6,13.9-34.8,22.6-50.9
				c2-3.7,4.2-7.4,6.5-11c1.9-3.1,3.2-3.9-1.7-0.7c-0.7,0.4-1.9-0.2-0.7,0.3c1.2,0.4,3.1,0.1,4.4,0.2c8.6,0.4,16.1,1.2,24.5,3.7
				c-2.4-0.7-0.7-0.5,0,0.1c-2.4-1.3-3.5-3.3-3.4-5.9c-0.9-1.3-1-2.4-0.3-3.5c0.1-0.1,0.1-0.3,0.2-0.4c-0.3,0.7-0.7,1.4-1,2.1
				c-0.9,1.9-1.8,3.7-2.5,5.7c-0.7,1.8-1.2,3.6-1.7,5.4c-0.3,1.1-1.6,6.1-0.5,2.5c0.1-0.5,0.8-0.4,0.9-0.8c-1.5,0.8-1.8,1-1.1,0.6
				c0.5-0.3,0.4-0.3-0.5,0.1c-2.5,0.8-5.1,1.4-7.7,2.1c-5.3,1.4-10.7,2.7-16.1,4c6.2,6.2,12.3,12.3,18.5,18.5
				c1.3-5.3,1.7-5.9,4.7-10.5c0.3-0.5,1.5-1.8,0.5-0.6c0.7-0.8,1.4-1.5,2.1-2.3c0.9-0.9,1.8-1.8,2.8-2.6c2.1-1.7-2.7,1.8,1.3-0.8
				c6.8-4.5,9.6-13.3,5.4-20.5c-4-6.9-13.6-9.7-20.5-5.4c-22,13.7-40.5,32.9-52.9,55.6c-6.2,11.3-11.2,23.5-14.2,36
				c-2.3,9.2-4.4,18.9,4.2,25.5c4.5,3.5,10.3,4.4,15.8,3c2-0.5,4.1-1.3,5.9-2.4c0.6-0.3,1.2-0.7,1.7-1.2c1.6-1,1.7-1.1,0.3-0.2
				c-2.7,0-5.3,0-8,0c-1.3-0.7-1.4-0.8-0.4-0.3c0.8,0.4,1.6,0.8,2.4,1.1c2.2,0.9,4.5,1.5,7,1.3c4.8-0.3,9.2-2.3,12.7-5.7
				c0.6-0.6,1.2-1.3,1.8-2c2.1-2.6,0.3,0.2-0.5-0.1c-1,0.3-0.7,0.2,0.7-0.2c-0.4,0-0.9,0.1-1.3,0.1c0.5,0,0.9,0,1.4,0
				c-1.7-0.3-1.7-0.1,0,0.3c6.8,2.2,13.1-1.7,16.9-6.9c7.4-10.1-0.8-23.8-11.6-26.7c-0.7-0.1-1.3-0.3-2-0.4
				c-2.5-0.6-1.1,0.4,4.2,3.2c-0.3-1.2-1.7-3-2.3-4.1c0.9,2.1-0.5-1.9-0.7-2.3c-0.5-2.1-0.5-2-0.1,0.2c0.1-1.5,0-1.6,0-0.3
				c-0.2,5.4-4.6,8.1-13.3,7.9c-1.6-0.7-1.9-0.8-0.9-0.3c0.9,1.5,4.6,2.3,6.1,2.7c4.9,1.3,9.8,0.6,14-2.1c6-3.8,7.7-9.7,7.1-16.5
				c-0.2-1.8-0.3-3.6-0.5-5.4c-0.1-1.2-0.2-2.4-0.3-3.6c-0.1-1.8-0.1-1.6-0.1,0.5c-1.3,2.2-2.6,4.4-3.9,6.6c-1.5,1.4,0.1,0.3,1-0.1
				c1.5-0.6,3-1.4,4.4-2c2.6-1.2,5.3-2.4,7.9-3.7c5.3-2.4,10.6-4.9,15.9-7.3c7.4-3.4,9.2-14,5.4-20.5c-4.4-7.5-13.1-8.8-20.5-5.4
				c-9.7,4.5-19.5,8.8-29.1,13.5c-6.6,3.2-10.8,9.2-11.1,16.6c-0.2,4.7,0.8,9.7,1.2,14.3c2.5-4.3,5-8.6,7.4-13
				c0.7-0.3,1.3-0.5,2-0.8c2.7,0,5.3,0,8,0c-2.8-0.4,2.8,1.6-0.3-0.1c-1.8-1-3.8-1.9-5.7-2.5c-3.6-1.1-7.5-0.9-11,0.2
				c-8.7,2.7-13.7,11.8-13.7,20.5c0,7,2.6,13.9,5.9,20c2.1,3.8,4.7,7.3,8.3,9.7c1.8,1.2,3.9,2.2,6,2.8c0.4,0.1,0.9,0.2,1.3,0.3
				c2.7,0.7,1.8,0.1-2.5-1.7c-1.3-2.2-2.6-4.4-3.9-6.6c-0.1-0.7-0.1-1.4-0.2-2c0.7-2.5,1.4-5,2-7.6c-0.2,0.3-0.4,0.5-0.6,0.8
				c5.6-2.3,11.3-4.6,16.9-6.9c-5.7-1.9-12.3-1.9-17.9,0.2c-3.6,1.3-6.6,3-9.6,5.5c-0.7,0.6-1.4,1.2-2,1.9c-0.4,0.5-0.9,1-1.3,1.5
				c-0.8,0.8-0.6,0.7,0.5-0.5c2.5-0.7,5-1.4,7.6-2c-0.4,0-0.8,0-1.2,0c2.5,0.7,5,1.4,7.6,2c-5.3-2.6-9.9-4.5-16-2.9
				c-2.1,0.6-4.3,1.5-6.2,2.7c-4.2,2.6,2.1-0.2,4.2,0.6c2.2,1.3,4.4,2.6,6.6,3.9c-0.2-0.3-0.5-0.5-0.7-0.8c1.3,4.9,2.6,9.7,3.9,14.6
				c3.4-18.9,8.9-32.6,19.4-48.2c4.4-6.6,8.8-12,15.6-18.6c3.3-3.2,6.7-6.2,10.2-9.1c2.2-1.7-2.7,1.9,1.2-0.9
				c0.8-0.6,1.6-1.2,2.5-1.8c2.1-1.5,4.2-2.8,6.4-4.2c-5-8.6-10.1-17.3-15.1-25.9c-12.4,8.2-21.5,20.2-25.2,34.8
				c-2.8,11.3,7.3,21.2,18.5,18.5c10.7-2.6,23.8-4.2,33.1-10.2c5.9-3.8,9.4-9.3,11.7-15.8c0.7-2,1.2-4.1,1.8-6.1
				c0.1-0.4,1-2.5,0.1-0.4c0.6-1.4,1.4-2.8,2-4.2c6.6-14.7-0.4-28.7-15.6-33.2c-11.2-3.3-23.9-4.7-35.6-4.8
				c-6.4,0-12.9,1.4-17.6,6.1c-4.3,4.3-7.3,10.2-10.4,15.4c-6.1,10.4-10.6,21.5-14.9,32.7c-7.2,18.5-17.5,35.7-29.1,52.4
				c-13.7,19.9-27.3,39.4-36.3,61.9c-2.9,7.3,3.2,16.8,10.5,18.5c8.8,2,15.2-2.7,18.5-10.5c7-16.8,14-33.6,20.9-50.5
				c3.4-8.3,6.9-16.5,10.3-24.8c0.8-1.8,1.5-3.7,2.3-5.5c0.9-2.1,1-2.4,0.4-0.9c0.4-0.9,0.8-1.8,1.3-2.6c0.7-1.3,1.4-2.6,2.2-3.7
				c-0.9,1.2-0.8,1.1,0.4-0.2c-0.5,0.6-1.2,0.9-2,1c-6.3-4.8-12.7-9.6-19-14.5c-1.3,15.8-4.7,32.4-9.8,48.6
				c-2.6,8.1-5.5,16.1-8.7,23.1c-1.7,3.8-3.5,7.6-5.5,11.3c-1.1,2.1-2.2,4.2-3.4,6.3c-0.5,0.9-1.1,1.9-1.6,2.8
				c-0.9,1.4-1.1,1.6-0.6,0.8c0.1-3.9,13.6,2.1,8.7-1.8c-2-1.6-4.8-2.9-7.1-3.6c-2.4-0.8-4.4-1-7-1.3c-2-0.2-4.4-0.9-1.2,0.4
				c-1.5-0.9-1.6-0.9-0.3,0.1c-1.2-1.3-1.3-1.3-0.3-0.1c-0.4-0.6-2.7-3.5-0.8-1.4c-0.4-1.8-0.5-1.8-0.3-0.1
				c-0.1-1.2-0.1-2.5-0.1-3.7c0.1-1.7,0.3-2.3,0.8-4.3c2.3-9.1,5.7-18,8.6-26.9c1.4-4.4,2.9-8.8,4.3-13.1c0.8-2.5,1.7-5,2.5-7.5
				c0.6-1.7,0.6-1.8,0.1-0.4c-2.6,3.1-5.8,4.3-9.7,3.8c-2.2-1.3-4.4-2.6-6.6-3.9c-1.7-6.8-2.5-8.4-2.6-4.9c0.2-1,0.2-0.5-0.2,1.4
				c-0.4,2.4-0.9,4.7-1.5,7.1c-1.2,4.7-2.7,9.3-4.3,13.9c-3.3,9.2-7,18.3-9.4,27.8c-2.8,10.9-3.9,22-2.2,33.2
				c1,6.6,3.3,12.6,9.1,16.3c6.6,4.2,15.2,3.5,20.5-2.3c3.6-3.9,5.5-9.4,3.9-14.6c-3.4-10.9-12.2-13.3-22.2-14.9
				c-8.5-1.4-17.1-2.7-25.6-4.1c0,9.6,0,19.3,0,28.9c11.8-4.6,22.6-11.1,31.2-20.4c9.4-10.2,15.7-22.4,20.9-35.2
				c9.8-23.7,13.6-50,11.4-75.6c-0.7-7.8-6.4-15.4-15-15C262.5,305,254.3,311.3,255,319.7L255,319.7z"/>
		</g>
	</g>
	<g>
		<g>
			<path fill="#8DC63F" d="M98.8,307c-1.5,12.8,1.3,25.1,6.4,36.8c5.6-7.3,11.3-14.7,16.9-22c1.2,0.4,2.4,1,3.3,1.9
				c1.2,1.7,1.4,1.9,0.5,0.6c-0.5-0.9-1.1-1.9-1.7-2.8c-2.3-3.6-4.9-6.9-8.6-9.2c-4.8-3-10.1-3.5-15.6-2.4c-9.5,1.8,10.2-0.1,9.7,10
				c0,1.7-0.4,3.1-1.4,4.4c1.4-1.2,1.6-1.4,0.7-0.7c6.5-4.9,9.8-12.9,5.4-20.5c-3.9-6.6-13.8-10-20.5-5.4c-1.6,1.1-3.1,2.1-4.7,3.2
				c6.8,6.8,13.7,13.7,20.5,20.5c7.9-14.4,15.9-28.7,23.8-43.1c1-1.7,1.9-3.4,2.9-5.2c0.5-1,2.6-3.5,2.5-4.6c0.1,3-9.4,2.1-4.1,3.4
				c1.8,0.4,4.2,0.1,6,0.1c8.6,0.2,17.3,0.3,25.9,0.5c16,0.3,31.9,0.6,47.9,0.9c2,0,4,0.1,6,0.1c0.7,0,1.3,0,2,0
				c5.5,0.5,3.3-1.7-6.8-6.6c0,1.5,1.2,3.9,1.6,5.4c0.5,1.8,0.9,3.6,1.3,5.4c1.5,7.3,2,14.1,2.3,22c0.3,7.5,0.3,15,0.2,22.5
				c-0.1,3.7,0.1,5.4-1,8.6c-0.5,1.4-3.4,6-5.2,8.4c-2.9,3.8-8,10.3-11.8,15.1c-5.2,6.7-10.4,13.4-15.6,20c-2.2,2.8-4.6,5.6-6.8,8.5
				c-0.5,0.7-1,1.9-2,1.8c0.2,0,4.4-0.4,0.7-0.4c-0.5,0-1,0-1.4-0.1c1.6,0.2,1.5,0-0.3-0.4c2.3,1.7-1.7-1-1.8-1.1
				c2.2,1.5-1.6-1.5-1.6-1.6c-1.3-1.3-1.3-1.5-2.6-3.6c-3.6-5.8-6.3-12.2-9.5-18.2c-3.4-6.2-7.1-12.3-11.1-18.1
				c-5-7.4-10.5-14.5-16.3-21.3c-1.1-1.3-2.3-2.7-3.5-4c-0.7-0.8-1.4-1.6-2.1-2.4c0.8,1.2,0.8,1.1-0.2-0.4c0.3,1.2,0.7,2.4,1,3.6
				c-1.3,4-1.4,4.8-0.2,2.4c1.2-1.6,2.1-3.7,3.3-5.4c2.3-3.6,3.1-4.6,5.3-7c2.4-2.8,5-5.4,7.8-7.8c3.2-2.9,3.3-3,6.9-5.4
				c3.1-2,6.3-3.9,9.5-5.5c-7.5-4.3-15-8.6-22.6-13c1.2,11.5-6.4,23.7-10.4,35.4c-4.8,14.1-6.5,28.3-4.3,43c1,6.2,8.5,11.3,14.5,11
				c6-0.3,13.5-4.4,14.5-11c2-13.6,5.9-27,11.7-38.3c1.6-3.1,3.2-6.1,5-9.1c1.2-2,3.9-6.1,4.6-6.9c-0.6,0.8,1.8-2,2.2-2.4
				c0.5-0.5,1-1,1.6-1.5c-1,0.7-1,0.7-0.2,0.1c0.4-0.3,3.8-2.3,2.6-1.6c-0.9,0.4-0.6,0.4,0.9-0.1c-0.7,0.1-1.4,0.2-2,0.4
				c-2.2-1.3-4.4-2.6-6.6-3.9c-0.3-0.5-0.5-0.9-0.7-1.4c0.4,1.1,0.7,2.2,1,3.3c0.3,1.9,0.4,2.2,0.3,1c0.1,1.1,0.2,2.3,0.2,3.4
				c0,1.1,0,2.3-0.1,3.4c-0.2,1.9-0.2,2.3,0,1.2c-0.3,2.3-0.9,4.6-1.4,6.9c-2.2,8.8-5.5,17.2-8.2,25.8c-2.8,9-4.9,18.3-6.4,27.6
				c-1.8,11.1-3.4,22.9,5.7,31.5c7.5,7.1,17.9,5,23.6-3c9-12.8,10-30.8,4.8-45.3c-5.5-15.2-16-27.3-27.7-38.1
				c-8.1-7.5-22.1-4.7-25.1,6.6c-2.4,9.1-2.6,18-0.9,27.2c1.5,8.2,5.1,18.4,12.1,23.4c20.1,14.3,35-16,38.3-31.6
				c2-9.5,2.7-20.3-5-27.6c-7.2-6.8-18.7-7.7-27.1-2.7c-7.6,4.6-11.9,12.8-13.2,21.4c-1.5,9.8-1.9,19.6,2.1,28.9
				c7.4,17.4,28.3,24.5,44,12.9c13.5-10,20.7-27.2,26.2-42.5c2.7-7.4,4.7-15.1,6-22.9c1.4-8.4,4.2-19.5,0.4-27.5
				c-5.9-12.4-21.6-13.5-30.8-4c-7,7.2-8.4,17.2-6.8,26.7c1.5,9.1,7.4,16.2,12,23.8c2.3,3.7,2.9,5.1,3.8,8.4
				c1.4,4.8,1.5,5.5,1.5,9.6c0.1,5,0,5.2-1.3,9.7c-0.3,1-0.6,1.9-0.9,2.9c-0.2,0.8-0.8,2-0.2,0.6c-0.7,1.6-1.6,3.1-2.5,4.6
				c-0.4,0.6-0.8,1.3-1.2,1.9c-0.3,0.4-0.6,0.8-0.8,1.2c0.7-0.8,0.7-0.8,0.1-0.1c-1.1,1.4-2.3,2.7-3.5,3.9c-3.2,3.2-3.4,3.2-7.8,5.7
				c7.5,4.3,15,8.6,22.6,13c-0.1-7.1-0.1-14.3-0.3-21.4c-0.3-10.5-6.1-17.7-16.6-20c-15.3-3.3-30.1-0.5-43.9,6.9
				c-2.6,1.4-5.2,3-7.9,4.4c-1.2,0.7-2.4,1.2-3.6,1.9c-3.6,2,1.6-0.2-2.2,1c-1.4,0.5-2.9,1-4.4,1.2c2.6-0.4-1.5-0.4,0.1-0.1
				c1,0.2,0.7,0.1-1-0.3c0.7,0.2,1.2,0.5,1.7,1c0.8,2.3,2.7,8.9,2.9,4.5c0.4-13.4-7-29.1-21.2-32.1c-9.8-2.1-18.6,4.3-19,14.5
				c-0.5,11.3-7.1,22.4-8.5,34.6c-1.5,13,5.4,24.6,15.9,31.7c18.1,12.4,48,12.8,64.3-2.5c6.1-5.7,5.3-15.4,0-21.2
				c-13.2-14.5-32.8-22.6-52.3-21.9c-6.4,0.2-13,4.5-14.5,11c-1.4,6,0.7,14.2,6.9,16.9c3.3,1.5,6.6,2.9,9.9,4.4
				c7.4,3.3,16.1,2.1,20.5-5.4c3.7-6.4,2.1-17.2-5.4-20.5c-3.3-1.5-6.6-2.9-9.9-4.4c-2.5,9.3-5,18.6-7.6,28c2.1-0.1,4.1,0,6.2,0.1
				c3,0.1-1-0.4,2.2,0.3c2.7,0.6,7.3,1.9,8.6,2.4c1.3,0.6,5.5,3,7.8,4.4c2.4,1.6-0.1-0.4,1.9,1.5c1.5,1.4,3,2.9,4.4,4.4
				c0-7.1,0-14.1,0-21.2c-1.3,1.2-1.4,1.3-0.3,0.4c-0.8,0.5-1.6,1-2.5,1.4c2.5-1.1-2.7,0.6-3.3,0.7c2.8-0.6-2.7,0.2-3.4,0.2
				c-2,0-3.9-0.1-5.9-0.2c-1.8-0.2-1.7-0.2,0,0c-0.9-0.1-1.8-0.3-2.7-0.5c-1.3-0.3-2.6-0.6-3.9-1.1c-0.9-0.3-1.7-0.6-2.6-0.9
				c1.5,0.7,1.5,0.6-0.1-0.1c-0.6-0.4-4.8-3.4-2.3-1.2c-0.6-0.5-1.2-1.1-1.8-1.7c1,1.5,1,1.5,0.1,0.1c-0.8-1.5-0.8-1.4-0.1,0.2
				c-0.3-0.8-0.5-1.6-0.7-2.5c0.2,2.2,0.5-2.7,0.2-0.5c0.3-2.3,1.2-4.5,2-6.7c3.5-10,6.3-19.5,6.8-30.2c-6.3,4.8-12.7,9.6-19,14.5
				c1.9,0.4,0.5,0.3-0.3-0.4c-0.7-0.4-1.3-0.9-1.7-1.6c-0.5-0.8-0.6-0.8-0.1-0.1c0.2-0.1,1.3,2.9,0.6,1c-0.7-1.7,0.2,0.9,0.2,1.2
				c0.3,1.5,0.4,2.6,0.2,0.5c0.1,0.8,0.1,1.7,0.1,2.5c0.2,3.5,0.5,6.9,1.9,10.2c5.3,12.7,20.2,15.9,32.5,13.5
				c9.7-1.9,18-7.8,26.6-12.2c6.8-3.6,15.4-4.8,23.2-2c-2.2-1.3-4.4-2.6-6.6-3.9c0.4,0.3,0.7,0.6,1.1,0.9c-1.3-2.2-2.6-4.4-3.9-6.6
				c0-2,0.1-1.8,0.1,0.5c0,0.6,0,1.2,0,1.9c0,2.2,0.1,4.3,0.1,6.5c0.1,4,0.1,8.1,0.2,12.1c0.2,11.5,12.6,18.6,22.6,13
				c20.1-11.3,33.2-33.1,33-56.3c-0.1-11.9-3.6-23.8-9.9-33.9c-1.4-2.2-2.9-4.4-4.4-6.6c-0.8-1.2-1.6-2.4-2.3-3.7
				c-0.3-0.6-1.6-3.5-0.9-1.6c-0.1-0.4-1-4-0.7-2.1c0.3,1.7,0-2,0.1-2.2c-0.1,1.5-0.3,1.3,0.3,0c-0.2,0.6-0.9,2.6-1.5,2.9
				c-2.5,0.7-5,1.4-7.6,2c-0.4-0.1-0.9-0.1-1.3-0.2c-2.2-1.3-4.4-2.6-6.6-3.9c0.3,0.3,0.5,0.6,0.8,0.9c-1.3-2.2-2.6-4.4-3.9-6.6
				c0-1.9,0-2,0-0.2c0,0.6-0.1,1.2-0.1,1.8c-0.1,1.8-0.3,3.5-0.5,5.2c0.2-1.5-0.5,3.1-0.5,3c-0.3,1.7-0.6,3.5-1,5.2
				c-1.5,6.9-3.4,13.6-5.9,20.2c-1.9,4.9-4.7,10.8-7.9,16.2c-1.9,3.3-2.4,4.1-3.9,5.6c-0.5,0.6-1,1.1-1.6,1.6c0.9-0.6,1-0.7,0.1-0.1
				c-2.1,1.4-2.1,0.4-0.2,0.6c1.1,0,0.9,0-0.8,0c0.4,0,0.8,0.1,1.2,0.1c2.9,1.8-1.7-1.1,0.9,0.4c-1.2-1.3-1.3-1.3-0.2-0.2
				c-0.2-0.4-0.5-0.8-0.7-1.2c0.6,1.6,0.6,1.4-0.1-0.7c-0.1-0.6-0.3-1.2-0.4-1.8c0.1,1,0-3.3,0-3.3c0-1.8,0.2-3.7,0.4-5.5
				c-0.4,2.7,0.5-1.9,0.5-2c0.8-3.1,0.4-0.4-0.3,0.1c-1.5,1.1-2.4,1.8-4.4,1.8c-3,0.1-10.2-4.5-8.3-8.3c-0.1,0.2-0.5,4.4-0.1,2.2
				c-0.3,1.6-0.7,3.3-1.1,4.9c-0.9,3.2-1.3,4.3-2.4,6.5c-0.8,1.5-1.6,2.9-2.4,4.3c-2.4,3.8-0.8,0.3,2.5-0.6c2.7,0,5.3,0,8,0
				c-0.4-0.1-0.8-0.2-1.2-0.2c2.2,1.3,4.4,2.6,6.6,3.9c1.1,0.9,0.3,0.7-0.4-0.6c-2.2-4.2,0.1,0.7-0.8-1.9c-0.8-2.3-1.6-4.9-1.9-7.4
				c0.2,1.6,0-0.7,0-1.1c0-1.1,0-2.3,0-3.4c0-1.7,0.2-3,1-6c-8.4,2.2-16.7,4.4-25.1,6.6c8.4,7.8,16,15.4,19.9,24.5
				c-0.4-1,0.8,2.5,0.8,2.5c0.4,1.2,0.7,2.4,1,3.7c0.2,0.9,0.4,3.4,0.3,1.3c0.1,1.5,0.2,3,0.1,4.5c0,0.4-0.4,4.1-0.1,2.5
				c0.3-1.7-0.6,2-0.6,2.4c-0.6,3.2,0.9-0.9-0.7,1.9c-0.7,1.3-1.5,2.6-2.4,3.8c7.9-1,15.7-2,23.6-3c1.3,1.2,1.1,5,1.5,2.1
				c0.2-1.6,0.2-1.9,0-0.6c0.2-1.2,0.4-2.5,0.6-3.7c0.8-5,1.8-9.9,2.9-14.8c2.1-9,5.1-17.7,8.1-26.5c3.2-9.6,5.9-19.6,6.2-29.8
				c0.3-10.3-2.1-24-11-30.4c-9.7-6.9-22.5-3.7-31.4,3c-7.7,5.7-13.3,13.5-18.1,21.7c-9.6,16.2-16.1,34.4-18.8,53
				c9.6,0,19.3,0,28.9,0c-1.5-9.6,2.1-21.7,6.2-32.3c4.7-12.4,11.1-24.4,9.6-38.2c-1.2-11.5-11.8-18.5-22.6-13
				c-15.5,7.9-28.5,19.7-38.5,33.9c-5.6,7.9-10.5,16.8-8,26.8c2.3,9.1,11,16,16.7,23.1c9.8,12.2,18,27.7,25.8,42.3
				c9.3,17.5,28.9,32.8,49.3,22.9c8.7-4.2,14-12.8,19.8-20.2c6-7.7,12-15.4,18-23.1c5.7-7.3,12.4-14.5,16.3-23
				c4.5-9.9,4.5-20.3,4.5-30.9c0-18.6-0.4-38.7-6.9-56.3c-2.4-6.4-7-11.8-13.9-13.3c-5.1-1.1-10.6-0.8-15.7-0.9
				c-10-0.2-19.9-0.4-29.9-0.6c-11-0.2-21.9-0.4-32.9-0.7c-11.4-0.2-26-2.9-34.9,6.1c-3.8,3.9-6.2,9.3-8.8,14
				c-2.7,4.9-5.4,9.8-8.1,14.6c-5.4,9.8-10.8,19.5-16.2,29.3c-3.2,5.8-2.4,13.4,2.3,18.2c4.5,4.5,12.7,6.1,18.2,2.3
				c1.6-1.1,3.1-2.1,4.7-3.2c-5-8.6-10.1-17.3-15.1-25.9c-7.3,5.5-13.9,11.8-14.1,21.6c-0.2,9,5.6,18.2,14.7,20.4
				c3.1,0.8,6.2,0.6,9.4,0.1c1.2-0.2,5.3-0.5,0.7-0.7c-2.4,0.2-4.5-0.6-6.3-2.5c0.2,0.2,0.4,0.5,0.7,0.7c-1.3-1.7-1.5-1.9-0.6-0.5
				c0.2,0.3,0.4,0.6,0.6,0.9c3.8,6.1,8.1,11,15.3,13.1c5.7,1.7,12.3-0.7,15.8-5.4c3.9-5.2,3.7-10.9,1.2-16.7
				c-0.7-1.5-2.3-7.6-2.6-9.6c-0.4-3-0.2-8.2,0.2-12.1c0.9-7.8-7.6-15.3-15-15C104.9,292.4,99.8,298.6,98.8,307L98.8,307z"/>
		</g>
	</g>
	<g>
		<g>
			<path fill="#8DC63F" d="M110.4,361.6c-0.4,1.4-0.8,2.8-1.3,4.2c-1.3,3.9,1.2-1.7-0.8,1.8c-0.7,1.3-1.4,2.6-2.2,3.8
				c-0.1,0.1-2.7,3.7-1.1,1.7c-1.8,2.3-4,4.4-6.2,6.2c1.6-1.3-0.4,0.3-1.1,0.7c-1.4,0.9-2.9,1.8-4.4,2.6c-9.1,4.8-9,16.6-3,23.6
				c4.1,4.7,9.6,7.9,15.5,9.6c-2.2-1.3-4.4-2.6-6.6-3.9c16.3,13.3,35.1,23.1,55.8,27.3c10,2,20.4,3.2,30.6,2.6
				c10.8-0.7,23.3-2.9,32-9.9c13.3-10.7,6.9-31.7-9.4-34.9c-11-2.2-23.2-1.4-34.3-0.9c-5.4,0.2-10.9,0.6-16.3,1.2
				c-6.2,0.6-13.9,0.5-19.4,3.6c-13.8,7.8-9.2,27,0.2,36.4c8.7,8.7,22.2,12.5,34.1,14.3c13.5,2,26.8,1.5,40.1-1.7
				c7.9-1.9,12.6-10.8,10.5-18.5c-2.2-8-10.6-12.4-18.5-10.5c-8.4,2.1-19.5,2.7-27.7,1.1c-4.5-0.9-10.1-2.3-13.6-3.8
				c-1.5-0.6-2.6-1.2-3.7-2.2c1.6,1.6-1.3-0.8-0.1-0.1c0.2,0.7,0.2,0.6-0.1-0.3c-0.8-2.8-1.1-0.9-1.2,5.8c-1.8,1.8-3.6,3.6-5.4,5.4
				c-4.6,1.2-5.2,1.5-2,1c1.3-0.2,2.5-0.3,3.8-0.4c2.5-0.3,5.1-0.5,7.7-0.7c4.8-0.4,9.6-0.7,14.4-0.8c4.8-0.2,9.6-0.2,14.4-0.2
				c2.6,0,5.1,0.1,7.7,0.2c1.2,0,2.4,0.1,3.6,0.2c-3.1-0.4-5.4-2.1-6.8-5.3c0-2.7,0-5.3,0-8c1.4-1.7,2.8-3.4,4.3-5.1
				c-0.4,0.2-0.7,0.4-1.1,0.6c-0.2,0.1-2.3,1.1-1,0.5c-2,0.8-4.2,1.4-6.4,1.9c-3.5,0.8-6.8,1.1-11.8,1c-9.7-0.1-15.4-1-24.8-3.6
				c-8.8-2.5-14.4-4.8-22.5-9.5c-3.6-2.1-8.3-5.2-10.9-7.2c-1.6-1.2-5.3-4.8-8.4-5c-1.3-0.1-0.3-0.1,0.3,0.3c0.7,0.5-1.7-1.8-1.9-2
				c-1,7.9-2,15.7-3,23.6c15.3-8,26.5-22.4,31-39c2-7.6-2.5-16.6-10.5-18.5C121,349.4,112.6,353.5,110.4,361.6L110.4,361.6z"/>
		</g>
	</g>
	<g>
		<g>
			<path fill="#8DC63F" d="M94.3,342.5c-1.8,6.9-5.9,14-12.3,17.7c1.3-0.3,2.5-0.7,3.8-1c-0.4,0-0.9,0-1.3,0.1
				c1.3,0.3,2.5,0.7,3.8,1c-0.2-0.2-0.5-0.4-0.7-0.6c1.1,1.5,2.3,3,3.4,4.5c0.5,1.7-1,3,1,1.6c0.7-0.5,1.5-1.8,1.9-2.6
				c1.3-2.3,1.6-5.2,0.9-7.7c-0.1-0.3-0.9-3.2-0.8-1.5c0,0.8-0.3,0.9,0.2,0.3c0.8-1,1.6-2,2.4-3c5.9-7.2,6.5-14,0.6-21.4
				c-1.5-1.9-3-3.8-4.5-5.6c-0.6-0.8-3.4-4.4-3.5-3.7c0,0.5,2.2-2,2.8-2.7c1.3-1.4,2.6-2.9,3.7-4.5c3.5-5.2,4.5-14.7,10.1-18
				c8.3-4.9,0.8-17.9-7.6-13c-7.4,4.4-9.6,11.5-13,18.9c-3.3,7.3-11.5,11.7-10.8,20.5c0.4,5,4.1,8.7,7.1,12.4c1.3,1.7,4.1,4,4.8,6
				c0,0.1,0.6-1.3-0.3,0.4c-1.3,2.7-4.1,4.7-5.5,7.4c-2.1,4.3-1.1,7.8,0,12.2c0-1.3,0-2.7,0-4c0.1-0.3-1.6,1.5-1.7,1.5
				c-0.9,1.1-1.5,2.1-2,3.4c-0.8,2.2-1.1,4.6-0.3,6.9c2.1,6.1,9.2,7.5,14.4,4.3c9-5.6,15.2-15.8,17.9-25.9
				C111.3,337.1,96.8,333.2,94.3,342.5L94.3,342.5z"/>
		</g>
	</g>
	<g>
		<g>
			<path fill="#8DC63F" d="M78.3,367.3c0.8,4.3,3.5,14.9-2.4,17.2c-5.6,2.2-8,10.4-1.8,13.7c6.6,3.5,13.2,6.9,18.4,12.4
				c5,5.3,9.2,10.8,15.2,15.1c12.7,9.1,27.3,15.8,41.8,21.6c3.8,1.5,8.2-1.7,9.2-5.2c1.2-4.3-1.5-7.7-5.2-9.2
				c-13.4-5.4-28.1-11.9-39.4-21.1c-5.3-4.3-8.9-10.3-14-14.8c-5.5-4.8-11.9-8.4-18.3-11.8c-0.6,4.6-1.2,9.1-1.8,13.7
				c15.3-5.9,15.6-21.7,12.8-35.6C90.9,353.8,76.5,357.8,78.3,367.3L78.3,367.3z"/>
		</g>
	</g>
	<g>
		<g>
			<path fill="#8DC63F" d="M246.5,443.7c-0.9,6.2,1.6,11.5,7.3,14.5c3.7,1.9,6.1,2.3,6.8,6.8c3.1-3.1,6.2-6.2,9.2-9.2
				c-4-1.4-7.8-3.3-11.4-5.5c-8.3-5-15.8,7.9-7.6,13c4.7,2.9,9.8,5.2,15,7c6,2.1,9.9-4.1,9.2-9.2c-0.6-4.3-2.9-8.5-6.2-11.4
				c-1.5-1.4-3.2-2.4-5.1-3.3c-0.9-0.4-1.9-0.8-2.8-1.3c-0.4-0.2,0.3,2.2-0.1-0.3c0,1.3,0,2.7,0,4c0-0.3,0.1-0.7,0.1-1
				c0.6-4-1-8.1-5.2-9.2C252.2,437.5,247,439.6,246.5,443.7L246.5,443.7z"/>
		</g>
	</g>
	<g>
		<g>
			<path fill="#8DC63F" d="M266.3,463.5c7.3-1.9,10.2-7.8,15-12.9c2.7-2.9,5.8-5.2,9-7.4c1.4-1,2.8-1.9,4.3-2.8c3-1.9,2.9-0.7,1.2-3
				c5.1,7,15.1,2.7,13.7-5.8c-0.5-3.2,4.5-8.5,5.8-11.4c2.2-4.7,1.8-10.5,4.4-14.9c-4.6-1.9-9.1-3.9-13.7-5.8
				c-1.1,7.4-2.2,14.7-3.3,22.1c-0.8,5.2,2,8.9,7.2,9.5c2.3,0.2,4.3-0.3,6.2-1.5c1-0.6,1.8-1.4,2.6-2.2c1.7-1.7,1.6-2-0.5-0.9
				c-1.8-0.7-3.5-1.5-5.3-2.2c0.2,0.2,0.5,0.4,0.7,0.7c7.2,6.4,17.8-4.1,10.6-10.6c-2.8-2.5-5.8-3.6-9.6-2.5c-3.5,1-4.5,3.9-7.3,5.4
				c1.3-0.3,2.5-0.7,3.8-1c-0.4,0-0.8-0.1-1.3-0.1c2.4,3.2,4.8,6.3,7.2,9.5c1.1-7.4,2.2-14.7,3.3-22.1c1.2-7.9-9.1-13.6-13.7-5.8
				c-3.5,5.9-3.1,12.9-6.6,18.8c-3.7,6.3-6.4,11.5-5.2,19c4.6-1.9,9.1-3.9,13.7-5.8c-7.6-10.4-18.1-4.9-26.7,1
				c-4.2,2.9-8.5,6.1-11.9,9.9c-2.1,2.4-4.6,7.6-7.8,8.4C253,451.5,256.9,465.9,266.3,463.5L266.3,463.5z"/>
		</g>
	</g>
	<g>
		<g>
			<path fill="#8DC63F" d="M319.1,414.2c0.9-2.7,2.7-4.8,4.7-6.7c1.5-1.4,4.5-4.7,6.1-5.1c-1.3,0-2.7,0-4,0c0,0-0.1-0.1-0.1-0.1
				c-1.1-1.5-2.3-3-3.4-4.5c0.1,0.3,0.2,0.5,0.3,0.8c0-1.3,0-2.7,0-4c0.5-1.8,0.4-1-0.7-0.3c-1,0.6-2.1,1.1-3.1,1.7
				c-2.4,1.3-4.7,2.6-6.8,4.5c-4.5,4-6.1,9.2-5.3,15.1c0.6,4,5.7,6.2,9.2,5.2c4.3-1.2,5.8-5.2,5.2-9.2c0.3,1.8-0.1,0.4,1-0.1
				c0.9-0.4,1.8-1.2,2.6-1.7c2.8-1.5,5.6-2.9,8.1-5c5.6-4.8,6.3-14.3-2-16.8c-6.3-1.9-11.6,3.5-15.9,7.3c-4.7,4.1-8.2,9-10.3,14.9
				c-1.3,3.8,1.5,8.2,5.2,9.2C314,420.5,317.8,418,319.1,414.2L319.1,414.2z"/>
		</g>
	</g>
	<g>
		<g>
			<path fill="#8DC63F" d="M327.1,398.7c2.3-0.3,5.9-1.5,6.9,0.8c1.9,4.3,8.9,4.9,11.8,1.5c2.1-2.4,3.8-5.1,5.3-7.9
				c0.7-1.2,1.4-2.3,2.1-3.5c0.6-1,2-0.5,0.6-1.2c8.6,4.3,16.2-8.6,7.6-13c-5.5-2.8-11.2-2.2-16.2,1.4c-4.9,3.6-6.2,9.2-10,13.5
				c3.9,0.5,7.9,1,11.8,1.5c-3.4-7.8-12.3-9.2-19.8-8.2c-4,0.5-7.5,3.1-7.5,7.5C319.6,394.9,323,399.3,327.1,398.7L327.1,398.7z"/>
		</g>
	</g>
	<g>
		<g>
			<path fill="#8DC63F" d="M409.8,287c0-1.7,1-3.7,1.2-5.6c0.4-2.9,0-5.6-1.6-8c-1.6-2.5-4.3-4.1-7.1-4.8c-1.1-0.3-2.2-0.3-3.2-0.6
				c-0.5-0.1-1-0.3-1.5-0.5c-1.4-1-1.4-0.8,0.1,0.6c0,1.3,0,2.7,0,4c0.1-0.3,0.1-0.5,0.2-0.8c-0.6,1.1-1.3,2.2-1.9,3.3
				c-0.1,0.1-0.2,0.1-0.2,0.2c-1.3,0.3-2.5,0.7-3.8,1c0.3,0,0.5,0,0.8,0c-1.3-0.3-2.5-0.7-3.8-1c0.2,0.1,0.4,0.3,0.6,0.4
				c8.1,5.3,15.6-7.7,7.6-13c-4.1-2.7-9.6-1.4-12.3,2.6c-3,4.3-1.9,9.8,1.8,13.3c2.5,2.3,7.2,5,10.7,4.9c1.5,0.5,1.5,0,0-1.6
				c-0.6-0.5-1-1.1-1.1-1.9c-0.1,0-0.5,1.6-0.6,1.8c-0.5,1.9-0.9,3.8-0.9,5.8C394.9,296.7,409.9,296.7,409.8,287L409.8,287z"/>
		</g>
	</g>
	<g>
		<g>
			<path fill="#8DC63F" d="M385,325c16.1-6.8,30.3-16.6,41.8-29.8c3-3.4,3.1-9.5-1.5-11.8c-5.1-2.6-10.3-3.3-15.9-1.7
				c2.4,4.2,4.9,8.4,7.3,12.5c7-6.8,19.9-15.8,13.1-27c-2.8,3.7-5.6,7.3-8.5,11c-1.1-1.5-1.5-1.7-1.1-0.7c0,0.9,0,1.7-0.1,2.6
				c-0.1,2-0.3,3.9-0.1,6c0.6,7.4,9.7,10.2,14,3.8c1.3-2,3.1-3.7,5.3-4.7c4.5-1.9,8.3-8.6,3.3-12.5c-1.6-1.3-3.3-2.6-4.9-3.9
				c-3.2-2.5-7.5-3.1-10.6,0c-2.6,2.6-3.2,8.1,0,10.6c1.6,1.3,3.3,2.6,4.9,3.9c1.1-4.2,2.2-8.4,3.3-12.5c-6.1,2.5-10.6,6-14.3,11.6
				c4.7,1.3,9.3,2.5,14,3.8c-0.4-4.6,0.8-9.1-0.7-13.6c-1.4-4.4-4.7-7.4-9-8.7c-6.2-1.8-11.9,5.5-8.5,11c-0.9-1.4,0.6-1.6-1.1-0.6
				c-1.1,0.6-2.2,2.2-3.1,3c-2.2,2.1-4.4,4.2-6.6,6.4c-5.4,5.2,0.1,14.6,7.3,12.5c1.6-0.5,2.8-0.6,4.3,0.2c-0.5-3.9-1-7.9-1.5-11.8
				c-9.7,11.1-21.6,20.2-35.2,25.9c-3.7,1.6-6.4,5-5.2,9.2C376.8,323.2,381.3,326.6,385,325L385,325z"/>
		</g>
	</g>
	<g>
		<g>
			<path fill="#8DC63F" d="M427.9,265.9c-5.2-3.6-9.9-7.7-14.1-12.5c-0.3,0.7-0.6,1.4-0.9,2.1c3-0.1,5,4.4,6.9,6.2
				c2,1.9,4.3,3.3,6.8,4.4c1.5,0.6,2.7-1.5,1.3-2.2c-3.6-1.6-6.5-3.9-9-7c-1.6-2.1-3.2-4-6.1-3.9c-1.1,0-1.6,1.3-0.9,2.1
				c4.3,4.9,9.2,9.2,14.7,12.9C428,268.9,429.2,266.8,427.9,265.9L427.9,265.9z"/>
		</g>
	</g>
	<g>
		<g>
			<path fill="#8DC63F" d="M253.8,230.5c-0.4,0.1-0.8,0.1-1.3,0.2c1.3,0,2.7,0,4,0c0.9,0.2,0-1.2-0.2-1.9c-0.4-1.4-0.6-2.8-0.6-4.2
				c0-3,1-5.8,1.5-8.8c0.9-5.5-0.5-10.8-4.6-14.6c-3.5-3.3-7.9-4.5-12.1-6.5c-4.9-2.3-5.3-6.7-6.1-11.6c-0.6-4-5.6-6.2-9.2-5.2
				c-4.3,1.2-5.9,5.2-5.2,9.2c1.1,6.8,3,13.3,8.6,17.8c2.7,2.2,5.7,3.4,8.9,4.7c1.3,0.5,4.6,1.3,5.2,2.7c0.4,0.9-0.8,4.1-1,5
				c-0.4,1.8-0.7,3.7-0.8,5.6c-0.2,3.6,0.2,7.4,1.3,10.9c2.3,7.6,7.6,12.4,15.7,11.3c4-0.5,6.2-5.7,5.2-9.2
				C261.8,231.4,257.8,229.9,253.8,230.5L253.8,230.5z"/>
		</g>
	</g>
	<g>
		<g>
			<path fill="#8DC63F" d="M196.9,88.3c0-2.2-0.1-4.4-0.1-6.5c0-0.9-0.7-5.1-0.1-5.6c0.1-0.1,4.4,2.1,4.9,2.2
				c1.8,0.5,3.6,0.6,5.5,0.4c1.5-0.2,3-1.5,2.4-3.2c-1.6-4.8-10.3-4.1-13.3-1c-3.3,3.4-1.4,10.9,4,7.9c2.8-1.6,0.3-5.9-2.5-4.3
				c0.1,0,0.1-0.1,0.2-0.1c0.5,0.4,1,0.8,1.5,1.1c-1.1-2.4,5.3-1.9,6.2-1.3c-0.4-0.5-0.8-1-1.1-1.5c0.1,0.2,0.1,0.4,0.2,0.5
				c0.8-1.1,1.6-2.1,2.4-3.2c-3.2,0.3-5.2-0.7-8-2c-1.9-0.9-4.2-1.2-5.9,0.4c-1.8,1.7-1.5,4.1-1.4,6.4c0.1,3.3,0.1,6.5,0.2,9.8
				C192,91.5,197,91.6,196.9,88.3L196.9,88.3z"/>
		</g>
	</g>
	<g>
		<g>
			<path fill="#8DC63F" d="M362.8,92.3c0-4.6,1.2-11.2-0.2-15.6c-1.2-3.7-5.3-3.3-8.4-3.5c-11.5-0.7-23-1.4-34.5-2.1
				c-3.2-0.2-3.2,4.8,0,5c8.6,0.5,17.3,1.1,25.9,1.6c2,0.1,10.8-0.6,12.3,1.1c0.6,0.7,0,4.6,0,5.8c0,2.6,0,5.2,0,7.8
				C357.8,95.5,362.8,95.6,362.8,92.3L362.8,92.3z"/>
		</g>
	</g>
	<g>
		<g>
			<path fill="#8DC63F" d="M352.7,75.7c-0.4,2.4-0.3,4.8,0.5,7.2c0.6,1.8,3.7,2.7,4.6,0.6c1.2-2.8,1.9-5.7,1.9-8.9
				c-1.6,0.2-3.3,0.4-4.9,0.7c0.3,1.4,0.9,2.5,1.8,3.6c0.6,0.8,2.2,1,3,0.4c1.7-1.2,2.7-2.8,2.6-4.9c-0.1-3.2-5.1-3.2-5,0
				c0,0.2,0,0.4-0.2,0.6c1,0.1,2,0.3,3,0.4c-0.3-0.4-0.4-0.9-0.5-1.4c-0.5-2.8-4.9-2.1-4.9,0.7c0,2.2-0.4,4.3-1.2,6.3
				c1.5,0.2,3,0.4,4.6,0.6c-0.5-1.5-0.7-3-0.5-4.5c0.2-1.3-0.3-2.7-1.7-3.1C354.5,73.6,352.9,74.3,352.7,75.7L352.7,75.7z"/>
		</g>
	</g>
	<g>
		<g>
			<path fill="#8DC63F" d="M218.6,176.7c-6.2-6.9-13.6-11.9-22.1-15.5c-2.5-1-4,2.5-2.4,4.2c1.1,1.2,2.3,2.4,3.4,3.6
				c0.4-1.4,0.7-2.8,1.1-4.2c-1.7,0.3-3.9-4.2-4.9-5.2c-1.3-1.4-3-2.6-5-2.6c-1.5,0-1.8,0.9-2.5-0.2c-0.7-0.9-0.6-2.8-1.2-3.8
				c-1.5-2.9-4.4-4.1-6.7-6.3c-5.3-5.1-4.3-13.7-10.4-18.4c-4.9-3.8-11.8-3.8-16.9-0.5c-1.5,1-1.7,3.4,0,4.3
				c5.4,2.9,15.4,3.4,16.4,10.8c0.4,3.2,5.3,1.8,4.8-1.3c-1.3-9.5-11.9-10.1-18.7-13.8c0,1.4,0,2.9,0,4.3c3.8-2.5,9-2.5,12.3,0.9
				c2.7,2.7,3.2,7,4.6,10.4c1.2,3.1,2.8,5.4,5.4,7.5c2.8,2.3,4.5,3.5,5.6,7.1c0.5,1.8,1.2,3.5,3.1,4.3c1.3,0.5,1.9,0,3.2,0
				c1.8-0.1,2,0,3.3,1.6c2.5,3.1,4.5,6.5,9,5.6c1.9-0.4,2.3-2.9,1.1-4.2c-1.1-1.2-2.3-2.4-3.4-3.6c-0.8,1.4-1.6,2.8-2.4,4.2
				c7.7,3.2,14.3,8,19.9,14.2C217.3,182.6,220.8,179.1,218.6,176.7L218.6,176.7z"/>
		</g>
	</g>
	<g>
		<g>
			<path fill="#8DC63F" d="M166.6,131.3c0-0.1,0-0.2,0.1-0.3c0.3-1.5-0.4-2.5-1.7-3.1c-0.9-0.4-1.8-0.3-2.6,0.3
				c-0.9,0.6-1.5,1.7-1.1,2.8c0.6,1.6,1.3,2.1,2.7,3c3,1.9,5.7,3.7,8.3,6.2c1.7,1.6,5.1,0,4.2-2.4c-1.6-4.4-4.4-7.8-7.5-11.2
				c-0.6,1.4-1.2,2.8-1.8,4.3c4.6,0.2,9.2,0.7,13.7,1.4c2.9,0.5,6.3,0.4,8,3.4c0.8,1.5,0.8,3.9,1.3,5.5c2,7.8,5.2,15.2,9.2,22.1
				c0.5-1.2,1-2.4,1.5-3.7c-0.8,0.2-5-12.6-5.5-14.2c-1.5-5.4-2.3-10.8-2.6-16.4c-0.1-1.7-2.1-3.4-3.8-2.2c-1.4,1-10.5,7.9-11.9,4.8
				c-1.2-2.6-5.6-0.7-4.6,1.9c4.6,11.3,11.8,20.6,21.6,27.8c2.2,1.6,4.4-1.4,3.4-3.4c-3.6-7.2-6.3-14.7-8.3-22.5
				c-1.1-4.3-3.4-7.1-8.1-4.9c-4.1,1.8-6.6,6.5-5.9,11c0.9,5.5,7,10.8,10.3,14.9c1.8,2.2,5.4-0.7,3.9-3c-3.2-5-4.4-10.3-3.8-16.1
				c-1.6,0.2-3.3,0.4-4.9,0.7c1.7,4.7,4,8.8,7.1,12.7c1.2-1.2,2.4-2.4,3.5-3.5c-5.1-3.9-13.4-10.5-20.1-6.1
				c-6.3,4.1-0.7,9.9,4.6,10.9c3.1,0.6,4.5-4.3,1.3-4.8c-1-0.2-3.6-0.2-2.5-2.2c0.5-1,4,0.3,4.6,0.5c3.2,1.1,5.9,3.2,8.5,5.3
				c2.6,2,5.5-1,3.5-3.5c-2.5-3.2-4.4-6.7-5.8-10.5c-1-2.7-4.6-2.2-4.9,0.7c-0.7,6.7,0.8,13,4.4,18.6c1.3-1,2.6-2,3.9-3
				c-2.5-3.1-5.7-6.2-7.8-9.6c-1.4-2.3-1.7-4.9,0.4-6.9c2.6-2.5,2.5-0.4,3.2,2.1c2,7.6,4.9,15,8.4,22c1.1-1.1,2.3-2.3,3.4-3.4
				c-8.6-6.4-15.3-14.9-19.3-24.9c-1.5,0.6-3,1.3-4.6,1.9c3.6,8,14.6,0.1,18.8-3c-1.3-0.7-2.5-1.4-3.8-2.2c0.4,8,1.9,15.9,4.7,23.4
				c1.5,4.2,3.8,13.4,9.7,11.9c1.6-0.4,2.3-2.3,1.5-3.7c-2.8-4.8-5.2-9.8-7-15.1c-1.5-4.3-1.7-9.8-3.9-13.8c-2-3.5-6-3.7-9.6-4.3
				c-5.3-0.9-10.6-1.4-15.9-1.7c-2.3-0.1-3.1,2.8-1.8,4.3c2.5,2.8,4.9,5.5,6.2,9c1.4-0.8,2.8-1.6,4.2-2.4c-1.6-1.5-3.2-2.9-5-4.2
				c-0.9-0.7-1.9-1.3-2.8-1.9c-0.6-0.4-2.3-1.8-1.9-0.8c-0.4,0.9-0.8,1.9-1.1,2.8c-0.4,0.1-0.8,0.1-1.2,0.2c-0.6-1-1.2-2.1-1.7-3.1
				c0,0.1,0,0.2-0.1,0.3C161.2,133.1,166,134.5,166.6,131.3L166.6,131.3z"/>
		</g>
	</g>
	<g>
		<g>
			<path fill="#8DC63F" d="M355.4,262.3c0.1-24.9,0.5-49.8,1.1-74.7c0.1-3.2-4.9-3.2-5,0c-0.6,24.9-1,49.8-1.1,74.7
				C350.4,265.6,355.4,265.6,355.4,262.3L355.4,262.3z"/>
		</g>
	</g>
	<g>
		<g>
			<path fill="#8DC63F" d="M312.9,298.1c5.1-7.5,11.5-15.5,20.5-18.4c4.9-1.6,9.8-2,13.9-5.6c3.6-3.2,5.5-7.7,6.4-12.3
				c2.1-11.2,2.6-22.9,3.8-34.2c1.3-12.6,2.7-25.2,4-37.7c0.4-4-3.8-7.5-7.5-7.5c-4.4,0-7.1,3.5-7.5,7.5
				c-1.2,11.6-2.5,23.2-3.7,34.8c-1.2,11-1.6,22.3-3.6,33.2c-0.8,4.3-1.9,5.5-6.1,6.5c-4.6,1.1-9,2.7-13,5.2
				c-8.4,5.3-14.6,13-20.2,21C294.5,298.5,307.5,306,312.9,298.1L312.9,298.1z"/>
		</g>
	</g>
	<g>
		<g>
			<path fill="#8DC63F" d="M358,208.3c-1.3-16.2,1.7-32,5-47.8c-4.9-0.7-9.8-1.3-14.7-2c0,11.4-2,22.5-5.9,33.2
				c4.9,0.7,9.8,1.3,14.7,2c0.2-1.8,0.4-3.6,0.7-5.4c0.5-4-3.8-7.5-7.5-7.5c-4.5,0-7,3.5-7.5,7.5c-0.2,1.8-0.4,3.6-0.7,5.4
				c-1.1,8.9,12.1,9.4,14.7,2c4.2-12,6.3-24.5,6.4-37.2c0-8.3-12.9-10.4-14.7-2c-3.6,17-6.9,34.3-5.5,51.8
				C343.7,217.9,358.7,218,358,208.3L358,208.3z"/>
		</g>
	</g>
	<g>
		<g>
			<path fill="#8DC63F" d="M361.1,176.2c1.5-12.8,3-25.6,2.7-38.5c-0.2-12.3-3.9-25.3-0.7-37.4c-4.9-0.7-9.8-1.3-14.7-2
				c0.5,6.5,1,13,1.4,19.5c0.3,5.5,0.7,11.3-1.8,16.4c-4.2,8.6,8.7,16.2,13,7.6c6.6-13.4,3.5-29.1,2.5-43.5
				c-0.6-8.1-12.5-10.6-14.7-2c-3.5,13.1-0.4,26.2,0.1,39.5c0.5,13.5-1.1,27-2.7,40.4c-0.5,4,3.8,7.5,7.5,7.5
				C358,183.7,360.6,180.3,361.1,176.2L361.1,176.2z"/>
		</g>
	</g>
	<g>
		<g>
			<path fill="#8DC63F" d="M204.5,140.3c0.3-5-1.5-9.5-2.3-14.4c-0.8-5-0.4-10.3-0.4-15.4c0-10.9,0.1-21.9,0.1-32.8
				c0-9.7-15-9.7-15,0c0,10.9-0.1,21.9-0.1,32.8c0,4.9-0.2,9.8,0.3,14.7c0.5,5.1,2.7,10.1,2.5,15.2C189,150,204,150,204.5,140.3
				L204.5,140.3z"/>
		</g>
	</g>
	<g>
		<g>
			<path fill="#8DC63F" d="M194.4,85.1c13.2-1.4,26.5-2.6,39.8-1.5c14,1.2,27.7,2.1,41.8,1.8c27.9-0.7,55.8-1.4,83.7-2.2
				c9.6-0.2,9.7-15.3,0-15c-27.9,0.7-55.8,1.5-83.7,2.2c-13.8,0.3-27.1-0.5-40.8-1.7c-13.6-1.2-27.1,0-40.7,1.4
				c-4,0.4-7.5,3.1-7.5,7.5C186.9,81.3,190.3,85.5,194.4,85.1L194.4,85.1z"/>
		</g>
	</g>
	<g>
		<g>
			<path fill="#8DC63F" d="M353.1,76.3c-1,15-3.2,29.9-3.8,45c-0.7,15.1,1.2,30.1,0.6,45.1c-1.2,28.9-8.8,57.4-5.2,86.4
				c0.5,4,3.1,7.5,7.5,7.5c3.7,0,8-3.5,7.5-7.5c-3.7-29,4-57.5,5.2-86.4c0.6-15.1-1.3-30.1-0.6-45.1c0.7-15,2.8-29.9,3.8-45
				C368.8,66.7,353.8,66.7,353.1,76.3L353.1,76.3z"/>
		</g>
	</g>
	<g>
		<g>
			<path fill="#8DC63F" d="M363.2,288.3c0-5.1,0-10.2,0-15.3c0-0.3,0.2-5.7,0-5.8c-2.3,2.4-2.4,3.3,0,2.6c1.2-0.1,2.4-0.1,3.5-0.1
				c8.2,0.3,16.7,3.5,24.2,6.7c3.6,1.5,6.2,3.4,9,6.2c2.7,2.7,5.8,4.5,9.7,4.7c8.8,0.4,14-7,16.7-14.3c3.4-9.1-11.1-13-14.5-4
				c-0.5,1.3-1.4,2.2-2,3.3c1.8,0.9,2,0.8,0.7-0.3c-0.6-0.7-1.3-1.4-2-2.1c-2.8-2.6-6.1-4.6-9.5-6.2c-7.8-3.6-16.5-6.7-25.1-8.1
				c-7.5-1.2-19.9-2.4-24.4,5.3c-2.1,3.5-1.5,8.2-1.4,12.1c0,5.1,0,10.2,0,15.3C348.2,298,363.2,298,363.2,288.3L363.2,288.3z"/>
		</g>
	</g>
	<g>
		<g>
			<path fill="#8DC63F" d="M425.7,290.4c11.1-2.9,14-16.1,7.3-24.5c-2.4,4.2-4.9,8.4-7.3,12.5c2.1,0.5,3.9,1,5.8,2
				c0.9,0.5,1.9,1.1,2.7,1.7c1.4,1.4,1.4,1.1-0.1-0.7c0.6-2.4,1.3-4.9,1.9-7.3c-3,3.7-7.8,6.6-11.6,9.6c-3.6,2.9-7.2,5.7-10.8,8.6
				c-7.5,6-14.9,12-22.4,17.9c-7,5.5-14.2,10.9-21.7,15.6c-6.2,3.9-15.7,6.6-18.9,13.7c-1.5,3.4-0.6,7.1-2,10.4
				c-1.5,3.6-3.7,6.2-3.8,10.3c-0.2,4.6,2.5,7.9,4.5,11.7c1.6,3,0.7,5.1-1.3,7.8c-4.1,5.6-11.4,11.8-18.3,12.9
				c-7.6,1.3-13.5,1.3-18.6,8c-2.5,3.2-0.5,8.4,2.7,10.3c3.8,2.3,7.8,0.5,10.3-2.7c0.1-0.1,4.7-0.4,5.7-0.5
				c3.6-0.4,6.9-1.1,10.2-2.6c6.5-2.9,12.6-7.9,17.3-13.1c4.8-5.3,8.7-11.9,7.9-19.3c-0.4-3.6-1.8-6.6-3.7-9.6
				c-0.2-0.4-1.7-2.8-1.7-2.3c0-1.4,1.9-3.4,2.5-4.6c1.7-3.3,2.1-6.5,2.1-10.2c0-1.6-0.1-0.2-0.5,0.2c0.4-0.4,1.2-0.7,1.7-0.9
				c1.8-0.8,3.6-1.8,5.3-2.8c7-3.9,13.7-8.5,20.2-13.3c13.4-10,26.3-20.6,39.3-31.1c3.8-3.1,7.7-6.1,11.5-9.2
				c3.5-2.8,7.2-5.4,6.7-10.4c-0.8-8.2-12.2-12.9-19.1-14.5c-7.7-1.8-11.9,6.8-7.3,12.5c-0.3-0.4-1.2-0.4-0.6-0.6
				C412.4,278.3,416.3,292.8,425.7,290.4L425.7,290.4z"/>
		</g>
	</g>
	<g>
		<g>
			<path fill="#8DC63F" d="M240.9,441.6c7.8,9.5,15.7,18.8,23.9,28c3.6,4.1,11.4,2.1,12.5-3.3c0.6-3-0.3-8,1-10.2
				c0.9-1.5,4.2-3,5.7-4.1c1.9-1.4,3.8-2.7,5.7-4.1c1.8-1.3,3.8-3.1,6-4c2-0.8,3.2-0.1,5.4,0c4,0.2,7.7-1.6,9.9-5
				c1.4-2.1,1.3-5.4,3.6-6.9c3.3-2.2,7.5-1.6,10.6-4.6c6.4-5.9,4-14.9,0.4-21.6c-4.6-8.5-17.5-0.9-13,7.6c0.5,1,1,3.5,1.6,4.2
				c1.5-1.3,1.6-1.7,0.4-1.2c-0.7,0.2-1.4,0.3-2.1,0.5c-3.5,0.9-6.7,2.5-9.2,5c-1.2,1.2-6.2,7.3-5.1,9c-0.6-1,7.2-2,0.1-2.5
				c-2-0.1-4.1,0.2-6.1,0.8c-7.8,2.4-15,9.1-21.4,13.9c-3.3,2.4-6.4,5-7.5,9.2c-0.9,3.3,0.2,6.7-0.4,10c4.2-1.1,8.4-2.2,12.5-3.3
				c-8.2-9.1-16.1-18.5-23.9-28c-2.6-3.2-7.9-2.6-10.6,0C237.7,434.1,238.3,438.5,240.9,441.6L240.9,441.6z"/>
		</g>
	</g>
	<g>
		<g>
			<path fill="#8DC63F" d="M127.7,349.6c-7.2-0.2-8.5-9.1-14.3-12.2c-3.7-2-8-1.8-11.9-0.6c-2.2,0.7-4.2,2-6.3,2.9
				c-1.9,0.7-2.6,0-1.4,1.1c0,3.5,0,7.1,0,10.6c5.6-5.8,4.8-14.1,0.3-20.3c-1.8-2.4-5.3-4.7-6.5-7.4c-1.5-3.5,2.7-8.6,4.4-11.4
				c9.9-16.9,19.8-33.8,29.6-50.6c1.3-2.2,3.3-7.6,5.6-8.6c1.7-0.7,5.6-0.1,7.5-0.2c2.6,0,5.3-0.1,7.9-0.1
				c9.9-0.2,19.8-0.4,29.6-0.6c9.9-0.2,19.8-0.4,29.6-0.6c9-0.2,18.2,0.2,27.1-0.7c8.1-0.8,16.7-3.2,21.2-10.6c2.3-3.6,3.1-8,3-12.3
				c-0.1-4.5-1.7-9.2-0.9-13.7c1.8-9.4-12.6-13.5-14.5-4c-0.8,3.9-0.8,7.5-0.3,11.4c0.3,3,1.7,7.8,0,10.6
				c-2.8,4.4-11.5,3.7-15.9,3.8c-19.4,0.4-38.9,0.7-58.3,1.1c-9.5,0.2-19.1,0.4-28.6,0.5c-9.2,0.2-16.4,0.4-21.7,8.8
				c-10.2,16.2-19.4,33.1-29,49.6c-4.6,7.9-12.3,17.3-11.8,27c0.3,4.8,2.6,8.7,5.7,12.3c1.2,1.3,2.7,2.5,3.7,3.9
				c0.3,0.4,0.6,1,0.9,1.4c1.1,1.1-0.8,1.5,0.6,0c-2.7,2.8-3.1,7.9,0,10.6c3.7,3.3,7.9,4.5,12.8,3.6c2.2-0.4,4.1-1.2,6.2-2.1
				c0.9-0.4,1.8-0.9,2.7-1.3c1.1-0.4,2.4-0.3,1.6-0.8c1.1,0.7,1.8,3,2.6,4c1.4,2,3,3.7,4.9,5.1c4,3.1,8.8,4.5,13.8,4.7
				C137.3,364.9,137.3,349.9,127.7,349.6L127.7,349.6z"/>
		</g>
	</g>
	<g>
		<g>
			<path fill="#8DC63F" d="M258.3,187.9c-4.2-0.6-8.5-1.1-12.7-1.7c-6.1-0.8-8.7,6.8-6.5,11.3c1.1,2.2,2.3,4.1,3.8,6.1
				c1.5-3.7,3-7.3,4.5-11c-4.3,1.6-8.7,2-12.9,0c-2.2-1-1.7-1.9-2.4-4.2c-0.7-2.3-1.6-4.5-2.6-6.7c-3.7-8.2-9.9-15.1-17.2-20.2
				c-7.1-4.9-16.5-6.5-22.6-12.7c-3.4-3.4-6-7.4-9.5-10.6c-3.9-3.6-8.3-6.5-12.7-9.4c-8.1-5.3-15.7,7.7-7.6,13
				c4.5,2.9,8.9,5.9,12.5,9.9c3.4,3.8,6.4,7.8,10.5,11c7.7,5.9,17.8,7.6,25,14.3c3.2,3,5.8,6.4,7.8,10.3c2.2,4.3,2.6,9.5,5.5,13.4
				c6.5,8.8,21,9.7,30.4,6.3c4-1.5,7.7-6.8,4.5-11c-1.5-1.9-2.7-3.9-3.8-6.1c-2.2,3.8-4.3,7.5-6.5,11.3c4.2,0.6,8.5,1.1,12.7,1.7
				c4,0.5,7.5-3.8,7.5-7.5C265.8,190.9,262.3,188.4,258.3,187.9L258.3,187.9z"/>
		</g>
	</g>
	<g>
		<g>
			<path fill="#8DC63F" d="M198.7,129.4c-12.3-8.4-30.1-6.6-44.3-7.3c-9.7-0.5-9.6,14.5,0,15c6.9,0.3,13.9,0.6,20.8,1
				c5.7,0.3,11.1,0.9,16,4.2C199.1,147.8,206.6,134.8,198.7,129.4L198.7,129.4z"/>
		</g>
	</g>
	<g>
		<g>
			<path fill="#8DC63F" d="M217.7,151.2c9.7,0,9.7-15,0-15C208,136.2,208,151.2,217.7,151.2L217.7,151.2z"/>
		</g>
	</g>
	<g>
		<g>
			<path fill="#8DC63F" d="M220.3,168.4c0.1,0.3,0.2,0.5,0.3,0.8c0-1.3,0-2.7,0-4c4.4-2.5,5.4-3.6,2.9-3.4c-0.9,0-1.8,0-2.7,0
				c-1.5,0-3.1,0-4.6,0.1c-2.6,0-5.1,0.3-6.1-0.4c-2.1-1.6-3.1-4.2-5.7-5.6c-3-1.7-6.3-2-9.6-1.1c-4.9,1.3-6.7,6.8-4.5,11
				c2,3.9,5.6,5.5,9.6,6.7c4.1,1.2,7.4,2.9,10.4,5.9c3.5-3.5,7.1-7.1,10.6-10.6c-2.7-2.5-4.3-5.8-6.7-8.5c-2.5-2.7-5.7-4.6-9.3-5.7
				c-3.4-1.1-7.1-1.1-10.4-2.2c-3.9-1.3-7.2-4.1-10.3-6.8c-7.3-6.2-18,4.4-10.6,10.6c6.5,5.5,12.8,10,21.4,11.6
				c3.1,0.6,6.4,0.7,8.6,3.1c2.4,2.7,4,6,6.7,8.5c7.1,6.5,17.5-3.7,10.6-10.6c-2.8-2.8-6-5.3-9.6-7c-1.7-0.8-3.5-1.6-5.4-2.2
				c-0.9-0.3-1.8-0.5-2.6-0.7c-1.5-0.6-1.6-0.5,0,0.4c-1.5,3.7-3,7.3-4.5,11c0.2,0,0.4,0.1,0.5,0.1c-1.3-0.3-2.5-0.7-3.8-1
				c3.3,1.4,4.8,5.4,8.1,7.2c4.1,2.1,9,1.5,13.4,1.4c4.3-0.1,9.9,0.7,13.7-1.7c3.6-2.2,5.5-6.8,4-10.8
				C231.4,155.5,216.9,159.4,220.3,168.4L220.3,168.4z"/>
		</g>
	</g>
	<g>
		<g>
			<path fill="#8DC63F" d="M172.3,125.5c-4.1-0.1-8.2-0.2-12.3-0.2c-6.6-0.1-9.8,8.2-5.3,12.8c6.3,6.4,13,12.4,20,18
				c3.2,2.5,7.5,3.1,10.6,0c2.6-2.6,3.2-8.1,0-10.6c-7-5.6-13.7-11.6-20-18c-1.8,4.3-3.5,8.5-5.3,12.8c4.1,0.1,8.2,0.2,12.3,0.2
				C182,140.7,182,125.7,172.3,125.5L172.3,125.5z"/>
		</g>
	</g>
	<g>
		<g>
			<path fill="#8DC63F" d="M107.9,341.7c-0.5,3.9-8.7,7.6-12,7.4c1.3,0.3,2.5,0.7,3.8,1c-2.1-1.4-3.9-5.2-5.7-7.2
				c-1.9-2.1-3.9-4-6.8-4.7c-6.6-1.7-11.7,3.8-13.7,9.5c-2.2,6.1-1.7,12.9-1.5,19.2c0.2,5.8,0.7,13-3.5,17.7
				c-6.3,7.2,4.2,17.9,10.6,10.6c5.3-6,7.4-13.2,7.9-21.1c0.2-4.3-0.2-8.5-0.2-12.8c0-1.9-0.1-3.8,0.2-5.6c0.2-1.5,1.7-3.8-0.4-3.1
				c-1.3,0-2.7,0-4,0c-1-0.2,0.1,0.3,0.7,1c1,1.1,1.9,2.2,2.9,3.4c1.4,1.7,2.5,3.6,4.2,5c4.3,3.6,9.3,2.1,14,0.4
				c9.8-3.6,17.2-9.7,18.5-20.5c0.5-4-3.8-7.5-7.5-7.5C111,334.2,108.4,337.6,107.9,341.7L107.9,341.7z"/>
		</g>
	</g>
	<g>
		<g>
			<path fill="#8DC63F" d="M102.3,383.1c-10.6-1.2-21.2-0.4-31.6,2c-6.2,1.5-7.4,10.7-1.8,13.7c18.1,9.9,32.8,24.6,51.1,34.2
				c9.2,4.8,18.7,9.1,28.3,13c10.2,4.2,20.9,6.5,31.8,3.7c9.4-2.4,5.4-16.8-4-14.5c-9.3,2.4-18.7-1.4-27.1-5.1
				c-8.9-3.9-17.8-8-26.3-12.7c-16.4-9.1-29.8-22.6-46.3-31.6c-0.6,4.6-1.2,9.1-1.8,13.7c9.2-2.1,18.3-2.5,27.6-1.4
				c4,0.5,7.5-3.8,7.5-7.5C109.8,386.2,106.3,383.6,102.3,383.1L102.3,383.1z"/>
		</g>
	</g>
	<g>
		<g>
			<path fill="#8DC63F" d="M149.1,403.8c-5.6,4.4-9.7,10.6-11.8,17.5c-1.8,5.9-2.6,14.2,0.9,19.7c3.9,6.3,13.3,9.1,19.9,11.5
				c7.7,2.7,15.8,4.2,23.9,5c15,1.3,30-0.5,45,0.8c6.8,0.6,13.8,2,20,4.9c7.4,3.6,13.5,8.1,22,8.8c9.6,0.7,9.6-14.3,0-15
				c-5.7-0.4-10.8-5.1-15.9-7.4c-5.6-2.5-11.4-4.3-17.5-5.3c-12.7-2-25.5-1.3-38.3-1.3c-13,0.1-25.6-1.1-37.8-5.9
				c-1.9-0.7-7.7-2.4-8.8-4.2c-0.4-0.8,0.2-4.4,0.5-5.5c1-5.4,4.2-9.7,8.4-13c3.2-2.5,2.6-8,0-10.6
				C156.6,400.6,152.3,401.3,149.1,403.8L149.1,403.8z"/>
		</g>
	</g>
	<g>
		<g>
			<path fill="#8DC63F" d="M158,438c-0.3-0.4-0.6-3.6-0.4-3.5c-0.1-0.1-1.5,0.3-1.7,0.3c-2.4,0-4.8,0.3-7.1-0.4
				c-3.5-1.1-6.4-3.8-9.2-6c-3.1-2.5-6.2-4.9-9.8-6.6c-2.9-1.4-7.5-2.6-9.5-5.3c-2.4-3.3-6.5-4.9-10.3-2.7c-3.2,1.8-5.1,7-2.7,10.3
				c4.7,6.3,10.8,8.2,17.3,12c6.1,3.5,10.7,9,17.3,11.8c6.7,2.8,16.7,3.4,23.3-0.4c7.5-4.3,8.9-13.6,3.5-20.1
				C162.4,420,151.8,430.7,158,438L158,438z"/>
		</g>
	</g>
	<g>
		<g>
			<path fill="#8DC63F" d="M297.7,419c4,0.5,8,0.3,11.9-0.5c1.6-0.3,3.3-1.1,4.9-1.3c1.9-0.2,3.5,0.2,5.4-0.4
				c6.9-1.9,11.4-9.4,13.5-15.7c3.1-9.2-11.4-13.1-14.5-4c-0.6,1.7-1.5,3-2.6,4.4c-0.5,0.6-1.7,1.1-0.5,0.6
				c-1.2,0.5-3.2,0.2-4.5,0.4c-4.8,0.9-8.7,2-13.7,1.4c-4-0.5-7.5,3.8-7.5,7.5C290.2,416,293.7,418.5,297.7,419L297.7,419z"/>
		</g>
	</g>
	<g>
		<g>
			<path fill="#8DC63F" d="M425.2,276.2c-0.3,2.5-0.1,3.1,0.6,1.9c0.4-0.6,0.8-1.1,1.3-1.7c0.7-1,1.3-2.1,1.8-3.3
				c1.1-2.7,1.2-5.6,0.6-8.4c-1.3-5.7-5.8-9.4-10.2-12.8c-3.2-2.4-8.4-0.5-10.3,2.7c-2.2,3.8-0.5,7.8,2.7,10.3
				c0.9,0.7,3.2,2.5,3.3,3.2c0-0.3,0.3-1.1-0.3,0.2c-0.5,1-1.5,1.8-2,2.8c-2.4,4-2.6,8.7-0.2,12.7
				C417.2,292.1,430.1,284.6,425.2,276.2L425.2,276.2z"/>
		</g>
	</g>
	<g>
		<g>
			<path fill="#8DC63F" d="M234.2,199.1c0.4,1.1,0.3-0.2,0.2-0.7c0.1-0.5,0.1-0.5,0-0.1c-0.2,0.5-0.1,0.4,0.2-0.4
				c0.3-0.4,0.7-0.6,1.1-1c-1.1,0.9,1-0.2-0.4,0c-2.5,0.4-4.6,3-5.2,5.2c-0.7,2.7,0.1,5.3,1.9,7.3c2.1,2.4,4.6,4.4,7.3,6.1
				c3.3,2.2,8.4,0.7,10.3-2.7c2-3.8,0.8-7.9-2.7-10.3c-1.5-1-2.7-2.1-4.2-3.8c-1.1,4.2-2.2,8.4-3.3,12.5c7.2-1,11.9-9.6,9.5-16.3
				c-1.3-3.7-5.2-6.5-9.2-5.2C235.8,191,232.8,195.1,234.2,199.1L234.2,199.1z"/>
		</g>
	</g>
</g>
<g id="Layer_5">
	<g>
		<g>
			<path fill="#EFC45D" d="M291.4,255c-5.2-7.1-9.3-14.7-7.9-23.8c1.3-8.2,5.1-16.4,8.3-24c1.2-3-3.6-4.3-4.8-1.3
				c-3.7,8.8-8.3,18.5-8.8,28.2c-0.5,8.8,3.8,16.6,8.9,23.5C289,260.1,293.4,257.6,291.4,255L291.4,255z"/>
		</g>
	</g>
	<g>
		<g>
			<path fill="#EFC45D" d="M288.6,207.9c7,4.6,9.8,12.5,9.4,20.7c-0.3,7.6-3.1,19.6-8.8,25c-2.3,2.2,1.2,5.7,3.5,3.5
				c3.5-3.3,5.2-8.1,6.8-12.6c2.1-5.6,3.6-11.6,3.5-17.6c-0.1-9.4-4-18-11.9-23.3C288.5,201.8,286,206.1,288.6,207.9L288.6,207.9z"
				/>
		</g>
	</g>
	<g>
		<g>
			<path fill="#EFC45D" d="M253.1,244.8c1,18.5,11.7,35.4,28.2,43.9c2.9,1.5,5.4-2.8,2.5-4.3c-14.9-7.7-24.9-22.8-25.7-39.6
				C258,241.6,253,241.5,253.1,244.8L253.1,244.8z"/>
		</g>
	</g>
	<g>
		<g>
			<path fill="#EFC45D" d="M255.3,245.9c8.6,0.3,16.8,4.6,21.5,11.9c5,7.9,5,17.8,4.9,26.9c-0.1,3.2,4.9,3.2,5,0
				c0.2-11-0.3-22.7-7.3-31.8c-5.8-7.5-14.7-11.7-24.1-12C252,240.8,252.1,245.8,255.3,245.9L255.3,245.9z"/>
		</g>
	</g>
	<g>
		<g>
			<path fill="#EFC45D" d="M296.3,287.6c1.3-16.1,5.9-39.8,26.3-40.9c3.2-0.2,3.2-5.2,0-5c-23.5,1.2-29.7,26.7-31.3,45.9
				C291,290.8,296,290.7,296.3,287.6L296.3,287.6z"/>
		</g>
	</g>
	<g>
		<g>
			<path fill="#EFC45D" d="M294.9,291.2c19.4-7.3,31.8-25.7,30.9-46.5c-0.1-3.2-5.1-3.2-5,0c0.8,18.5-9.9,35.1-27.2,41.6
				C290.6,287.5,291.9,292.3,294.9,291.2L294.9,291.2z"/>
		</g>
	</g>
	<g>
		<g>
			<path fill="#EFC45D" d="M254.2,280.9c-1.3,9.4,1.9,18,7.4,25.6c5.2,7.3,11.3,14.6,20,17.7c3,1.1,4.3-3.8,1.3-4.8
				c-7.2-2.6-12.6-9.3-17-15.4c-4.6-6.4-8-13.8-6.9-21.8C259.5,279,254.7,277.7,254.2,280.9L254.2,280.9z"/>
		</g>
	</g>
	<g>
		<g>
			<path fill="#EFC45D" d="M256.2,282.5c14.9,6,25,20.9,25.3,37c0.1,3.2,5.1,3.2,5,0c-0.4-18.5-11.9-34.9-29-41.8
				C254.6,276.5,253.3,281.4,256.2,282.5L256.2,282.5z"/>
		</g>
	</g>
	<g>
		<g>
			<path fill="#EFC45D" d="M295.5,323c0.9-17.3,10.6-33.9,28.5-37.7c3.1-0.7,1.8-5.5-1.3-4.8c-20.1,4.2-31.1,23.1-32.1,42.5
				C290.3,326.3,295.3,326.2,295.5,323L295.5,323z"/>
		</g>
	</g>
	<g>
		<g>
			<path fill="#EFC45D" d="M294.2,326.8c9.3,0.7,17.5-8.1,22.5-15c5.9-8.1,9.1-17.8,9.6-27.7c0.2-3.2-4.8-3.2-5,0
				c-0.4,8.1-2.8,15.8-7.2,22.7c-4,6.3-11.7,15.7-19.9,15.1C291,321.5,291,326.5,294.2,326.8L294.2,326.8z"/>
		</g>
	</g>
	<g>
		<g>
			<path fill="#EFC45D" d="M253.4,318.8c0.6,18.8,12.4,35.4,29.7,42.5c3,1.2,4.3-3.6,1.3-4.8c-15.2-6.3-25.5-21.4-26-37.7
				C258.3,315.5,253.3,315.5,253.4,318.8L253.4,318.8z"/>
		</g>
	</g>
	<g>
		<g>
			<path fill="#EFC45D" d="M256.2,320.2c7.4,0,16.7,8.2,21.4,13.5c6.1,7,6.4,15.7,6.3,24.5c-0.1,3.2,4.9,3.2,5,0
				c0.2-10.3-0.6-20-7.7-28c-3.1-3.5-7-6.4-10.9-9.1c-4.4-3.1-8.6-5.9-14.1-5.9C253,315.2,253,320.2,256.2,320.2L256.2,320.2z"/>
		</g>
	</g>
	<g>
		<g>
			<path fill="#EFC45D" d="M296.5,359c0.7-7.9,1.8-16.3,6.3-23.1c4.6-6.9,12.4-10.4,19.8-13.5c2.9-1.2,1.6-6.1-1.3-4.8
				c-8.1,3.4-16.5,7.2-21.9,14.5c-5.7,7.8-7,17.6-7.9,26.9C291.2,362.2,296.2,362.2,296.5,359L296.5,359z"/>
		</g>
	</g>
	<g>
		<g>
			<path fill="#EFC45D" d="M296.8,362.6c18.5-5.3,30.7-22.3,29.7-41.6c-0.2-3.2-5.2-3.2-5,0c0.9,17.1-9.5,32-26,36.7
				C292.4,358.6,293.7,363.5,296.8,362.6L296.8,362.6z"/>
		</g>
	</g>
	<g>
		<g>
			<path fill="#EFC45D" d="M253.9,355.7c-2.2,20.1,10.2,38.5,29.5,44.4c3.1,0.9,4.4-3.9,1.3-4.8c-17.3-5.3-27.8-21.6-25.8-39.5
				C259.3,352.5,254.3,352.6,253.9,355.7L253.9,355.7z"/>
		</g>
	</g>
	<g>
		<g>
			<path fill="#EFC45D" d="M257,357.5c7.9-0.4,16.7,9.3,20.1,15.8c3.5,6.8,4.6,14.7,5.6,22.2c0.4,3.2,5.2,1.8,4.8-1.3
				c-1.3-9.5-2.9-19.4-8.6-27.3c-4.6-6.4-13.5-14.8-21.9-14.3C253.8,352.7,253.8,357.7,257,357.5L257,357.5z"/>
		</g>
	</g>
	<g>
		<g>
			<path fill="#EFC45D" d="M297.1,398.5c-0.5-9.4,0.1-17.9,6.6-25.3c5.6-6.3,13.3-10.1,21-13.2c3-1.2,1.7-6-1.3-4.8
				c-9,3.6-17.9,8-24.2,15.7c-6.7,8.2-7.6,17.4-7.1,27.6C292.3,401.7,297.3,401.7,297.1,398.5L297.1,398.5z"/>
		</g>
	</g>
	<g>
		<g>
			<path fill="#EFC45D" d="M295.2,401.4c8.9-0.4,18.2-8.8,23.3-15.5c6.1-8,7.4-18.2,8.5-27.9c0.4-3.2-4.6-3.2-5,0
				c-0.9,8-1.9,16.6-6.5,23.5c-3.9,5.9-12.9,14.5-20.3,14.8C292,396.5,292,401.5,295.2,401.4L295.2,401.4z"/>
		</g>
	</g>
	<g>
		<g>
			<path fill="#EFC45D" d="M279.5,408.5c-0.4,11.1,0.3,22.2,2.2,33.1c0.5,3.2,5.4,1.8,4.8-1.3c-1.8-10.5-2.4-21.1-2-31.8
				C284.7,405.3,279.7,405.3,279.5,408.5L279.5,408.5z"/>
		</g>
	</g>
	<g>
		<g>
			<path fill="#EFC45D" d="M282.3,410.3c7.1-0.3,14.2-0.7,21.2-1c3.2-0.1,3.2-5.2,0-5c-7.1,0.3-14.2,0.7-21.2,1
				C279.1,405.5,279,410.5,282.3,410.3L282.3,410.3z"/>
		</g>
	</g>
	<g>
		<g>
			<path fill="#EFC45D" d="M301.3,407c-0.3,8.4-0.2,16.8,0.2,25.3c0.2,3.2,5.2,3.2,5,0c-0.4-8.4-0.5-16.8-0.2-25.3
				C306.4,403.8,301.4,403.8,301.3,407L301.3,407z"/>
		</g>
	</g>
	<g>
		<g>
			<path fill="#EFC45D" d="M291.9,253.7c0.3-2.5-0.2-4.5-1.2-6.8c-1.8-4.2-3.6-7.6-3.1-12.4c0.8-7.5,4.9-14.2,6.2-21.6
				c0.6-3.1-3.8-4.4-4.8-1.3c-2.1,6.3-5.3,12.7-4.6,19.5c0.7,6.9,2,13.8,3,20.7c0.2,1.6,2.4,2.3,3.7,1.5c5.8-3.9,8.6-13.1,10-19.7
				c1.5-7.2,0.6-14.3-4.4-20c-1.6-1.8-4.1-0.2-4.3,1.8c-0.9,10.7-1.4,21.5-1.3,32.3c1.4-0.6,2.8-1.2,4.3-1.8
				c-2.4-1.9-1.5-10.1-1.4-12.8c0.1-4.4,0.8-8.6,2.2-12.8c1.1-3.1-3.6-4.2-4.8-1.3c-2.6,6.3-4.2,12.7-5,19.5c-0.4,3.2,4.6,3.2,5,0
				c0.7-6.3,2.4-12.3,4.8-18.1c-1.6-0.4-3.2-0.9-4.8-1.3c-2,5.8-2.5,11.7-2.4,17.8c0.1,4.1-0.7,9.7,2.9,12.6
				c1.6,1.3,4.3,0.6,4.3-1.8c-0.1-10.8,0.4-21.5,1.3-32.3c-1.4,0.6-2.8,1.2-4.3,1.8c4.1,4.7,4.2,11,2.7,16.7
				c-1.2,4.7-3.1,12.2-7.3,15c1.2,0.5,2.4,1,3.7,1.5c-0.9-6.3-2.1-12.5-2.8-18.8c-0.7-6.5,2.3-12.6,4.3-18.6
				c-1.6-0.4-3.2-0.9-4.8-1.3c-1.4,7.6-5.5,14.5-6.4,22.3c-0.4,3.2-0.2,6.5,0.9,9.6c1.2,3.5,3.8,6.4,3.4,10.3
				C286.6,256.9,291.6,256.9,291.9,253.7L291.9,253.7z"/>
		</g>
	</g>
	<g>
		<g>
			<path fill="#EFC45D" d="M289.4,241.5c3.8-1.2,5.1-5.4,6.4-8.8c1.6-4.6,2.3-9.4,2.2-14.3c-1.7,0-3.3,0-5,0
				c0.3,5.9,0.5,11.9,0.6,17.8c0,3.2,5,3.2,5,0c-0.1-6-0.2-11.9-0.6-17.8c-0.2-3.2-5-3.2-5,0c0,3.3-0.2,6.5-1,9.6
				c-0.5,1.9-1.8,8-3.9,8.7C285,237.6,286.3,242.5,289.4,241.5L289.4,241.5z"/>
		</g>
	</g>
	<g>
		<g>
			<path fill="#EFC45D" d="M255.9,247c0.6,9.3,4.5,17.5,8.9,25.5c3.6,6.4,8,13.2,16.3,11.7c1-0.2,2-1.4,1.8-2.4
				c-0.8-6.2-5.5-9.6-8.9-14.4c-4.3-6.1-7.2-13-10-19.9c-1.1-2.7-4.5-2.2-4.9,0.7c-1.8,14.3,7.9,25.3,17.2,34.7
				c1.1,1.1,3.2,0.9,3.9-0.5c5.1-9.7-3.3-19.5-9.5-26.5c-0.8-1-1.7-1.9-2.6-2.8c-0.5-0.6-2.9-5-2.6-2.3c-0.8,1.1-0.3,1.8,1.4,1.9
				c0.5,0.5,1.1,0.9,1.6,1.4c1.3,1.3,2.3,2.8,3.2,4.3c3.3,5.4,5.1,11.6,6.8,17.6c0.9,3.1,5.7,1.8,4.8-1.3c-2-6.9-4.1-14.1-8.2-20.2
				c-2.2-3.3-7.5-9.6-12.2-7.6c-4.6,1.9-0.3,7.6,1.6,9.8c4.7,5.4,15.4,15.3,11.3,23.2c1.3-0.2,2.6-0.3,3.9-0.5
				c-8.4-8.6-17.4-18.2-15.8-31.2c-1.6,0.2-3.3,0.4-4.9,0.7c2.3,5.8,4.7,11.6,7.8,17c1.5,2.5,3.1,5,5,7.2c2.2,2.7,5.4,5.1,5.9,8.8
				c0.6-0.8,1.2-1.6,1.8-2.4c-6.8,1.3-10.7-9.2-13.2-14c-3-5.8-5.3-11.8-5.7-18.4C260.7,243.8,255.7,243.8,255.9,247L255.9,247z"/>
		</g>
	</g>
	<g>
		<g>
			<path fill="#EFC45D" d="M298.2,286.7c0.4-6.7,4.5-14.7,7.5-20.6c2.5-4.9,8.5-16.7,15.1-16.4c-0.8-0.8-1.7-1.7-2.5-2.5
				c-0.4,6.6-2.1,13.1-5.1,19c-2,3.9-9.3,16.7-15,15.1c0.5,1.2,1,2.4,1.5,3.7c4.1-5.4,8.3-10.7,12.4-16.1c3.6-4.7,7.1-9.2,8.1-15.1
				c0.3-1.6-1.1-3.9-3.1-3.1c-3.9,1.6-5.4,5.3-7.5,8.7c-3.1,5-6.2,10-9.2,15c1.6,0.4,3.1,0.8,4.7,1.3c0-7.3,3.9-13.4,7.8-19.3
				c0.6-0.8,0.4-2.4-0.4-3c-6.6-5.2-11.6,8-13.4,12.4c-1.2,3,3.6,4.3,4.8,1.3c0.4-0.9,5.4-9.9,5.1-10.2c-0.1-1-0.3-2-0.4-3
				c-4.4,6.7-8.5,13.5-8.5,21.8c0,2.5,3.4,3.3,4.7,1.3c2.2-3.6,4.5-7.2,6.7-10.8c1.5-2.4,4.4-9.5,7.1-10.6c-1-1-2.1-2.1-3.1-3.1
				c-1,6.1-5.1,10.7-8.7,15.4c-3.8,4.9-7.5,9.8-11.3,14.7c-1,1.3,0.1,3.3,1.5,3.7c7.9,2.2,14.7-7.7,18.3-13.3
				c4.9-7.7,7.6-16.5,8.2-25.6c0.1-1.4-1.2-2.4-2.5-2.5c-8.1-0.4-14.6,9.9-18,16.1c-4.1,7.4-9.2,17.3-9.6,25.8
				C293,290,298,290,298.2,286.7L298.2,286.7z"/>
		</g>
	</g>
	<g>
		<g>
			<path fill="#EFC45D" d="M304.2,282.1c3-4.3,6.2-8.4,9.5-12.4c2.1-2.4-1.5-6-3.5-3.5c-3.6,4.3-7.1,8.8-10.3,13.4
				C298.1,282.3,302.4,284.8,304.2,282.1L304.2,282.1z"/>
		</g>
	</g>
	<g>
		<g>
			<path fill="#EFC45D" d="M257.1,284.5c0.7,13.8,12.5,25.9,21.5,35.4c1,1.1,3.3,1,3.9-0.5c3-6.8-1.9-14.2-4.9-20.3
				c-3.3-6.4-7-13.1-13.8-16.2c-2-0.9-4.1,0.6-3.7,2.8c1.3,6.2,5.7,10.8,8.2,16.4c2.3,5,3.9,9.8,8.7,12.9c2.7,1.8,5.2-2.5,2.5-4.3
				c-4.2-2.8-5.4-8.1-7.5-12.4c-2.3-4.7-6-8.6-7.1-14c-1.2,0.9-2.4,1.9-3.7,2.8c5,2.3,7.8,6.6,10.3,11.2c2.3,4.2,8.7,13.6,6.6,18.4
				c1.3-0.2,2.6-0.3,3.9-0.5c-7.9-8.4-19.4-19.6-20.1-31.8C262,281.3,257,281.3,257.1,284.5L257.1,284.5z"/>
		</g>
	</g>
	<g>
		<g>
			<path fill="#EFC45D" d="M281.6,309.4c-2.4-3-4.8-6.1-7.1-9.2c-1.9-2.6-6.2-0.1-4.3,2.5c2.5,3.5,5.2,6.9,7.9,10.2
				C280.1,315.4,283.6,311.9,281.6,309.4L281.6,309.4z"/>
		</g>
	</g>
	<g>
		<g>
			<path fill="#EFC45D" d="M278.4,319.9c1.5-0.2,2.9,1.9,3.6,2.8c0.8,1.1,2.2,1.6,3.4,0.9c1.1-0.6,1.7-2.3,0.9-3.4
				c-2.4-3.1-5-5.7-9.3-5.1c-1.3,0.2-2.1,1.9-1.7,3.1C275.7,319.6,277,320.1,278.4,319.9L278.4,319.9z"/>
		</g>
	</g>
	<g>
		<g>
			<path fill="#EFC45D" d="M298.2,321.8c-0.4-2.6,2.2-6,3.1-8.5c1.2-3.5,2.2-6.8,4.3-9.9c4-5.8,9.8-10.2,15.4-14.3
				c-1.1-0.3-2.3-0.6-3.4-0.9c0.7,1.1-3.2,7.2-3.7,8.1c-1.4,2.6-2.8,5.1-4.4,7.5c-3.2,4.9-6.8,10.8-12.1,13.7
				c1.1,1.1,2.3,2.3,3.4,3.4c5.7-8.4,11.8-16.5,18.1-24.4c-1.4-0.8-2.8-1.6-4.2-2.4c-0.5,3.7-1.5,7.3-3.2,10.6
				c-0.8,1.5-1.6,3-2.6,4.3c-0.3,0.5-4.6,5.6-4.5,4.1c0.1-2.4,5-7.4,6.4-9.1c2.4-3,4.9-5.8,7.6-8.5c2.2-2.3-1.3-5.8-3.5-3.5
				c-3.2,3.2-23,22.7-14.1,27.2c3.9,2,9.1-3.2,11.2-5.8c4.3-5.1,6.8-11.4,7.7-18c0.3-2.1-2.4-4.6-4.2-2.4
				c-6.6,8.2-12.9,16.7-18.9,25.4c-1.5,2.2,1.4,4.5,3.4,3.4c6.8-3.6,11.4-11.3,15.3-17.7c2.3-3.7,4.3-7.6,6.1-11.5
				c1.1-2.4,2.1-4.5,0.6-6.9c-0.6-1.1-2.3-1.7-3.4-0.9c-6.5,4.8-13.2,9.8-17.6,16.8c-2.1,3.3-3.1,6.8-4.4,10.4
				c-1.4,4-3.6,6.8-3.1,11.1C293.9,326.3,298.7,325,298.2,321.8L298.2,321.8z"/>
		</g>
	</g>
	<g>
		<g>
			<path fill="#EFC45D" d="M314.5,295c0.4,4.9-4.9,9.7-8.4,12.4c-2.5,1.9-0.1,6.3,2.5,4.3c5-3.8,11.4-9.9,10.9-16.7
				C319.3,291.8,314.3,291.8,314.5,295L314.5,295z"/>
		</g>
	</g>
	<g>
		<g>
			<path fill="#EFC45D" d="M299.1,356.7c0.8-6.2,4.1-12.9,7.3-18.1c3.4-5.5,8.1-9.7,14.4-11.3c-1-0.6-2.1-1.2-3.1-1.7
				c1.5,5.6-3.4,13.1-6.6,17.5c-3.6,4.9-8.2,8.9-13.4,12c1.3,0.7,2.5,1.4,3.8,2.2c0.2-2.1,2.5-4.5,3.7-6.2c1.6-2.3,3.3-4.6,4.9-6.9
				c3.4-4.7,7-9.2,10.7-13.6c1.4-1.6,0.5-4.2-1.8-4.3c-3.4-0.1-5,3.1-6.9,5.6c-3.4,4.5-6.8,9-10.1,13.6c1.5,0.6,3,1.3,4.6,1.9
				c2.1-6,5.9-10.7,11.1-14.2c-1.2-0.9-2.4-1.9-3.7-2.8c-1.2,2.8-4,4.8-5.7,7.4c-1.6,2.4-2.7,5.1-3.6,7.8c-0.7,2.3,2.5,4.4,4.2,2.4
				c3.1-3.6,6.2-7.3,9.3-10.9c2.1-2.4-1.4-6-3.5-3.5c-3.1,3.6-6.2,7.3-9.3,10.9c1.4,0.8,2.8,1.6,4.2,2.4c1.9-6.1,6.9-9.5,9.2-15.2
				c0.8-2-2-4-3.7-2.8c-6.4,4.2-10.9,10-13.4,17.2c-1,2.9,3,4,4.6,1.9c2.1-2.8,4.1-5.5,6.2-8.3c0.9-1.3,5.1-8.4,6.5-8.4
				c-0.6-1.4-1.2-2.8-1.8-4.3c-4.2,5-8.2,10.1-12,15.4c-3.1,4.3-8.3,9.5-8.8,14.9c-0.2,1.9,2.2,3.1,3.8,2.2
				c6.4-3.8,11.9-8.9,16-15.1c3.7-5.4,8-13.4,6.2-20.1c-0.4-1.3-1.8-2.1-3.1-1.7c-14.4,3.6-23.6,20.4-25.4,34.3
				C293.7,359.9,298.7,359.9,299.1,356.7L299.1,356.7z"/>
		</g>
	</g>
	<g>
		<g>
			<path fill="#EFC45D" d="M256.6,320.5c-0.8,8.6,6.9,17.9,11.7,24.4c2.7,3.7,9,15.5,15,12.2c7-3.8-3.3-13.9-5.7-17.2
				c-3.1-4.2-6.5-8.4-9.4-12.7c-1.8-2.8-2.4-6-5.8-7c-2.1-0.7-3.9,1.8-2.8,3.7c3.7,6.2,7.4,12.3,11.1,18.5
				c2.5,4.1,4.7,10.5,9.9,11.8c1.2,0.3,2.8-0.4,3.1-1.7c2.1-10.9-8.5-22.3-16.8-28.2c-0.2,1.5-0.4,3-0.6,4.6c3.5-1,7.8,5.2,9.4,7.5
				c2,3,3.4,6.2,4.3,9.7c0.8,3.1,5.7,1.8,4.8-1.3c-2-7.5-9.9-23.6-19.8-20.7c-2.2,0.6-2.3,3.4-0.6,4.6c6.2,4.3,16,14.5,14.5,22.5
				c1-0.6,2.1-1.2,3.1-1.7c-2.4-0.6-4.3-5.1-5.4-7c-1.4-2.4-2.9-4.8-4.3-7.2c-2.7-4.6-5.4-9.1-8.2-13.7c-0.9,1.2-1.9,2.4-2.8,3.7
				c1,0.3,3,5,3.7,6c1.7,2.3,3.4,4.6,5.1,6.9c0.9,1.2,10.3,13,9.9,13.5c0.1-0.1-9.3-12-10.1-13.2c-3.4-4.9-8.6-11.6-8.1-17.7
				C261.9,317.3,256.9,317.3,256.6,320.5L256.6,320.5z"/>
		</g>
	</g>
	<g>
		<g>
			<path fill="#EFC45D" d="M256.4,357.8c-0.7,8.8,0.5,15.2,6,22.3c2.9,3.8,6.1,7.4,9.4,10.8c2.5,2.6,5,5.7,8.7,6.3
				c1.8,0.3,3.6-1.1,3.1-3.1c-1.6-6.1-5.3-10.8-9.2-15.6c-5-6.2-8.5-12.5-9.6-20.6c-0.3-2.1-3.7-2.5-4.6-0.6
				c-6.2,13.8,10.7,28.8,20.7,35.6c1.7,1.2,4.5-0.8,3.7-2.8c-4.3-10.9-10.2-20.9-17.7-29.9c-0.6,1.4-1.2,2.8-1.8,4.3
				c9.9,0.5,12.2,11.8,13.6,19.5c1.6-0.4,3.2-0.9,4.8-1.3c-2.7-6.9-6.6-13-11.8-18.4c-2.2-2.3-5.8,1.2-3.5,3.5
				c4.6,4.7,8.1,10,10.5,16.2c1.2,3,5.4,1.9,4.8-1.3c-2-10.4-6-22.6-18.5-23.2c-2.3-0.1-3.1,2.7-1.8,4.3c7,8.3,12.5,17.6,16.4,27.7
				c1.2-0.9,2.4-1.9,3.7-2.8c-4.6-3.2-8.8-6.8-12.4-11.1c-3.7-4.5-9.3-11.5-6.5-17.6c-1.5-0.2-3-0.4-4.6-0.6
				c1,6.9,3.6,13.1,7.7,18.7c4.2,5.6,9.3,10.6,11.1,17.5c1-1,2.1-2.1,3.1-3.1c-3.2-0.5-6.2-4.7-8.3-7c-2.2-2.4-4.4-4.9-6.5-7.5
				c-2.2-2.7-4.4-5.5-5.3-8.9c-1-3.6-0.6-7.5-0.3-11.2C261.6,354.6,256.6,354.6,256.4,357.8L256.4,357.8z"/>
		</g>
	</g>
	<g>
		<g>
			<path fill="#EFC45D" d="M299.5,395.5c3.6-11.1,9.9-26.8,21.8-31.2c-1.1-0.8-2.1-1.6-3.2-2.4c-0.2,2.9-3.8,5.7-5.6,7.7
				c-2.1,2.4-4.1,4.8-6,7.2c-3.7,4.6-7.2,9.2-10.7,14c1.5,0.2,3,0.4,4.6,0.6c-1-4.1,3.4-8.3,5.5-11.3c2.1-2.9,4.2-5.9,6.3-8.8
				c1.1-1.6-0.4-3.7-2.2-3.8c-5.4-0.1-9,5.8-11.4,10c-2,3.4-6,10.4-4.4,14.5c1.8,4.5,6,1.2,8.1-1c5.9-6.3,11.5-12.9,17.2-19.4
				c-1.3-1-2.6-2-3.9-3c-4.3,9.6-14,15.3-17.9,25.3c-0.9,2.4,2.5,4.1,4.2,2.4c8.6-8.6,20.7-18.7,21.7-31.6c0.2-2.5-3.5-3.4-4.7-1.3
				c-2.2,4.1-2.8,8.7-4.6,12.9c-1.9,4.4-4.7,8.1-8.3,11.2c-2.4,2.1,1.1,5.6,3.5,3.5c3.4-3,6.3-6.4,8.3-10.5
				c2.4-4.7,2.9-10.1,5.4-14.7c-1.6-0.4-3.1-0.8-4.7-1.3c-0.5,6.5-4.6,11-8.7,15.8c-3.7,4.2-7.6,8.3-11.5,12.3
				c1.4,0.8,2.8,1.6,4.2,2.4c3.6-9.4,13.2-14.9,17.4-24.1c1.1-2.4-1.9-5.3-3.9-3c-2.9,3.2-5.7,6.5-8.6,9.7c-2.6,3-6.6,6.3-8.6,9.7
				c-1.7,1.3-1.9,1.7-0.4,1.5c1.1,0.2,1.5-0.3,1.4-1.5c1-1.5,1.3-3.6,2.1-5.2c1.4-2.8,4.7-9.6,8.3-9.6c-0.7-1.3-1.4-2.5-2.2-3.8
				c-3.1,4.4-6.4,8.7-9.4,13.2c-2.3,3.4-3.8,6.6-2.8,10.7c0.5,2.3,3.4,2.2,4.6,0.6c4.5-6.2,9.2-12.2,14.1-18c3.4-4,8.4-7.9,8.9-13.4
				c0.1-1.5-1.7-2.9-3.2-2.4c-14,5.1-21,21.5-25.3,34.7C293.6,397.3,298.5,398.6,299.5,395.5L299.5,395.5z"/>
		</g>
	</g>
	<g>
		<g>
			<path fill="#EFC45D" d="M303.9,433.7c-0.6-8-1.8-15.8-2.7-23.8c-0.3-2.8-3.8-3.3-4.9-0.7c-3.1,7.6-3,15.7,0.1,23.2
				c1.2,3,5.3,1.9,4.8-1.3c-0.9-5.8-3.4-11.5-3.6-17.4c-0.1-3-0.5-5.6-3.9-6.2c-1.1-0.2-2.3,0.1-2.8,1.1c-4.2,7.8-5.6,18,0,25.5
				c0.7,1,1.6,1.4,2.8,1.1c10.1-1.9,2.7-19.5-0.5-24.7c-0.8-1.3-2.8-1.8-3.9-0.5c-7.1,8.1-0.9,17.2-4,26.3c1.6,0,3.2,0,4.8,0
				c-0.2-1.3-0.4-1.6-0.6-1c-0.6,0.6-1.2,1.2-1.7,1.7c-0.6-0.6-1.2-1.2-1.9-1.8c1.4,0.4,2.8,0.7,4.2,1.1c-2.1-5.1-2.1-10.3-2.3-15.7
				c-0.1-1.3-0.1-2.6-0.1-3.9c0-0.7,0.1-1.5,0.1-2.2c-0.2-1.6,0.8-1-0.7-1.7c2.9,1.5,5.4-2.9,2.5-4.3c-11.3-5.7-5.5,26-4.2,29.2
				c0.7,1.8,2.7,2.5,4.2,1.1c2-1.7,1.7-5.2-0.8-6.3c-3.8-1.7-4.4,2.7-3.4,5.2c0.9,2.3,4,2.5,4.8,0c2.6-7.6-2.9-17.7,2.7-24.1
				c-1.3-0.2-2.6-0.3-3.9-0.5c1.1,1.8,7.8,16.5,3.5,17.3c0.9,0.4,1.9,0.8,2.8,1.1c-4.6-6.1-3.4-14.1,0-20.5
				c-0.9,0.4-1.9,0.8-2.8,1.1c0.1,0,1.1,7.4,1.2,7.6c1,4.2,2.2,8.3,2.9,12.5c1.6-0.4,3.2-0.9,4.8-1.3c-2.8-6.8-2.9-13.7-0.1-20.6
				c-1.6-0.2-3.3-0.4-4.9-0.7c0.9,7.9,2.1,15.8,2.7,23.8C299.1,436.9,304.1,436.9,303.9,433.7L303.9,433.7z"/>
		</g>
	</g>
	<g>
		<g>
			<path fill="#EFC45D" d="M291.5,414.5c0,4.1,0.9,9.2-0.3,13.2c-1,3.7-5,6.7-7.6,9.4c-1.7,1.8,0,4.9,2.4,4.2
				c2.5-0.7,3.7-2.4,5.8-3.9c3-2.1,6.7-1.6,10.2-1.1c3.2,0.4,3.2-4.6,0-5c-3.2-0.4-6.4-0.7-9.5,0.2c-3.1,0.9-4.8,4.1-7.7,5
				c0.8,1.4,1.6,2.8,2.4,4.2c2.9-3,7.4-6.3,8.9-10.3c1.7-4.6,0.5-11,0.5-15.8C296.5,411.3,291.5,411.3,291.5,414.5L291.5,414.5z"/>
		</g>
	</g>
	<g>
		<g>
			<path fill="#EFC45D" d="M284.8,441.8c1.9-1.4,3.5-3,4.7-5c0.7-1.1,0.2-2.8-0.9-3.4c-1.2-0.7-2.7-0.2-3.4,0.9
				c-0.2,0.3-0.4,0.7-0.7,1c0,0.1-0.4,0.5-0.6,0.7c-0.5,0.6-1.2,1.2-1.6,1.5c-1.1,0.8-1.6,2.2-0.9,3.4
				C282,441.9,283.7,442.6,284.8,441.8L284.8,441.8z"/>
		</g>
	</g>
	<g>
		<g>
			<path fill="#EFC45D" d="M403.5,555c3.2,0,3.2-5,0-5C400.3,550,400.3,555,403.5,555L403.5,555z"/>
		</g>
	</g>
</g>
<g id="Layer_2">
	<g>
		<g>
			<path d="M156.2,128.4c3.7,0,7.3,0,11,0c0.8,0,0.8-1.2,0-1.2c-3.7,0-7.3,0-11,0C155.4,127.1,155.4,128.4,156.2,128.4L156.2,128.4z
				"/>
		</g>
	</g>
	<g>
		<g>
			<path d="M171.8,128.4c0.5,0,1,0,1.5,0c0.8,0,0.8-1.2,0-1.2c-0.5,0-1,0-1.5,0C170.9,127.1,170.9,128.4,171.8,128.4L171.8,128.4z"
				/>
		</g>
	</g>
	<g>
		<g>
			<path d="M177,128.4c3.7,0,7.3,0,11,0c0.8,0,0.8-1.2,0-1.2c-3.7,0-7.3,0-11,0C176.2,127.1,176.2,128.4,177,128.4L177,128.4z"/>
		</g>
	</g>
	<g>
		<g>
			<path d="M192.1,126.8c0-0.5,0-1,0-1.5c0-0.8-1.2-0.8-1.2,0c0,0.5,0,1,0,1.5C190.9,127.6,192.1,127.6,192.1,126.8L192.1,126.8z"/>
		</g>
	</g>
	<g>
		<g>
			<path d="M192.1,122c0-4,0-8,0-12c0-0.8-1.2-0.8-1.2,0c0,4,0,8,0,12C190.9,122.8,192.1,122.8,192.1,122L192.1,122z"/>
		</g>
	</g>
	<g>
		<g>
			<path d="M192.1,106.2c0-0.6,0-1.2,0-1.8c0-0.8-1.2-0.8-1.2,0c0,0.6,0,1.2,0,1.8C190.9,107.1,192.1,107.1,192.1,106.2L192.1,106.2
				z"/>
		</g>
	</g>
	<g>
		<g>
			<path d="M192.1,101.2c0-3.8,0-7.7,0-11.5c0-0.8-1.2-0.8-1.2,0c0,3.8,0,7.7,0,11.5C190.9,102.1,192.1,102.1,192.1,101.2
				L192.1,101.2z"/>
		</g>
	</g>
	<g>
		<g>
			<path d="M192.1,85.8c0-0.8,0-1.5,0-2.2c0-0.8-1.2-0.8-1.2,0c0,0.8,0,1.5,0,2.2C190.9,86.6,192.1,86.6,192.1,85.8L192.1,85.8z"/>
		</g>
	</g>
	<g>
		<g>
			<path d="M192.9,80.5c0-1.9,0-3.7,0-5.6c0-0.3-0.1-0.9,0-1.2c-0.1-0.4,0.1-0.5,0.5-0.3c0.2,0,0.4,0,0.6,0c0.9-0.1,1.9-0.1,2.8-0.2
				c0.8-0.1,0.8-1.3,0-1.2c-1.3,0.1-2.7,0.1-3.9,0.3c-0.6,0.1-0.9,0.2-1.1,0.8c-0.4,0.8-0.1,2.2-0.1,3.1c0,1.5,0,2.9,0,4.4
				C191.6,81.3,192.9,81.3,192.9,80.5L192.9,80.5z"/>
		</g>
	</g>
	<g>
		<g>
			<path d="M200.2,73.1c0.7,0,1.3,0,2,0c0.8,0,0.8-1.2,0-1.2c-0.7,0-1.3,0-2,0C199.4,71.9,199.4,73.1,200.2,73.1L200.2,73.1z"/>
		</g>
	</g>
	<g>
		<g>
			<path d="M205.5,73.4c3.9-0.1,7.8-0.2,11.7-0.4c0.8,0,0.8-1.3,0-1.2c-3.9,0.1-7.8,0.2-11.7,0.4C204.7,72.2,204.7,73.5,205.5,73.4
				L205.5,73.4z"/>
		</g>
	</g>
	<g>
		<g>
			<path d="M220.5,73.1c0.6,0,1.2,0,1.8,0c0.8,0,0.8-1.2,0-1.2c-0.6,0-1.2,0-1.8,0C219.7,71.9,219.7,73.1,220.5,73.1L220.5,73.1z"/>
		</g>
	</g>
	<g>
		<g>
			<path d="M226.3,73.7c3.8-0.2,7.7-0.4,11.5-0.6c0.8,0,0.8-1.3,0-1.2c-3.8,0.2-7.7,0.4-11.5,0.6C225.5,72.5,225.4,73.7,226.3,73.7
				L226.3,73.7z"/>
		</g>
	</g>
	<g>
		<g>
			<path d="M241.8,73.6c0.5,0,1,0,1.5,0c0.8,0,0.8-1.2,0-1.2c-0.5,0-1,0-1.5,0C240.9,72.4,240.9,73.6,241.8,73.6L241.8,73.6z"/>
		</g>
	</g>
	<g>
		<g>
			<path d="M246.3,73.6c4.1,0.1,8.2,0.1,12.3-0.1c0.8,0,0.8-1.3,0-1.2c-4.1,0.2-8.2,0.2-12.3,0.1C245.4,72.3,245.4,73.6,246.3,73.6
				L246.3,73.6z"/>
		</g>
	</g>
	<g>
		<g>
			<path d="M262,73.9c0.8,0,1.5,0,2.2,0c0.8,0,0.8-1.2,0-1.2c-0.8,0-1.5,0-2.2,0C261.2,72.6,261.2,73.9,262,73.9L262,73.9z"/>
		</g>
	</g>
	<g>
		<g>
			<path d="M267.2,73.4c4.2,0,8.5,0,12.8,0c0.8,0,0.8-1.2,0-1.2c-4.2,0-8.5,0-12.8,0C266.4,72.1,266.4,73.4,267.2,73.4L267.2,73.4z"
				/>
		</g>
	</g>
	<g>
		<g>
			<path d="M283,73.9c0.5,0,1,0,1.5,0c0.8,0,0.8-1.2,0-1.2c-0.5,0-1,0-1.5,0C282.2,72.6,282.2,73.9,283,73.9L283,73.9z"/>
		</g>
	</g>
	<g>
		<g>
			<path d="M288.8,73.4c3.8,0,7.5,0,11.2,0c0.8,0,0.8-1.2,0-1.2c-3.8,0-7.5,0-11.2,0C287.9,72.1,287.9,73.4,288.8,73.4L288.8,73.4z"
				/>
		</g>
	</g>
	<g>
		<g>
			<path d="M303.5,73.7c0.8-0.1,1.7-0.2,2.5-0.3c0.8-0.1,0.8-1.3,0-1.2c-0.8,0.1-1.7,0.2-2.5,0.3C302.7,72.5,302.7,73.8,303.5,73.7
				L303.5,73.7z"/>
		</g>
	</g>
	<g>
		<g>
			<path d="M309.2,73.6c3.7,0,7.3,0,11,0c0.8,0,0.8-1.2,0-1.2c-3.7,0-7.3,0-11,0C308.4,72.4,308.4,73.6,309.2,73.6L309.2,73.6z"/>
		</g>
	</g>
	<g>
		<g>
			<path d="M324.5,73.9c0.5,0,1,0,1.5,0c0.8,0,0.8-1.2,0-1.2c-0.5,0-1,0-1.5,0C323.7,72.6,323.7,73.9,324.5,73.9L324.5,73.9z"/>
		</g>
	</g>
	<g>
		<g>
			<path d="M329.8,73.6c4,0,8,0,12,0c0.8,0,0.8-1.2,0-1.2c-4,0-8,0-12,0C328.9,72.4,328.9,73.6,329.8,73.6L329.8,73.6z"/>
		</g>
	</g>
	<g>
		<g>
			<path d="M345,73.6c0.5,0,1,0,1.5,0c0.8,0,0.8-1.2,0-1.2c-0.5,0-1,0-1.5,0C344.2,72.4,344.2,73.6,345,73.6L345,73.6z"/>
		</g>
	</g>
	<g>
		<g>
			<path d="M350,73.7c4.2-0.1,8.5-0.2,12.7-0.3c0.8,0,0.8-1.3,0-1.2c-4.2,0.1-8.5,0.2-12.7,0.3C349.2,72.4,349.2,73.7,350,73.7
				L350,73.7z"/>
		</g>
	</g>
	<g>
		<g>
			<path d="M362.5,72.6c-0.6,4.3-0.8,8.6-0.6,12.9c0,0.8,1.3,0.8,1.2,0c-0.2-4.2,0-8.4,0.6-12.6C363.8,72.1,362.6,71.8,362.5,72.6
				L362.5,72.6z"/>
		</g>
	</g>
	<g>
		<g>
			<path d="M361.9,88.1c-0.1,0.9-0.1,1.7,0.2,2.6c0.3,0.8,1.5,0.4,1.2-0.3c-0.2-0.6-0.3-1.3-0.2-1.9C363.3,87.6,362,87.3,361.9,88.1
				L361.9,88.1z"/>
		</g>
	</g>
	<g>
		<g>
			<path d="M361.6,94c0,3.6,0,7.2,0,10.8c0,0.8,1.2,0.8,1.2,0c0-3.6,0-7.2,0-10.8C362.9,93.2,361.6,93.2,361.6,94L361.6,94z"/>
		</g>
	</g>
	<g>
		<g>
			<path d="M361.9,108.8c0,0.8,0,1.7,0,2.5c0,0.8,1.2,0.8,1.2,0c0-0.8,0-1.7,0-2.5C363.1,107.9,361.9,107.9,361.9,108.8L361.9,108.8
				z"/>
		</g>
	</g>
	<g>
		<g>
			<path d="M361.9,114.8c-0.1,3.7-0.2,7.5-0.3,11.2c0,0.8,1.2,0.8,1.2,0c0.1-3.7,0.2-7.5,0.3-11.2
				C363.2,113.9,362,113.9,361.9,114.8L361.9,114.8z"/>
		</g>
	</g>
	<g>
		<g>
			<path d="M361.6,130c0,0.7,0,1.3,0,2c0,0.8,1.2,0.8,1.2,0c0-0.7,0-1.3,0-2C362.9,129.2,361.6,129.2,361.6,130L361.6,130z"/>
		</g>
	</g>
	<g>
		<g>
			<path d="M361.6,135.2c0,3.9,0,7.8,0,11.8c0,0.8,1.2,0.8,1.2,0c0-3.9,0-7.8,0-11.8C362.9,134.4,361.6,134.4,361.6,135.2
				L361.6,135.2z"/>
		</g>
	</g>
	<g>
		<g>
			<path d="M361.6,150.5c0,0.8,0,1.5,0,2.2c0,0.8,1.2,0.8,1.2,0c0-0.8,0-1.5,0-2.2C362.9,149.7,361.6,149.7,361.6,150.5L361.6,150.5
				z"/>
		</g>
	</g>
	<g>
		<g>
			<path d="M360.9,155.5c-0.1,4.2-0.2,8.3-0.3,12.5c0,0.8,1.2,0.8,1.2,0c0.1-4.2,0.2-8.3,0.3-12.5
				C362.2,154.7,360.9,154.7,360.9,155.5L360.9,155.5z"/>
		</g>
	</g>
	<g>
		<g>
			<path d="M360.6,170.8c0,0.7,0,1.3,0,2c0,0.8,1.2,0.8,1.2,0c0-0.7,0-1.3,0-2C361.9,169.9,360.6,169.9,360.6,170.8L360.6,170.8z"/>
		</g>
	</g>
	<g>
		<g>
			<path d="M359.9,176.5c0,3.9,0,7.8,0,11.8c0,0.8,1.2,0.8,1.2,0c0-3.9,0-7.8,0-11.8C361.1,175.7,359.9,175.7,359.9,176.5
				L359.9,176.5z"/>
		</g>
	</g>
	<g>
		<g>
			<path d="M358.9,192c0,0.6,0,1.2,0,1.8c0,0.8,1.2,0.8,1.2,0c0-0.6,0-1.2,0-1.8C360.1,191.2,358.9,191.2,358.9,192L358.9,192z"/>
		</g>
	</g>
	<g>
		<g>
			<path d="M358.7,197.2c0,3.8-0.2,7.6-0.8,11.3c-0.1,0.8,1.1,1.1,1.2,0.3c0.6-3.9,0.9-7.7,0.8-11.7
				C359.9,196.4,358.7,196.4,358.7,197.2L358.7,197.2z"/>
		</g>
	</g>
	<g>
		<g>
			<path d="M357.9,212.8c0,0.4,0,0.8,0,1.2c0,0.8,1.2,0.8,1.2,0c0-0.4,0-0.8,0-1.2C359.1,211.9,357.9,211.9,357.9,212.8L357.9,212.8
				z"/>
		</g>
	</g>
	<g>
		<g>
			<path d="M357.2,217.7c0,3.9-0.2,7.7-0.8,11.6c-0.1,0.8,1.1,1.1,1.2,0.3c0.6-4,0.8-7.9,0.8-11.9
				C358.4,216.9,357.1,216.9,357.2,217.7L357.2,217.7z"/>
		</g>
	</g>
	<g>
		<g>
			<path d="M356.1,233.5c0,0.7,0,1.3,0,2c0,0.8,1.2,0.8,1.2,0c0-0.7,0-1.3,0-2C357.4,232.7,356.1,232.7,356.1,233.5L356.1,233.5z"/>
		</g>
	</g>
	<g>
		<g>
			<path d="M355.8,238.5c0.3,4.1,0.1,8.2-0.8,12.3c-0.2,0.8,1,1.1,1.2,0.3c0.9-4.2,1.2-8.4,0.9-12.6
				C357,237.7,355.8,237.7,355.8,238.5L355.8,238.5z"/>
		</g>
	</g>
	<g>
		<g>
			<path d="M354.4,254c0,0.7,0,1.3,0,2c0,0.8,1.2,0.8,1.2,0c0-0.7,0-1.3,0-2C355.6,253.2,354.4,253.2,354.4,254L354.4,254z"/>
		</g>
	</g>
	<g>
		<g>
			<path d="M354.4,259.2c0,0.4,0,0.8,0,1.2c0,0.8,1.2,0.8,1.2,0c0-0.4,0-0.8,0-1.2C355.6,258.4,354.4,258.4,354.4,259.2L354.4,259.2
				z"/>
		</g>
	</g>
	<g>
		<g>
			<path d="M354.8,261.3c0.9,0.1,1.7,0.1,2.6-0.2c0.8-0.3,0.4-1.5-0.3-1.2c-0.6,0.2-1.3,0.3-1.9,0.2
				C354.4,260,354,261.2,354.8,261.3L354.8,261.3z"/>
		</g>
	</g>
	<g>
		<g>
			<path d="M358,260.7c0.4-1.7,2.4-2.1,3.6-0.7c0.5,0.6,1.4-0.3,0.9-0.9c-1.7-2.1-5-1.3-5.6,1.3C356.6,261.1,357.8,261.4,358,260.7
				L358,260.7z"/>
		</g>
	</g>
	<g>
		<g>
			<path d="M362.2,260.1c1.4,0,2.8,0,4.2,0c0.8,0,0.8-1.2,0-1.2c-1.4,0-2.8,0-4.2,0C361.4,258.9,361.4,260.1,362.2,260.1
				L362.2,260.1z"/>
		</g>
	</g>
	<g>
		<g>
			<path d="M368,260.4c0.2,0,0.5,0,0.8,0c0.8,0,0.8-1.2,0-1.2c-0.2,0-0.5,0-0.8,0C367.2,259.1,367.2,260.4,368,260.4L368,260.4z"/>
		</g>
	</g>
	<g>
		<g>
			<path d="M371.8,259.5c1.9,0.8,3.8,1.3,5.9,1.4c2,0.1,3.7,1.1,5.7,0.7c0.8-0.2,0.5-1.4-0.3-1.2c-1.5,0.4-3.2-0.6-4.7-0.7
				c-2.1-0.1-3.9-0.4-5.9-1.2C371.7,258.1,371.1,259.2,371.8,259.5L371.8,259.5z"/>
		</g>
	</g>
	<g>
		<g>
			<path d="M383.9,262.3c0.6,0.4,1.1,0.7,1.7,1.1c0.7,0.4,1.3-0.7,0.6-1.1c-0.6-0.4-1.1-0.7-1.7-1.1
				C383.9,260.8,383.3,261.8,383.9,262.3L383.9,262.3z"/>
		</g>
	</g>
	<g>
		<g>
			<path d="M387.9,264.5c1.3,0.4,2.3,0.1,3.5-0.3c1-0.3,1.9-0.7,3-0.5c1,0.3,1.8,1.1,2.6,1.8c0.6,0.6,1.5-0.3,0.9-0.9
				c-1.1-1-2.3-2.1-3.9-2.2c-2-0.2-3.8,1.5-5.8,0.9C387.4,263.1,387.1,264.3,387.9,264.5L387.9,264.5z"/>
		</g>
	</g>
	<g>
		<g>
			<path d="M398.7,266.8c0.2,0.1,0.3,0.2,0.5,0.3c0.7,0.4,1.3-0.7,0.6-1.1c-0.2-0.1-0.3-0.2-0.5-0.3
				C398.6,265.3,398,266.4,398.7,266.8L398.7,266.8z"/>
		</g>
	</g>
	<g>
		<g>
			<path d="M401.4,269.6c2.2,1.5,4.3,3,6.5,4.5c0.7,0.5,1.3-0.6,0.6-1.1c-2.2-1.5-4.3-3-6.5-4.5C401.4,268,400.8,269.1,401.4,269.6
				L401.4,269.6z"/>
		</g>
	</g>
	<g>
		<g>
			<path d="M409.1,274.4c0.1,0.7,0,1.4-0.4,2c-0.5,0.7,0.6,1.3,1.1,0.6c0.6-0.9,0.8-1.9,0.6-3C410.2,273.3,409,273.6,409.1,274.4
				L409.1,274.4z"/>
		</g>
	</g>
	<g>
		<g>
			<path d="M409.8,279.4c3.2,0.8,6.1-1.4,6.3-4.7c0-0.8-1.2-0.8-1.2,0c-0.1,2.5-2.3,4.1-4.7,3.5C409.4,278,409,279.2,409.8,279.4
				L409.8,279.4z"/>
		</g>
	</g>
	<g>
		<g>
			<path d="M416.5,273.1c0.2-0.5,0.5-1,0.8-1.5c0.4-0.7-0.7-1.4-1.1-0.6c-0.2,0.5-0.5,1-0.8,1.5
				C415.1,273.2,416.2,273.8,416.5,273.1L416.5,273.1z"/>
		</g>
	</g>
	<g>
		<g>
			<path d="M417.8,269.7c0.3-1.7,0.2-3.4-0.4-5.1c-0.3-0.8-1.5-0.4-1.2,0.3c0.5,1.4,0.6,2.9,0.4,4.4
				C416.4,270.1,417.6,270.4,417.8,269.7L417.8,269.7z"/>
		</g>
	</g>
	<g>
		<g>
			<path d="M416.5,265.1c1.6,0.1,3.1,0.6,4.4,1.5c0.7,0.4,1.3-0.7,0.6-1.1c-1.6-0.9-3.3-1.5-5.1-1.6
				C415.7,263.7,415.7,265,416.5,265.1L416.5,265.1z"/>
		</g>
	</g>
	<g>
		<g>
			<path d="M424.3,265.2c-0.3-0.5-0.7-1-1-1.5c-0.5-0.7-1.5,0-1.1,0.6c0.3,0.5,0.7,1,1,1.5C423.7,266.4,424.8,265.8,424.3,265.2
				L424.3,265.2z"/>
		</g>
	</g>
	<g>
		<g>
			<path d="M421.4,262.4c-0.9,0.1-1.6-1.8-2.1-2.4c-0.6-0.8-1.4-1.5-2.2-2.1c-0.7-0.4-1.3,0.6-0.6,1.1c1.3,0.9,2,2,2.9,3.2
				c0.6,0.9,1.3,1.5,2.4,1.3C422.5,263.5,422.2,262.3,421.4,262.4L421.4,262.4z"/>
		</g>
	</g>
	<g>
		<g>
			<path d="M415.4,257.5c-0.4-0.1-0.8-0.2-1.3-0.2c-0.8-0.2-1.1,1-0.3,1.2c0.4,0.1,0.8,0.2,1.3,0.2
				C415.9,258.8,416.2,257.6,415.4,257.5L415.4,257.5z"/>
		</g>
	</g>
	<g>
		<g>
			<path d="M413.1,255.6c-0.9-0.8,0.4-1.4,1.1-1.5c0.5,0,1.1,0.1,1.5,0.3c1.1,0.4,1.8,1.2,2.4,2.2c0.4,0.7,1.5,0.1,1.1-0.6
				c-1-1.9-3.1-3.3-5.4-3.1c-1.7,0.2-3.3,2.2-1.6,3.6C412.8,257,413.7,256.1,413.1,255.6L413.1,255.6z"/>
		</g>
	</g>
	<g>
		<g>
			<path d="M419.6,258.7c0.4,0.3,0.8,0.7,1.2,1c0.6,0.5,1.5-0.4,0.9-0.9c-0.4-0.3-0.8-0.7-1.2-1
				C419.8,257.3,418.9,258.2,419.6,258.7L419.6,258.7z"/>
		</g>
	</g>
	<g>
		<g>
			<path d="M422.7,261.5c2,1.3,4.1,2.6,6.1,3.9c0.7,0.4,1.3-0.6,0.6-1.1c-2-1.3-4.1-2.6-6.1-3.9C422.7,259.9,422.1,261,422.7,261.5
				L422.7,261.5z"/>
		</g>
	</g>
	<g>
		<g>
			<path d="M432.4,267.1c0.7-0.1,1.3,0,1.9,0.2c0.8,0.3,1.1-0.9,0.3-1.2c-0.8-0.3-1.7-0.3-2.6-0.2
				C431.3,266,431.6,267.3,432.4,267.1L432.4,267.1z"/>
		</g>
	</g>
	<g>
		<g>
			<path d="M436.6,269.4c2.1,1.7,4.3,3.2,6.6,4.6c0.7,0.4,1.3-0.7,0.6-1.1c-2.2-1.3-4.4-2.8-6.4-4.4
				C436.9,268,436,268.9,436.6,269.4L436.6,269.4z"/>
		</g>
	</g>
	<g>
		<g>
			<path d="M446.1,277.2c0,0.7,0,1.3,0,2c0,0.8,1.2,0.8,1.2,0c0-0.7,0-1.3,0-2C447.4,276.4,446.1,276.4,446.1,277.2L446.1,277.2z"/>
		</g>
	</g>
	<g>
		<g>
			<path d="M438.2,287.2c0.4-2.1,1.9-3.7,4-4.1c0.5-0.1,1-0.1,1.4-0.4c0.3-0.3,0.3-1.8,1-1.5c0.7,0.3,1.4-0.8,0.6-1.1
				c-0.8-0.3-1.7-0.3-2.3,0.5c-0.3,0.4-0.2,0.7-0.4,1.1c-0.2,0.4,0.2,0-0.3,0.2c-0.2,0.1-0.6,0.1-0.8,0.1c-2.3,0.6-4.1,2.5-4.6,4.9
				C436.8,287.6,438,288,438.2,287.2L438.2,287.2z"/>
		</g>
	</g>
	<g>
		<g>
			<path d="M433.3,290.8c0.4-0.3,0.9-0.6,1.3-1c0.6-0.5,0-1.6-0.6-1.1c-0.4,0.3-0.9,0.6-1.3,1C432,290.1,432.6,291.2,433.3,290.8
				L433.3,290.8z"/>
		</g>
	</g>
	<g>
		<g>
			<path d="M422.1,301.3c1.3-1.6,2.7-3.1,4-4.7c1.3-1.5,2.5-3,4.2-3.8c0.7-0.4,0.1-1.4-0.6-1.1c-1.7,0.8-2.9,2.2-4.1,3.5
				c-1.5,1.7-3,3.4-4.4,5.2C420.7,301,421.5,301.9,422.1,301.3L422.1,301.3z"/>
		</g>
	</g>
	<g>
		<g>
			<path d="M418.4,304c0-0.5,0.3-0.8,0.7-0.9c0.7-0.3,0.1-1.4-0.6-1.1c-0.8,0.4-1.3,1.2-1.3,2C417.1,304.8,418.3,304.8,418.4,304
				L418.4,304z"/>
		</g>
	</g>
	<g>
		<g>
			<path d="M406.9,314.4c2.4-2.6,4.8-5.2,7.2-7.8c0.5-0.6-0.3-1.5-0.9-0.9c-2.4,2.6-4.8,5.2-7.2,7.8
				C405.5,314.1,406.3,315,406.9,314.4L406.9,314.4z"/>
		</g>
	</g>
	<g>
		<g>
			<path d="M401.7,316.9c0.4-0.2,0.8-0.3,1.2-0.5c0.3-0.1,0.5-0.4,0.4-0.8c-0.1-0.3-0.5-0.6-0.8-0.4c-0.4,0.2-0.8,0.3-1.2,0.5
				c-0.3,0.1-0.5,0.4-0.4,0.8C401,316.8,401.4,317,401.7,316.9L401.7,316.9z"/>
		</g>
	</g>
	<g>
		<g>
			<path d="M389.8,325.6c2.8-2.4,5.9-4.4,9.3-6c0.7-0.4,0.1-1.4-0.6-1.1c-3.4,1.7-6.6,3.7-9.5,6.2
				C388.3,325.2,389.2,326.1,389.8,325.6L389.8,325.6z"/>
		</g>
	</g>
	<g>
		<g>
			<path d="M384.8,328.6c0.5-0.3,1-0.5,1.5-0.8c0.7-0.4,0.1-1.4-0.6-1.1c-0.5,0.3-1,0.5-1.5,0.8C383.5,327.9,384.1,329,384.8,328.6
				L384.8,328.6z"/>
		</g>
	</g>
	<g>
		<g>
			<path d="M371.6,336.8c4.2-0.6,7.6-3.2,10.8-5.7c0.6-0.5-0.3-1.4-0.9-0.9c-3.1,2.4-6.3,4.8-10.3,5.4
				C370.5,335.8,370.8,337,371.6,336.8L371.6,336.8z"/>
		</g>
	</g>
	<g>
		<g>
			<path d="M367.1,338.8c0.9,0.2,1.7,0,2.4-0.6c0.6-0.6-0.3-1.4-0.9-0.9c-0.3,0.3-0.7,0.4-1.1,0.3
				C366.6,337.4,366.3,338.6,367.1,338.8L367.1,338.8z"/>
		</g>
	</g>
	<g>
		<g>
			<path d="M364.2,338.7c-2.3-0.5-4.5,1.9-5.6,3.7c-1.1,1.8-1.2,4.3,0.5,5.7c0.6,0.5,1.5-0.4,0.9-0.9c-1.3-1.1-1.2-2.8-0.3-4.2
				c0.7-1.2,2.6-3.4,4.2-3.1C364.6,340.1,364.9,338.8,364.2,338.7L364.2,338.7z"/>
		</g>
	</g>
	<g>
		<g>
			<path d="M360.6,352.2c0-0.5,0-1,0-1.5c0-0.8-1.2-0.8-1.2,0c0,0.5,0,1,0,1.5C359.4,353.1,360.6,353.1,360.6,352.2L360.6,352.2z"/>
		</g>
	</g>
	<g>
		<g>
			<path d="M358.6,355.3c-1.3,1.5-3.4,2.1-4.3,3.9c-1.1,2.1,0.1,4.3,1.3,6c0.4,0.7,1.5,0,1.1-0.6c-1.3-2-2.3-4.3-0.1-6
				c1-0.8,2.1-1.4,2.9-2.4C360,355.6,359.1,354.7,358.6,355.3L358.6,355.3z"/>
		</g>
	</g>
	<g>
		<g>
			<path d="M324.8,417.9c0.3-1.2-0.1-2.5-1.1-3.2c-0.8-0.5-1.6-0.3-2.3-0.9c-1.6-1.3,0.7-2.7,1.7-3.4c0.7-0.4,0.1-1.5-0.6-1.1
				c-1.5,0.9-3.2,2.2-2.9,4.2c0.1,0.7,0.5,1.3,1.1,1.7c1.2,0.7,3.6,0.1,2.9,2.4C323.4,418.3,324.6,418.7,324.8,417.9L324.8,417.9z"
				/>
		</g>
	</g>
	<g>
		<g>
			<path d="M321.9,406.6c-0.3-0.9,0-1.8,0.7-2.4c0.6-0.5-0.3-1.4-0.9-0.9c-1.1,0.9-1.5,2.3-1.1,3.6
				C320.9,407.7,322.2,407.3,321.9,406.6L321.9,406.6z"/>
		</g>
	</g>
	<g>
		<g>
			<path d="M324.1,404.3c0,1.4,0.4,2.6,1,3.8c0.2,0.4,0.7,0.4,1,0.1c0.7-0.6,1-1.3,1.4-2.2c0.4-1,1-3,2.5-2.6c0.8,0.2,1.1-1,0.3-1.2
				c-1.3-0.3-2.3,0.3-3.1,1.3c-0.9,1.2-0.9,2.8-2,3.8c0.3,0,0.7,0.1,1,0.1c-0.6-1-0.9-2-0.9-3.2
				C325.4,403.4,324.1,403.4,324.1,404.3L324.1,404.3z"/>
		</g>
	</g>
	<g>
		<g>
			<path d="M335,404.8c1.1-1.7,3.5-4,5.4-2.3c0.9,0.7,1.4,1.5,2.7,1c0.8-0.3,0.4-1.5-0.3-1.2c-1,0.3-1.8-1.4-2.7-1.7
				c-0.7-0.3-1.5-0.1-2.2,0.2c-1.7,0.7-3,1.9-4,3.4C333.5,404.8,334.5,405.5,335,404.8L335,404.8z"/>
		</g>
	</g>
	<g>
		<g>
			<path d="M343.8,403.2c0.2-0.7,0.2-1.3,0.1-2c-0.1-0.5-0.3-1.1-0.3-1.5c0.2-1.6,1.1-1,1.8-1.5c2-1.2,2.3-3.5,4.7-4.3
				c0.8-0.2,0.4-1.5-0.3-1.2c-1.2,0.4-2.3,1-3.1,2c-0.4,0.5-0.6,1.2-1,1.6c-0.6,0.7-1.1,0.7-1.8,1c-2.6,1.3-0.7,3.3-1.3,5.5
				C342.4,403.6,343.6,403.9,343.8,403.2L343.8,403.2z"/>
		</g>
	</g>
	<g>
		<g>
			<path d="M351.8,391.6c0.3-0.7,0.8-1.4,1.4-1.9c0.6-0.5-0.3-1.4-0.9-0.9c-0.7,0.6-1.2,1.3-1.6,2.1
				C350.4,391.7,351.5,392.3,351.8,391.6L351.8,391.6z"/>
		</g>
	</g>
	<g>
		<g>
			<path d="M354,388.2c1.5,0.2,2.9,0.4,4.4,0.5c0.8,0.1,1.7,0.2,2.3-0.3c1.5-1.2,1.2-4.3,1.1-5.9c-0.1-0.8-1.3-0.8-1.2,0
				c0.1,1.5,0.5,4.8-1.6,5.1c-0.7,0.1-1.5-0.2-2.2-0.3c-0.9-0.1-1.8-0.2-2.7-0.3C353.2,386.9,353.2,388.1,354,388.2L354,388.2z"/>
		</g>
	</g>
	<g>
		<g>
			<path d="M361.9,380c0.1-0.7,0.2-1.5,0.3-2.2c0-0.3-0.3-0.6-0.6-0.6c-0.4,0-0.6,0.3-0.6,0.6c-0.1,0.7-0.2,1.5-0.3,2.2
				c0,0.3,0.3,0.6,0.6,0.6C361.6,380.6,361.8,380.3,361.9,380L361.9,380z"/>
		</g>
	</g>
	<g>
		<g>
			<path d="M358,367.8c1.2,1.9,4,4.1,2.7,6.6c-0.4,0.7,0.7,1.3,1.1,0.6c1.6-3.1-1.2-5.4-2.7-7.8C358.6,366.5,357.6,367.2,358,367.8
				L358,367.8z"/>
		</g>
	</g>
	<g>
		<g>
			<path d="M322.6,425.5c0.7-1.1,1.9-1.7,3.2-1.5c0.8,0.1,1.1-1.1,0.3-1.2c-1.8-0.3-3.6,0.5-4.6,2.1
				C321.1,425.5,322.2,426.1,322.6,425.5L322.6,425.5z"/>
		</g>
	</g>
	<g>
		<g>
			<path d="M316.8,424.9c0.5,0,1,0,1.5,0c0.8,0,0.8-1.2,0-1.2c-0.5,0-1,0-1.5,0C315.9,423.6,315.9,424.9,316.8,424.9L316.8,424.9z"
				/>
		</g>
	</g>
	<g>
		<g>
			<path d="M306.8,434.9c1-4.2,4.2-7.5,8.4-8.6c0.8-0.2,0.4-1.4-0.3-1.2c-4.6,1.2-8.2,4.8-9.3,9.5
				C305.4,435.4,306.6,435.7,306.8,434.9L306.8,434.9z"/>
		</g>
	</g>
	<g>
		<g>
			<path d="M304.6,438.2c0.2,0.5,0.3,1,0.5,1.5c0.3,0.8,1.5,0.4,1.2-0.3c-0.2-0.5-0.3-1-0.5-1.5
				C305.5,437.1,304.3,437.4,304.6,438.2L304.6,438.2z"/>
		</g>
	</g>
	<g>
		<g>
			<path d="M289.7,444.3c0.5-0.7,0.9-1.5,1.4-2.2c0.4-0.7-0.7-1.3-1.1-0.6c-0.5,0.7-0.9,1.5-1.4,2.2
				C288.2,444.3,289.3,444.9,289.7,444.3L289.7,444.3z"/>
		</g>
	</g>
	<g>
		<g>
			<path d="M293.4,441c1.3-1.1,2.7-2.4,4.4-2.7c2.2-0.4,3.2,1.1,4.7,2.5c0.6,0.5,1.5-0.3,0.9-0.9c-1.6-1.5-2.7-3.1-5.1-2.9
				c-2.3,0.2-4.1,1.7-5.7,3.2C291.9,440.7,292.8,441.6,293.4,441L293.4,441z"/>
		</g>
	</g>
	<g>
		<g>
			<path d="M278.1,453.5c2-4.4,8-4.2,10.4-8.3c0.4-0.7-0.7-1.3-1.1-0.6c-2.3,4.1-8.3,3.9-10.4,8.3
				C276.7,453.6,277.7,454.3,278.1,453.5L278.1,453.5z"/>
		</g>
	</g>
	<g>
		<g>
			<path d="M275,456.5c0.2-0.3,0.7-0.5,1.1-0.4c0.8,0.1,1.1-1.1,0.3-1.2c-1-0.2-1.9,0.2-2.5,1C273.5,456.6,274.5,457.2,275,456.5
				L275,456.5z"/>
		</g>
	</g>
	<g>
		<g>
			<path d="M272.8,469.6c-0.3-1.7-0.5-3.4-0.8-5c-0.3-1.8-0.9-3.8,0.3-5.5c0.5-0.7-0.6-1.3-1.1-0.6c-0.9,1.3-0.9,2.6-0.8,4.1
				c0.3,2.5,0.7,4.9,1.1,7.4C271.7,470.7,272.9,470.3,272.8,469.6L272.8,469.6z"/>
		</g>
	</g>
	<g>
		<g>
			<path d="M69.8,391.2c3.7,1.3,5.7-2.8,6.6-5.6c0.2-0.8-1-1.1-1.2-0.3c-0.7,2.2-2,5.8-5,4.7C69.4,389.7,69.1,391,69.8,391.2
				L69.8,391.2z"/>
		</g>
	</g>
	<g>
		<g>
			<path d="M76.6,383c0-0.4,0.1-0.7,0.3-1.1c0.5-0.6-0.4-1.5-0.9-0.9c-0.5,0.6-0.7,1.2-0.7,1.9C75.4,383.8,76.7,383.8,76.6,383
				L76.6,383z"/>
		</g>
	</g>
	<g>
		<g>
			<path d="M69.2,391.5c1.6,1.6,3.3,3.1,5.2,4.3c0.7,0.4,1.3-0.6,0.6-1.1c-1.8-1.2-3.4-2.5-4.9-4.1C69.6,390,68.7,390.9,69.2,391.5
				L69.2,391.5z"/>
		</g>
	</g>
	<g>
		<g>
			<path d="M77,398.3c0.8,0.6,1.6,1.2,2.4,1.8c0.6,0.5,1.3-0.6,0.6-1.1c-0.8-0.6-1.6-1.2-2.4-1.8C76.9,396.7,76.3,397.8,77,398.3
				L77,398.3z"/>
		</g>
	</g>
	<g>
		<g>
			<path d="M82.3,401.9c2.4,1.4,4.6,3,6.8,4.7c0.6,0.5,1.5-0.4,0.9-0.9c-2.3-1.8-4.6-3.4-7.1-4.9C82.2,400.4,81.6,401.5,82.3,401.9
				L82.3,401.9z"/>
		</g>
	</g>
	<g>
		<g>
			<path d="M90.8,409.2c0.5,0.4,1,0.9,1.5,1.3c0.6,0.5,1.5-0.4,0.9-0.9c-0.5-0.4-1-0.9-1.5-1.3C91.1,407.7,90.2,408.6,90.8,409.2
				L90.8,409.2z"/>
		</g>
	</g>
	<g>
		<g>
			<path d="M94.4,412.4c1.8,1.5,3.6,2.9,5.5,4.2c0.7,0.5,1.3-0.6,0.6-1.1c-1.8-1.2-3.6-2.6-5.3-4C94.6,411,93.7,411.9,94.4,412.4
				L94.4,412.4z"/>
		</g>
	</g>
	<g>
		<g>
			<path d="M101.6,417.4c0.7,0.8,1.5,1.4,2.4,1.8c0.7,0.4,1.3-0.7,0.6-1.1c-0.8-0.4-1.5-1-2.1-1.6C101.9,416,101,416.8,101.6,417.4
				L101.6,417.4z"/>
		</g>
	</g>
	<g>
		<g>
			<path d="M106.3,420.9c2.3,1.5,4.6,3,6.8,4.5c0.7,0.5,1.3-0.6,0.6-1.1c-2.3-1.5-4.5-3-6.8-4.5
				C106.3,419.3,105.6,420.4,106.3,420.9L106.3,420.9z"/>
		</g>
	</g>
	<g>
		<g>
			<path d="M115.9,428.3c0.9,0.5,1.9,0.9,2.9,1c0.8,0.1,1.1-1.1,0.3-1.2c-0.9-0.1-1.8-0.4-2.6-0.9
				C115.9,426.8,115.2,427.9,115.9,428.3L115.9,428.3z"/>
		</g>
	</g>
	<g>
		<g>
			<path d="M122.1,431.4c2.5,2.9,5.7,5,9.3,6.3c0.8,0.3,1.1-0.9,0.3-1.2c-3.4-1.3-6.3-3.3-8.7-6
				C122.5,429.9,121.6,430.8,122.1,431.4L122.1,431.4z"/>
		</g>
	</g>
	<g>
		<g>
			<path d="M134.6,440.1c0.7,0.2,1.3,0.4,2,0.6c0.8,0.2,1.1-1,0.3-1.2c-0.7-0.2-1.3-0.4-2-0.6C134.1,438.6,133.8,439.9,134.6,440.1
				L134.6,440.1z"/>
		</g>
	</g>
	<g>
		<g>
			<path d="M140,442.8c2.9-0.7,5.8,0.4,7.6,2.7c0.5,0.6,1.6,0,1.1-0.6c-2.1-2.8-5.6-4.1-9-3.3C138.8,441.7,139.2,442.9,140,442.8
				L140,442.8z"/>
		</g>
	</g>
	<g>
		<g>
			<path d="M151.2,447.6c1-0.2,1.9,0.1,2.8,0.7c0.7,0.5,1.3-0.6,0.6-1.1c-1.1-0.8-2.4-1-3.7-0.8C150,446.5,150.4,447.8,151.2,447.6
				L151.2,447.6z"/>
		</g>
	</g>
	<g>
		<g>
			<path d="M156.7,449.4c3.4-0.2,6.4,1.7,9.8,2.1c0.8,0.1,0.8-1.2,0-1.2c-3.4-0.4-6.3-2.3-9.8-2.1
				C155.9,448.2,155.9,449.5,156.7,449.4L156.7,449.4z"/>
		</g>
	</g>
	<g>
		<g>
			<path d="M169.8,452.4c0.9,0,1.8,0,2.8,0c0.8,0,0.8-1.2,0-1.2c-0.9,0-1.8,0-2.8,0C168.9,451.1,168.9,452.4,169.8,452.4
				L169.8,452.4z"/>
		</g>
	</g>
	<g>
		<g>
			<path d="M175.5,453.4c3.8,0,7.5,0,11.2,0c0.8,0,0.8-1.2,0-1.2c-3.8,0-7.5,0-11.2,0C174.7,452.1,174.7,453.4,175.5,453.4
				L175.5,453.4z"/>
		</g>
	</g>
	<g>
		<g>
			<path d="M191,453.4c0.8,0,1.5,0,2.2,0c0.8,0,0.8-1.2,0-1.2c-0.8,0-1.5,0-2.2,0C190.2,452.1,190.2,453.4,191,453.4L191,453.4z"/>
		</g>
	</g>
	<g>
		<g>
			<path d="M197,453.4c3.2-0.1,6.5-0.2,9.7-0.3c0.8,0,0.8-1.3,0-1.2c-3.2,0.1-6.5,0.2-9.7,0.3C196.2,452.2,196.2,453.5,197,453.4
				L197,453.4z"/>
		</g>
	</g>
	<g>
		<g>
			<path d="M208.8,452.6c1.1,0,2.2,0,3.2,0c0.8,0,0.8-1.2,0-1.2c-1.1,0-2.2,0-3.2,0C207.9,451.4,207.9,452.6,208.8,452.6
				L208.8,452.6z"/>
		</g>
	</g>
	<g>
		<g>
			<path d="M214.8,452.5c4.2-0.6,8.2-0.1,12.1,1.5c0.7,0.3,1.1-0.9,0.3-1.2c-4-1.6-8.2-2.1-12.4-1.5
				C214,451.3,214,452.6,214.8,452.5L214.8,452.5z"/>
		</g>
	</g>
	<g>
		<g>
			<path d="M230.2,454.4c1.3-0.2,2.6,0,3.8,0.6c0.7,0.4,1.3-0.7,0.6-1.1c-1.5-0.8-3.1-1-4.7-0.8C229,453.3,229.4,454.5,230.2,454.4
				L230.2,454.4z"/>
		</g>
	</g>
	<g>
		<g>
			<path d="M237.1,455.9c3.5,0.5,6.7,1.8,9.5,3.9c0.6,0.5,1.3-0.6,0.6-1.1c-2.9-2.2-6.2-3.5-9.8-4.1
				C236.7,454.6,236.3,455.8,237.1,455.9L237.1,455.9z"/>
		</g>
	</g>
	<g>
		<g>
			<path d="M249.5,461.1c0.8-0.1,1.6,0.1,2.3,0.6c0.6,0.5,1.5-0.4,0.9-0.9c-0.9-0.7-2-1.1-3.2-0.9
				C248.7,460,248.7,461.2,249.5,461.1L249.5,461.1z"/>
		</g>
	</g>
	<g>
		<g>
			<path d="M254.3,462.5c3.1,0.2,5.9,1.3,8.3,3.2c0.6,0.5,1.5-0.4,0.9-0.9c-2.7-2.1-5.8-3.3-9.2-3.6
				C253.5,461.2,253.5,462.4,254.3,462.5L254.3,462.5z"/>
		</g>
	</g>
	<g>
		<g>
			<path d="M265.9,467.2c1.5,0.4,2.9,0.9,4.3,1.6c0.7,0.4,1.3-0.7,0.6-1.1c-1.4-0.8-3-1.4-4.6-1.8
				C265.4,465.8,265.1,467,265.9,467.2L265.9,467.2z"/>
		</g>
	</g>
	<g>
		<g>
			<path d="M78.7,378.9c0.3-1.7,0.3-3.4,0.1-5.1c-0.4-2.3-1.8-4.5-1.4-6.9c0.1-0.8-1.1-1.1-1.2-0.3c-0.2,1.6,0.1,2.9,0.6,4.4
				c0.8,2.5,1.2,5,0.8,7.6C77.4,379.3,78.6,379.7,78.7,378.9L78.7,378.9z"/>
		</g>
	</g>
	<g>
		<g>
			<path d="M75.9,363.3c-0.1-0.4,0.2-0.9,0.6-0.9c0.8,0,0.8-1.3,0-1.2c-1.2,0.1-2.2,1.3-1.8,2.5C74.9,364.4,76.1,364.1,75.9,363.3
				L75.9,363.3z"/>
		</g>
	</g>
	<g>
		<g>
			<path d="M79.2,359.9c0.6-2,0.9-4,1-6c0-1.9-0.9-4.7-0.2-6.4c0.3-0.7-0.9-1.1-1.2-0.3c-0.6,1.5,0,3.3,0.1,4.9
				c0.2,2.6-0.2,5.1-0.9,7.6C77.8,360.3,79,360.6,79.2,359.9L79.2,359.9z"/>
		</g>
	</g>
	<g>
		<g>
			<path d="M81.8,346.1c0.5,0,1,0,1.5,0c0.8,0,0.8-1.2,0-1.2c-0.5,0-1,0-1.5,0C80.9,344.9,80.9,346.1,81.8,346.1L81.8,346.1z"/>
		</g>
	</g>
	<g>
		<g>
			<path d="M86.2,343.2c-0.3-0.6,1.2-1.5,1.5-2c0.3-0.6,0.3-1.2,0.1-1.8c-0.5-2.1-2.6-4.1-3.9-5.9c-0.5-0.6-1.5,0-1.1,0.6
				c0.6,0.9,1.3,1.8,1.9,2.7c0.8,1.1,2.1,2.3,1.5,3.7c-0.5,1.1-1.8,1.7-1.3,3.1C85.3,344.3,86.5,344,86.2,343.2L86.2,343.2z"/>
		</g>
	</g>
	<g>
		<g>
			<path d="M79.4,330.6c0.3,0.2,0.7,0.5,1,0.7c0.6,0.5,1.3-0.6,0.6-1.1c-0.3-0.2-0.7-0.5-1-0.7C79.4,329,78.8,330.1,79.4,330.6
				L79.4,330.6z"/>
		</g>
	</g>
	<g>
		<g>
			<path d="M78.4,326.1c-1.2-1.5-2.3-3.1-3.5-4.6c-0.5-0.6-1.6,0-1.1,0.6c1.2,1.5,2.3,3.1,3.5,4.6C77.8,327.4,78.9,326.7,78.4,326.1
				L78.4,326.1z"/>
		</g>
	</g>
	<g>
		<g>
			<path d="M75,321.7c0.3-1.6,1-3,2.2-4.2c0.6-0.6-0.3-1.5-0.9-0.9c-1.3,1.3-2.1,2.9-2.5,4.7C73.7,322.1,74.9,322.4,75,321.7
				L75,321.7z"/>
		</g>
	</g>
	<g>
		<g>
			<path d="M79.4,313.8c-0.1-0.5-0.1-1,0.3-1.4c0.5-0.6-0.4-1.5-0.9-0.9c-0.6,0.7-0.9,1.7-0.6,2.6C78.4,314.9,79.6,314.6,79.4,313.8
				L79.4,313.8z"/>
		</g>
	</g>
	<g>
		<g>
			<path d="M81.4,309.2c2.1-3.2,4.4-6,5.8-9.6c0.3-0.7-0.9-1.1-1.2-0.3c-1.4,3.5-3.6,6.2-5.7,9.3C79.8,309.2,80.9,309.9,81.4,309.2
				L81.4,309.2z"/>
		</g>
	</g>
	<g>
		<g>
			<path d="M89.8,295.9c0.2-0.6,0.4-1.2,0.5-1.7c0.2-0.8-1-1.1-1.2-0.3c-0.2,0.6-0.4,1.2-0.5,1.7C88.4,296.3,89.6,296.7,89.8,295.9
				L89.8,295.9z"/>
		</g>
	</g>
	<g>
		<g>
			<path d="M92.3,291.4c0.3-1.9,1.5-3.3,2.5-4.8c1-1.4,2.1-2.9,3.1-4.3c0.5-0.7-0.6-1.3-1.1-0.6c-1.2,1.6-2.4,3.3-3.5,4.9
				c-1,1.4-2,2.8-2.3,4.6C91,291.9,92.2,292.2,92.3,291.4L92.3,291.4z"/>
		</g>
	</g>
	<g>
		<g>
			<path d="M100,278.8c0.3-0.7,0.7-1.3,1-2c0.4-0.7-0.7-1.4-1.1-0.6c-0.3,0.7-0.7,1.3-1,2C98.6,278.9,99.6,279.5,100,278.8
				L100,278.8z"/>
		</g>
	</g>
	<g>
		<g>
			<path d="M102.5,273.4c0.3-1.8,1.9-3.5,2.9-5c1.1-1.7,2.2-3.3,3.4-5c0.5-0.7-0.6-1.3-1.1-0.6c-1.3,1.9-2.5,3.7-3.8,5.6
				c-1,1.4-2.3,2.9-2.6,4.6C101.2,273.9,102.4,274.2,102.5,273.4L102.5,273.4z"/>
		</g>
	</g>
	<g>
		<g>
			<path d="M110.1,260.3c0.3-0.7,0.7-1.3,1-2c0.4-0.7-0.7-1.4-1.1-0.6c-0.3,0.7-0.7,1.3-1,2C108.6,260.4,109.7,261.1,110.1,260.3
				L110.1,260.3z"/>
		</g>
	</g>
	<g>
		<g>
			<path d="M113.1,256c1.4-3.4,3.2-6.5,5.5-9.4c0.5-0.6-0.6-1.3-1.1-0.6c-2.2,2.9-4,6-5.5,9.4C111.7,256.1,112.8,256.7,113.1,256
				L113.1,256z"/>
		</g>
	</g>
	<g>
		<g>
			<path d="M120.2,243.4c0.7,0,1.3,0,2,0c0.8,0,0.8-1.2,0-1.2c-0.7,0-1.3,0-2,0C119.4,242.1,119.4,243.4,120.2,243.4L120.2,243.4z"
				/>
		</g>
	</g>
	<g>
		<g>
			<path d="M125.5,243.3c3.8,0.2,7.7,0.1,11.5-0.2c0.8-0.1,0.8-1.3,0-1.2c-3.8,0.3-7.7,0.4-11.5,0.2
				C124.7,242.1,124.7,243.3,125.5,243.3L125.5,243.3z"/>
		</g>
	</g>
	<g>
		<g>
			<path d="M141.2,243.1c0.8,0,1.5,0,2.2,0c0.8,0,0.8-1.2,0-1.2c-0.8,0-1.5,0-2.2,0C140.4,241.9,140.4,243.1,141.2,243.1
				L141.2,243.1z"/>
		</g>
	</g>
	<g>
		<g>
			<path d="M147.2,243.4c3.5,0,7,0,10.5,0c0.8,0,0.8-1.2,0-1.2c-3.5,0-7,0-10.5,0C146.4,242.1,146.4,243.4,147.2,243.4L147.2,243.4z
				"/>
		</g>
	</g>
	<g>
		<g>
			<path d="M162.5,243.6c0.4,0,0.8,0,1.2,0c0.8,0,0.8-1.2,0-1.2c-0.4,0-0.8,0-1.2,0C161.7,242.4,161.7,243.6,162.5,243.6
				L162.5,243.6z"/>
		</g>
	</g>
	<g>
		<g>
			<path d="M167.5,243.4c3.9,0,7.8,0,11.8,0c0.8,0,0.8-1.2,0-1.2c-3.9,0-7.8,0-11.8,0C166.7,242.1,166.7,243.4,167.5,243.4
				L167.5,243.4z"/>
		</g>
	</g>
	<g>
		<g>
			<path d="M181.5,243.4c0.8,0,1.7,0,2.5,0c0.8,0,0.8-1.2,0-1.2c-0.8,0-1.7,0-2.5,0C180.7,242.1,180.7,243.4,181.5,243.4
				L181.5,243.4z"/>
		</g>
	</g>
	<g>
		<g>
			<path d="M187,243.4c4.2-0.1,8.5-0.2,12.7-0.4c0.8,0,0.8-1.3,0-1.2c-4.2,0.1-8.5,0.2-12.7,0.4C186.2,242.2,186.2,243.4,187,243.4
				L187,243.4z"/>
		</g>
	</g>
	<g>
		<g>
			<path d="M203.5,243.4c0.6,0,1.2,0,1.8,0c0.8,0,0.8-1.2,0-1.2c-0.6,0-1.2,0-1.8,0C202.7,242.1,202.7,243.4,203.5,243.4
				L203.5,243.4z"/>
		</g>
	</g>
	<g>
		<g>
			<path d="M208.2,243.1c4.4,0,8.8,0,13.2,0c0.8,0,0.8-1.2,0-1.2c-4.4,0-8.8,0-13.2,0C207.4,241.9,207.4,243.1,208.2,243.1
				L208.2,243.1z"/>
		</g>
	</g>
	<g>
		<g>
			<path d="M224.2,243.4c0.6,0,1.2,0,1.8,0c0.8,0,0.8-1.2,0-1.2c-0.6,0-1.2,0-1.8,0C223.4,242.1,223.4,243.4,224.2,243.4
				L224.2,243.4z"/>
		</g>
	</g>
	<g>
		<g>
			<path d="M229.5,243.4c1.9,0,3.7,0,5.6,0c1.2,0,2.6,0.2,3.7-0.4c1.6-0.8,1.6-2.9,0.3-4c-0.6-0.5-1.5,0.4-0.9,0.9
				c1.7,1.5-0.6,2.2-1.7,2.3c-0.7,0-1.4,0-2.1,0c-1.6,0-3.3,0-4.9,0C228.7,242.1,228.7,243.4,229.5,243.4L229.5,243.4z"/>
		</g>
	</g>
	<g>
		<g>
			<path d="M241.7,238.7c0.4-0.8,0.2-1.2-0.2-2c-0.4-0.3-0.6-0.8-0.7-1.3c0.3-0.1,0.5-0.2,0.8-0.4c0.3-0.3,0.5-0.6,0.6-0.9
				c0.8-2-1-3.6-2.5-4.6c-0.7-0.5-1.3,0.6-0.6,1.1c1.1,0.7,2.2,1.5,1.8,2.9c-0.3,1-0.5,0.6-1.1,1.2c-0.1,0.1-0.2,0.2-0.3,0.3
				c-0.8,1.3,1.5,2.3,1.1,3.2C240.2,238.8,241.3,239.4,241.7,238.7L241.7,238.7z"/>
		</g>
	</g>
	<g>
		<g>
			<path d="M239.7,227.5c0.3,0.2,0.5,0.3,0.8,0.5c0.7,0.4,1.3-0.6,0.6-1.1c-0.3-0.2-0.5-0.3-0.8-0.5
				C239.6,226,239,227.1,239.7,227.5L239.7,227.5z"/>
		</g>
	</g>
	<g>
		<g>
			<path d="M240.5,225c0.9,0,1.5-0.6,1.7-1.5c0.2-0.9-0.5-2.5,0.2-3.2c0.6-0.6-0.3-1.5-0.9-0.9c-0.6,0.6-0.7,1.3-0.6,2.1
				c0,0.5,0.5,2.3-0.4,2.2C239.7,223.8,239.7,225,240.5,225L240.5,225z"/>
		</g>
	</g>
	<g>
		<g>
			<path d="M243.7,218.9c0.7-0.1,1.2-0.5,1.6-1.1c0.5-0.6-0.6-1.3-1.1-0.6c-0.2,0.3-0.5,0.4-0.9,0.5
				C242.5,217.8,242.9,219,243.7,218.9L243.7,218.9z"/>
		</g>
	</g>
	<g>
		<g>
			<path d="M243.7,216.4c-0.8-1.5,2.2-1.1,3-1.7c0.7-0.6,0.6-1.3,0.2-2c-0.4-0.7-0.5-1.1-0.6-1.9c-0.1-0.4-0.2-0.7-0.4-1
				c-0.5-0.6-1.3-0.9-2-0.4c-0.6,0.5,0,1.5,0.6,1.1c0.5-0.4,0.6,1.5,0.7,1.7c0.1,0.3,0.3,0.5,0.4,0.8c0.3,0.2,0.3,0.5,0,0.9
				c-0.3,0-0.6,0-0.9,0c-0.3,0-0.7,0-1,0.1c-1.3,0.5-1.6,1.9-1,3C243,217.7,244,217.1,243.7,216.4L243.7,216.4z"/>
		</g>
	</g>
	<g>
		<g>
			<path d="M239.9,208.6c0.4-0.1,0.7,0,1,0.2c0.7,0.4,1.3-0.7,0.6-1.1c-0.6-0.3-1.3-0.4-2-0.3C238.8,207.6,239.1,208.8,239.9,208.6
				L239.9,208.6z"/>
		</g>
	</g>
	<g>
		<g>
			<path d="M229.9,203.9c1.2-0.2,2,1.5,2.9,2.1c0.3,0.2,0.7,0.4,1.1,0.4c0.2,0,2.4-0.2,2.2,0.4c-0.3,0.7,0.9,1.1,1.2,0.3
				c0.3-0.6,0.1-1.2-0.4-1.6c-0.7-0.6-1.4-0.4-2.2-0.3c-2.1,0-2.7-2.8-5.1-2.5C228.8,202.8,229.1,204,229.9,203.9L229.9,203.9z"/>
		</g>
	</g>
	<g>
		<g>
			<path d="M222.5,193.4c0.2,1.1,0.2,2.1-0.1,3.2c-0.2,0.7-0.8,1.3-0.9,2c-0.2,0.7-0.1,1.3,0.6,1.6c0.3,0.1,0.6,0,0.8,0.1
				c1.3,0.4,0.9,0.8,1.3,1.6c0.4,0.8,0.8,1.2,1.7,1.3c0.8,0.1,0.8-1.2,0-1.2c-0.6-0.1-0.9-2-1.5-2.5c-0.3-0.2-1.5-0.4-1.5-0.4
				c-0.3-0.4,0.7-2.1,0.8-2.7c0.2-1.1,0.2-2.2-0.1-3.3C223.6,192.3,222.4,192.7,222.5,193.4L222.5,193.4z"/>
		</g>
	</g>
	<g>
		<g>
			<path d="M219.6,192.9c0.2,0.9,1.1,1.2,1.9,0.8c0.7-0.3,0.1-1.4-0.6-1.1c0,0-0.1-0.1-0.1-0.1C220.6,191.8,219.4,192.1,219.6,192.9
				L219.6,192.9z"/>
		</g>
	</g>
	<g>
		<g>
			<path d="M214.4,180.1c2.6,2.5,5.4,5.2,5.7,9c0.1,0.8,1.3,0.8,1.2,0c-0.3-4.1-3.2-7.1-6-9.9C214.7,178.6,213.8,179.5,214.4,180.1
				L214.4,180.1z"/>
		</g>
	</g>
	<g>
		<g>
			<path d="M211.7,176.3c0.2,0.3,0.3,0.5,0.5,0.8c0.4,0.7,1.5,0,1.1-0.6c-0.2-0.3-0.3-0.5-0.5-0.8
				C212.3,175,211.3,175.6,211.7,176.3L211.7,176.3z"/>
		</g>
	</g>
	<g>
		<g>
			<path d="M200,170.5c1.7-0.5,2.7,2.9,4.7,2.7c0.9-0.1,1.5-0.9,2.2,0.1c0.3,0.4,0.3,0.7,0.8,1c0.7,0.4,1.3-0.7,0.6-1.1
				c-0.5-0.3-0.4-1.4-1-1.8c-0.6-0.4-1.1-0.1-1.7,0c-2.2,0.7-2.2-0.5-3.6-1.6c-0.7-0.6-1.5-0.8-2.4-0.6
				C198.9,169.5,199.2,170.7,200,170.5L200,170.5z"/>
		</g>
	</g>
	<g>
		<g>
			<path d="M207.2,173.8c-0.2,0.7-0.1,1.4,0.3,2c0.4,0.7,1.5,0.1,1.1-0.6c-0.2-0.3-0.2-0.7-0.1-1
				C208.6,173.4,207.4,173.1,207.2,173.8L207.2,173.8z"/>
		</g>
	</g>
	<g>
		<g>
			<path d="M195.7,168.2c0.2,0.7,0.3,1.3,0.5,2c0.2,0.8,1.4,0.4,1.2-0.3c-0.2-0.7-0.3-1.3-0.5-2C196.7,167,195.5,167.4,195.7,168.2
				L195.7,168.2z"/>
		</g>
	</g>
	<g>
		<g>
			<path d="M190,165.7c0.2-1,0.6-2.1,1.5-2.6c0.2-0.2,0.4-0.3,0.5,0c0.1,0.2,0.1,0.6,0.1,0.8c0,0.6,0,1.3,0,1.9c0,0.8,1.2,0.8,1.2,0
				c0.1-1.2,0.4-4.4-1.7-4.1c-1.6,0.2-2.6,2.3-2.9,3.7C188.7,166.1,189.9,166.4,190,165.7L190,165.7z"/>
		</g>
	</g>
	<g>
		<g>
			<path d="M186.8,162.4c-0.3,0-0.7,0-1,0c-0.8,0-0.8,1.2,0,1.2c0.3,0,0.7,0,1,0C187.6,163.6,187.6,162.4,186.8,162.4L186.8,162.4z"
				/>
		</g>
	</g>
	<g>
		<g>
			<path d="M177.3,151c1.2,1.1,1.1,3,2.1,4.3c1.5,2.1,3.1,3.3,3.4,6c0.1,0.8,1.4,0.8,1.2,0c-0.3-2.3-1.2-4-2.7-5.7
				c-1.1-1.2-1.4-2.1-1.9-3.5c-0.3-0.8-0.6-1.4-1.2-1.9C177.6,149.5,176.7,150.4,177.3,151L177.3,151z"/>
		</g>
	</g>
	<g>
		<g>
			<path d="M171.9,150c0.6,0.3,1.2,0.7,1.8,1c0.7,0.4,1.3-0.7,0.6-1.1c-0.6-0.3-1.2-0.7-1.8-1C171.9,148.6,171.2,149.6,171.9,150
				L171.9,150z"/>
		</g>
	</g>
	<g>
		<g>
			<path d="M150,128.1c0.8,0,1.7,0,2.5,0c0.8,0,0.8-1.2,0-1.2c-0.8,0-1.7,0-2.5,0C149.2,126.9,149.2,128.1,150,128.1L150,128.1z"/>
		</g>
	</g>
	<g>
		<g>
			<path d="M148.9,129.4c-1,1.5,0.5,3,2,3.1c0.7,0.1,1.5-0.2,2.2-0.1c1.3,0.2,1.5,0.9,2.2,1.7c0.7,0.8,1.3,1.2,2.4,1.3
				c0.8,0,0.8-1.2,0-1.2c-1.5,0-2.1-2.1-3.3-2.7c-0.5-0.2-1-0.3-1.6-0.3c-0.5,0-3.9,0.4-2.9-1.1
				C150.4,129.4,149.4,128.7,148.9,129.4L148.9,129.4z"/>
		</g>
	</g>
	<g>
		<g>
			<path d="M161.4,135.4c0.3,0,0.5,0,0.8,0.2c0.7,0.4,1.3-0.7,0.6-1.1c-0.5-0.3-1.1-0.4-1.7-0.3
				C160.3,134.3,160.6,135.5,161.4,135.4L161.4,135.4z"/>
		</g>
	</g>
	<g>
		<g>
			<path d="M163.8,137.3c-0.7,1.5-0.1,2.9,1.2,3.8c0.9,0.7,2.1,1.1,2.9,2c1.1,1.1,1.7,2.6,1.7,4.2c0,0.8,1.3,0.8,1.2,0
				c0-1.7-0.5-3.3-1.6-4.6c-1.1-1.3-5.3-2.8-4.4-4.8C165.3,137.2,164.2,136.5,163.8,137.3L163.8,137.3z"/>
		</g>
	</g>
	<g>
		<g>
			<path d="M331.5,404.4c0.2,0,0.3,0,0.5,0c0.8,0,0.8-1.2,0-1.2c-0.2,0-0.3,0-0.5,0C330.7,403.1,330.7,404.4,331.5,404.4
				L331.5,404.4z"/>
		</g>
	</g>
</g>
<g id="Layer_4" display="none">
	<g display="inline">
		<g>
			<path fill="#BE1E2D" d="M220,368.8c2.3-3.3,9.2-11.9,12.9-4.8c2.2,4.3-1.3,10.8-3.7,14.3c-2.6,3.9-5.9,7.3-8.8,10.9
				c-2.7,3.4-4.9,7-7.3,10.6c-1.8,2.7,2.6,5.2,4.3,2.5c4.5-6.9,9.7-12.9,14.6-19.5c3.9-5.2,7.3-12,6-18.7c-1-4.8-4.6-8-9.6-7.7
				c-5.9,0.3-9.7,5.2-12.8,9.7C213.8,369,218.1,371.5,220,368.8L220,368.8z"/>
		</g>
	</g>
	<g display="inline">
		<g>
			<path fill="#BE1E2D" d="M216.2,365.8c-2.8-4.5-6.3-9.6-12.1-10c-5.2-0.3-8.5,3.4-9.2,8.2c-1.1,6.7,2,13.5,5.7,18.9
				c4.6,6.7,9.5,13,13.7,20c1.7,2.8,6,0.2,4.3-2.5c-2.4-4-4.7-8.1-7.5-11.8c-2.7-3.6-5.7-7.1-8-11c-2.1-3.6-5-10-3-14.2
				c3.4-7.3,9.8,1.8,11.9,4.9C213.6,371.1,217.9,368.6,216.2,365.8L216.2,365.8z"/>
		</g>
	</g>
	<g display="inline">
		<g>
			<path fill="#BE1E2D" d="M202.7,371.8c2.7,7.9,7.2,15.2,10.9,22.6c1.4-0.8,2.9-1.7,4.3-2.5c-3.8-5.8-7.3-11.7-10.3-17.9
				c-0.6-1.2-5.2-9.4-3.3-10.2c0.5-0.2,6.8,8.8,7.6,9.7c1.3-1,2.6-2,3.9-3c-2.8-3.1-5.9-5.2-9.8-6.8c-1.2-0.5-2.8,0.6-3.1,1.7
				c-1.6,6.2-1.3,12.2,0.8,18.2c1.1,3,5.9,1.7,4.8-1.3c-2.3-6.4-3.3-12.8-3.1-19.5c0.1-1.8-2.2-3.3-3.8-2.2
				c-8.6,6.2-1.3,15.1,5,19.3c0.9,0.6,2.3,0.4,3-0.4c0.1-0.1,2.7-3.8,1.9-3.9c-0.1,0,2,6.1,2.3,6.8c0.9,2.5,5,2.3,4.9-0.7
				c-0.1-4.9-1.3-9.3,2.9-12.7c0.5-0.4,3.6-3.2,4.4-1.9c0.5,0.8-2.3,4.4-2.8,5.2c-4.1,6.1-7.2,12.3-9.2,19.4c1.5-0.2,3-0.4,4.6-0.6
				c-1.1-2.3-11.2-20.2-9.6-21.7c-1,0.1-2,0.3-3,0.4c4.7,3.5,3.5,17.5,11.1,17.4c2.5-0.1,3.5-1.8,4.5-3.9c2-4.5,3.5-9.5,5.2-14.2
				c0.8-2.3-1.9-3.6-3.7-2.8c-8.2,3.5-6,13.1-6.3,20.1c-0.1,1.3,1.2,2.6,2.5,2.5c3.1-0.2,5-1.8,6.8-4.3c2.5-3.5,5.2-7.3,7-11.2
				c2.5-5.2,1.5-13-5.4-13.9c-1.3-0.2-2.8,0.3-3.1,1.7c-0.4,2.4-0.9,4.7-1.3,7.1c-0.6,3.1,4.2,4.5,4.8,1.3c0.4-2.4,0.9-4.7,1.3-7.1
				c-1,0.6-2.1,1.2-3.1,1.7c6.3,0.9,1.4,8.5-0.3,11.1c-1.3,2.1-4.1,8.4-6.8,8.5c0.8,0.8,1.7,1.7,2.5,2.5c0.3-5-2.1-13.3,3.8-15.8
				c-1.2-0.9-2.4-1.9-3.7-2.8c-1.1,3-2.1,5.9-3.2,8.9c-0.6,1.5-0.4,3.7-2.2,3c-1.4-0.5-1.5-2.6-1.8-3.9c-1.2-4.2-2.6-7.7-6.2-10.3
				c-0.9-0.7-2.3-0.3-3,0.4c-3,2.7-1.4,6.4,0.1,9.6c2.9,6.1,5.8,12.1,8.7,18.2c1,2,4,1.3,4.6-0.6c2-6.9,5.3-12.8,9.1-18.8
				c2-3.1,5.3-8.8,1.8-12.1c-3.9-3.7-10.1,2-13.1,4.2c-2,1.5-2.9,2.2-3.2,4.8c-0.3,3.4,0.1,7.1,0.2,10.5c1.6-0.2,3.3-0.4,4.9-0.7
				c-1.2-3.2-2.5-11.2-6.7-12.1c-1.5-0.3-2.9,0.4-3.9,1.5c-1.3,1.5-0.7,4.1-1.9,5.4c1-0.1,2-0.3,3-0.4c-2.6-1.7-9.9-7.2-5-10.7
				c-1.3-0.7-2.5-1.4-3.8-2.2c-0.2,7.2,0.8,14.1,3.2,20.8c1.6-0.4,3.2-0.9,4.8-1.3c-1.9-5.2-2.2-10.2-0.8-15.5
				c-1,0.6-2.1,1.2-3.1,1.7c3,1.3,5.4,3.1,7.6,5.5c1.9,2.1,5.7-0.8,3.9-3c-2.7-3.5-6.1-10.5-10.4-12.2c-3.2-1.3-6.4,0.9-7.1,4.2
				c-0.9,4.6,3.1,10.5,5,14.3c2.9,5.9,6.3,11.6,9.9,17.1c1.8,2.7,5.8,0.3,4.3-2.5c-3.6-7-7.9-14-10.4-21.4
				C206.5,367.4,201.6,368.7,202.7,371.8L202.7,371.8z"/>
		</g>
	</g>
</g>
</svg>
